<svg width="75" height="22" viewBox="0 0 75 22" fill="none" xmlns="http://www.w3.org/2000/svg">
<g opacity="0.2">
<path d="M0.629687 16.5194C0.397827 16.4972 0.227894 16.2912 0.25013 16.0593L0.612498 12.281C0.634734 12.0491 0.840721 11.8792 1.07258 11.9014C1.30444 11.9236 1.47437 12.1296 1.45214 12.3615L1.13003 15.72L4.48859 16.0421C4.72045 16.0644 4.89039 16.2704 4.86815 16.5022C4.84591 16.7341 4.63993 16.904 4.40807 16.8818L0.629687 16.5194ZM19.1577 0.847656L19.4261 1.17298L0.938337 16.4249L0.66995 16.0996L0.401563 15.7743L18.8893 0.522328L19.1577 0.847656Z" fill="white"/>
<path d="M36.8541 21.3336C37.0188 21.4983 37.2859 21.4983 37.4506 21.3336L40.1345 18.6497C40.2992 18.485 40.2992 18.2179 40.1345 18.0532C39.9698 17.8885 39.7028 17.8885 39.5381 18.0532L37.1523 20.439L34.7666 18.0532C34.6019 17.8885 34.3348 17.8885 34.1701 18.0532C34.0054 18.2179 34.0054 18.485 34.1701 18.6497L36.8541 21.3336ZM37.1523 0.847656L36.7306 0.847656L36.7306 21.0354L37.1523 21.0354L37.5741 21.0354L37.5741 0.847656L37.1523 0.847656Z" fill="white"/>
<path d="M73.6745 16.5194C73.9064 16.4972 74.0763 16.2912 74.0541 16.0593L73.6917 12.281C73.6695 12.0491 73.4635 11.8792 73.2316 11.9014C72.9998 11.9236 72.8298 12.1296 72.8521 12.3615L73.1742 15.72L69.8156 16.0421C69.5837 16.0644 69.4138 16.2704 69.436 16.5022C69.4583 16.7341 69.6643 16.904 69.8961 16.8818L73.6745 16.5194ZM55.1465 0.847656L54.8781 1.17298L73.3659 16.4249L73.6342 16.0996L73.9026 15.7743L55.4149 0.522328L55.1465 0.847656Z" fill="white"/>
</g>
</svg>
