<svg width="75" height="76" viewBox="0 0 75 76" fill="none" xmlns="http://www.w3.org/2000/svg">
<rect y="0.853027" width="75" height="75" rx="12" fill="#1E242E"/>
<path d="M19.666 52.1862V47.5196C19.666 46.5751 19.9093 45.7073 20.396 44.9162C20.8827 44.1251 21.5282 43.5207 22.3327 43.1029C24.0549 42.2418 25.8049 41.5962 27.5827 41.1662C29.3605 40.7362 31.166 40.5207 32.9993 40.5196C34.8327 40.5185 36.6382 40.734 38.416 41.1662C40.1938 41.5985 41.9438 42.244 43.666 43.1029C44.4716 43.5196 45.1177 44.124 45.6043 44.9162C46.091 45.7085 46.3338 46.5762 46.3327 47.5196V52.1862H19.666ZM49.666 52.1862V47.1862C49.666 45.964 49.326 44.7901 48.646 43.6646C47.966 42.539 47.0005 41.574 45.7493 40.7696C47.166 40.9362 48.4993 41.2212 49.7493 41.6246C50.9993 42.0279 52.166 42.5207 53.2494 43.1029C54.2494 43.6585 55.0132 44.2762 55.541 44.9562C56.0688 45.6362 56.3327 46.3796 56.3327 47.1862V52.1862H49.666ZM32.9993 38.8529C31.166 38.8529 29.5966 38.2001 28.291 36.8946C26.9855 35.589 26.3327 34.0196 26.3327 32.1862C26.3327 30.3529 26.9855 28.7835 28.291 27.4779C29.5966 26.1724 31.166 25.5196 32.9993 25.5196C34.8327 25.5196 36.4021 26.1724 37.7077 27.4779C39.0132 28.7835 39.666 30.3529 39.666 32.1862C39.666 34.0196 39.0132 35.589 37.7077 36.8946C36.4021 38.2001 34.8327 38.8529 32.9993 38.8529ZM49.666 32.1862C49.666 34.0196 49.0132 35.589 47.7077 36.8946C46.4021 38.2001 44.8327 38.8529 42.9993 38.8529C42.6938 38.8529 42.3049 38.8185 41.8327 38.7496C41.3605 38.6807 40.9716 38.604 40.666 38.5196C41.416 37.6307 41.9927 36.6446 42.396 35.5612C42.7993 34.4779 43.0005 33.3529 42.9993 32.1862C42.9982 31.0196 42.7971 29.8946 42.396 28.8112C41.9949 27.7279 41.4182 26.7418 40.666 25.8529C41.0549 25.714 41.4438 25.6235 41.8327 25.5812C42.2216 25.539 42.6105 25.5185 42.9993 25.5196C44.8327 25.5196 46.4021 26.1724 47.7077 27.4779C49.0132 28.7835 49.666 30.3529 49.666 32.1862Z" fill="white"/>
</svg>
