<svg width="75" height="76" viewBox="0 0 75 76" fill="none" xmlns="http://www.w3.org/2000/svg">
<rect y="0.353027" width="75" height="75" rx="12" fill="#1E242E"/>
<path d="M55.5 38.388C50.9592 38.6668 46.6771 40.5964 43.4602 43.8132C40.2434 47.0301 38.3138 51.3122 38.035 55.853H37.965C37.6867 51.3121 35.7573 47.0296 32.5404 43.8127C29.3234 40.5957 25.041 38.6663 20.5 38.388V38.318C25.041 38.0398 29.3234 36.1104 32.5404 32.8934C35.7573 29.6764 37.6867 25.394 37.965 20.853H38.035C38.3138 25.3938 40.2434 29.6759 43.4602 32.8928C46.6771 36.1097 50.9592 38.0392 55.5 38.318V38.388Z" fill="#448AFF"/>
</svg>
