<svg width="48" height="48" viewBox="0 0 48 48" fill="none" xmlns="http://www.w3.org/2000/svg">
<rect width="48" height="48" rx="12" fill="#1E242E"/>
<path d="M27 31.0001C27.2652 31.0001 27.5196 31.1055 27.7071 31.293C27.8946 31.4805 28 31.7349 28 32.0001C28 32.2653 27.8946 32.5197 27.7071 32.7072C27.5196 32.8948 27.2652 33.0001 27 33.0001H21C20.7348 33.0001 20.4804 32.8948 20.2929 32.7072C20.1054 32.5197 20 32.2653 20 32.0001C20 31.7349 20.1054 31.4805 20.2929 31.293C20.4804 31.1055 20.7348 31.0001 21 31.0001H27ZM24 22.2971C24.0576 22.3742 24.1259 22.4426 24.203 22.5001C24.1259 22.5577 24.0576 22.626 24 22.7031C23.9424 22.626 23.8741 22.5577 23.797 22.5001C23.8741 22.4426 23.9424 22.3742 24 22.2971Z" fill="white"/>
<path fill-rule="evenodd" clip-rule="evenodd" d="M31.775 15.005C32.6452 15.0498 33.465 15.4271 34.0651 16.0588C34.6652 16.6906 34.9999 17.5286 35 18.4V26.6C35 27.5017 34.6418 28.3665 34.0042 29.0042C33.3665 29.6418 32.5017 30 31.6 30H16.4C15.4983 30 14.6335 29.6418 13.9958 29.0042C13.3582 28.3665 13 27.5017 13 26.6V18.4C13 17.4983 13.3582 16.6335 13.9958 15.9958C14.6335 15.3582 15.4983 15 16.4 15H31.6L31.775 15.005ZM24.922 20.095C24.69 19.165 23.402 19.136 23.104 20.008L23.079 20.095L22.782 21.282L21.595 21.579C20.635 21.819 20.635 23.182 21.595 23.422L22.782 23.719L23.079 24.906C23.319 25.865 24.682 25.866 24.922 24.906L25.219 23.719L26.406 23.422C27.366 23.182 27.365 21.819 26.406 21.579L25.219 21.282L24.922 20.095Z" fill="white"/>
</svg>
