<svg width="75" height="76" viewBox="0 0 75 76" fill="none" xmlns="http://www.w3.org/2000/svg">
<rect y="0.353027" width="75" height="75" rx="12" fill="#1E242E"/>
<g clip-path="url(#clip0_371_10498)">
<path d="M54.879 52.5402C54.8825 53.2081 54.744 53.8691 54.4726 54.4794C54.2013 55.0896 53.8034 55.6353 53.3052 56.0801C52.807 56.525 52.22 56.8589 51.583 57.0597C50.946 57.2605 50.2736 57.3236 49.6104 57.2449C47.1961 56.8876 45.4269 54.7868 45.4858 52.3469V24.296C45.4275 21.8536 47.201 19.7516 49.6184 19.3982C50.281 19.3206 50.9526 19.3846 51.5886 19.5859C52.2246 19.7872 52.8107 20.1213 53.308 20.566C53.8053 21.0107 54.2025 21.556 54.4733 22.1656C54.7441 22.7753 54.8824 23.4356 54.879 24.1027V52.5402Z" fill="#F9AB00"/>
<path d="M25.3216 47.892C27.9155 47.892 30.0182 49.9949 30.0182 52.5887C30.0182 55.1826 27.9155 57.2853 25.3216 57.2853C22.7277 57.2853 20.625 55.1826 20.625 52.5888C20.625 49.995 22.7277 47.892 25.3216 47.892ZM37.6794 33.6572C35.0733 33.8001 33.0511 35.9861 33.1117 38.5956V51.2112C33.1117 54.6349 34.6182 56.7134 36.8254 57.1564C37.5098 57.2952 38.2164 57.2798 38.894 57.1116C39.5716 56.9433 40.2033 56.6263 40.7433 56.1835C41.2832 55.7408 41.7178 55.1835 42.0155 54.5519C42.3133 53.9203 42.4667 53.2304 42.4647 52.5322V38.3781C42.4659 37.7524 42.3424 37.1327 42.1016 36.5552C41.8607 35.9777 41.5072 35.4539 41.0618 35.0145C40.6163 34.575 40.0878 34.2287 39.5071 33.9957C38.9263 33.7627 38.305 33.6475 37.6794 33.6572Z" fill="#E37400"/>
</g>
<defs>
<clipPath id="clip0_371_10498">
<rect width="34.2633" height="38" fill="white" transform="translate(20.6191 19.3662)"/>
</clipPath>
</defs>
</svg>
