<svg width="48" height="49" viewBox="0 0 48 49" fill="none" xmlns="http://www.w3.org/2000/svg">
<path d="M24 3.35303L28.7 6.95303L34.5 6.15303L36.7 11.653L42.2 13.853L41.4 19.653L45 24.353L41.4 29.053L42.2 34.853L36.7 37.053L34.5 42.553L28.7 41.753L24 45.353L19.3 41.753L13.5 42.553L11.3 37.053L5.8 34.853L6.6 29.053L3 24.353L6.6 19.653L5.8 13.853L11.3 11.653L13.5 6.15303L19.3 6.95303L24 3.35303Z" fill="#8BC34A"/>
<path d="M34.5996 14.9526L20.9996 28.5526L15.3996 22.9526L12.5996 25.7526L20.9996 34.1526L37.3996 17.7526L34.5996 14.9526Z" fill="#CCFF90"/>
</svg>
