<svg width="16" height="35" viewBox="0 0 16 35" fill="none" xmlns="http://www.w3.org/2000/svg">
<path d="M9 1.5C9 0.947715 8.55228 0.5 8 0.5C7.44772 0.5 7 0.947715 7 1.5H9ZM7.29289 34.2071C7.68342 34.5976 8.31658 34.5976 8.70711 34.2071L15.0711 27.8431C15.4616 27.4526 15.4616 26.8195 15.0711 26.4289C14.6805 26.0384 14.0474 26.0384 13.6569 26.4289L8 32.0858L2.34315 26.4289C1.95262 26.0384 1.31946 26.0384 0.928932 26.4289C0.538408 26.8195 0.538408 27.4526 0.928932 27.8431L7.29289 34.2071ZM8 1.5H7V33.5H8H9V1.5H8Z" fill="#757575"/>
</svg>
