<svg width="48" height="49" viewBox="0 0 48 49" fill="none" xmlns="http://www.w3.org/2000/svg">
<rect y="0.0185547" width="48" height="48" rx="12" fill="#1E242E"/>
<path d="M14.5 31.0186V19.0186H33.5V31.0186C33.5 32.1186 32.6 33.0186 31.5 33.0186H16.5C15.4 33.0186 14.5 32.1186 14.5 31.0186Z" fill="#CFD8DC"/>
<path d="M33.5 17.0186V20.0186H14.5V17.0186C14.5 15.9186 15.4 15.0186 16.5 15.0186H31.5C32.6 15.0186 33.5 15.9186 33.5 17.0186Z" fill="#F44336"/>
<path d="M28.5 18.5186C29.3284 18.5186 30 17.847 30 17.0186C30 16.1901 29.3284 15.5186 28.5 15.5186C27.6716 15.5186 27 16.1901 27 17.0186C27 17.847 27.6716 18.5186 28.5 18.5186Z" fill="#B71C1C"/>
<path d="M19.5 18.5186C20.3284 18.5186 21 17.847 21 17.0186C21 16.1901 20.3284 15.5186 19.5 15.5186C18.6716 15.5186 18 16.1901 18 17.0186C18 17.847 18.6716 18.5186 19.5 18.5186Z" fill="#B71C1C"/>
<path d="M28.5 13.5186C27.95 13.5186 27.5 13.9686 27.5 14.5186V17.0186C27.5 17.5686 27.95 18.0186 28.5 18.0186C29.05 18.0186 29.5 17.5686 29.5 17.0186V14.5186C29.5 13.9686 29.05 13.5186 28.5 13.5186ZM19.5 13.5186C18.95 13.5186 18.5 13.9686 18.5 14.5186V17.0186C18.5 17.5686 18.95 18.0186 19.5 18.0186C20.05 18.0186 20.5 17.5686 20.5 17.0186V14.5186C20.5 13.9686 20.05 13.5186 19.5 13.5186Z" fill="#B0BEC5"/>
<path d="M18.5 22.0186H20.5V24.0186H18.5V22.0186ZM21.5 22.0186H23.5V24.0186H21.5V22.0186ZM24.5 22.0186H26.5V24.0186H24.5V22.0186ZM27.5 22.0186H29.5V24.0186H27.5V22.0186ZM18.5 25.0186H20.5V27.0186H18.5V25.0186ZM21.5 25.0186H23.5V27.0186H21.5V25.0186ZM24.5 25.0186H26.5V27.0186H24.5V25.0186ZM27.5 25.0186H29.5V27.0186H27.5V25.0186ZM18.5 28.0186H20.5V30.0186H18.5V28.0186ZM21.5 28.0186H23.5V30.0186H21.5V28.0186ZM24.5 28.0186H26.5V30.0186H24.5V28.0186ZM27.5 28.0186H29.5V30.0186H27.5V28.0186Z" fill="#90A4AE"/>
</svg>
