<svg width="75" height="76" viewBox="0 0 75 76" fill="none" xmlns="http://www.w3.org/2000/svg">
<rect y="0.353027" width="75" height="75" rx="12" fill="#1E242E"/>
<path d="M22.166 33.6865H53.8327V49.5199H22.166V33.6865Z" fill="#CFD8DC"/>
<path d="M22.166 49.5195H53.8327V52.8529H22.166V49.5195Z" fill="#B0BEC5"/>
<path d="M40.5 37.853H50.5V52.853H40.5V37.853Z" fill="#455A64"/>
<path d="M25.5 37.853H37.1667V47.0197H25.5V37.853Z" fill="#E3F2FD"/>
<path d="M26.334 38.6865H36.334V46.1865H26.334V38.6865Z" fill="#1E88E5"/>
<path d="M48.4167 45.7695C48.1667 45.7695 48 45.9362 48 46.1862V47.8529C48 48.1029 48.1667 48.2695 48.4167 48.2695C48.6667 48.2695 48.8333 48.1029 48.8333 47.8529V46.1862C48.8333 45.9362 48.6667 45.7695 48.4167 45.7695Z" fill="#90A4AE"/>
<path d="M38 36.187C39.3807 36.187 40.5 35.0677 40.5 33.687C40.5 32.3063 39.3807 31.187 38 31.187C36.6193 31.187 35.5 32.3063 35.5 33.687C35.5 35.0677 36.6193 36.187 38 36.187Z" fill="#558B2F"/>
<path d="M48 36.187C49.3807 36.187 50.5 35.0677 50.5 33.687C50.5 32.3063 49.3807 31.187 48 31.187C46.6193 31.187 45.5 32.3063 45.5 33.687C45.5 35.0677 46.6193 36.187 48 36.187Z" fill="#558B2F"/>
<path d="M28 36.187C29.3807 36.187 30.5 35.0677 30.5 33.687C30.5 32.3063 29.3807 31.187 28 31.187C26.6193 31.187 25.5 32.3063 25.5 33.687C25.5 35.0677 26.6193 36.187 28 36.187Z" fill="#558B2F"/>
<path d="M51.3333 22.853H24.6667C23.75 22.853 23 23.603 23 24.5197V27.0197H53V24.5197C53 23.603 52.25 22.853 51.3333 22.853ZM35.5 27.0197H40.5V33.6864H35.5V27.0197ZM48.8333 27.0197H44.6667L45.5 33.6864H50.5L48.8333 27.0197ZM27.1667 27.0197H31.3333L30.5 33.6864H25.5L27.1667 27.0197Z" fill="#7CB342"/>
<path d="M43 36.187C44.3807 36.187 45.5 35.0677 45.5 33.687C45.5 32.3063 44.3807 31.187 43 31.187C41.6193 31.187 40.5 32.3063 40.5 33.687C40.5 35.0677 41.6193 36.187 43 36.187Z" fill="#FFA000"/>
<path d="M55.5 33.687C55.5 35.1037 54.4167 36.187 53 36.187C51.5833 36.187 50.5 35.1037 50.5 33.687C50.5 32.2703 51.5833 31.187 53 31.187L55.5 33.687Z" fill="#FFA000"/>
<path d="M33 36.187C34.3807 36.187 35.5 35.0677 35.5 33.687C35.5 32.3063 34.3807 31.187 33 31.187C31.6193 31.187 30.5 32.3063 30.5 33.687C30.5 35.0677 31.6193 36.187 33 36.187Z" fill="#FFA000"/>
<path d="M20.5 33.687C20.5 35.1037 21.5833 36.187 23 36.187C24.4167 36.187 25.5 35.1037 25.5 33.687C25.5 32.2703 24.4167 31.187 23 31.187L20.5 33.687Z" fill="#FFA000"/>
<path d="M44.6667 27.0195H40.5V33.6862H45.5L44.6667 27.0195ZM53 27.0195H48.8333L50.5 33.6862H55.5L53 27.0195ZM31.3333 27.0195H35.5V33.6862H30.5L31.3333 27.0195ZM23 27.0195H27.1667L25.5 33.6862H20.5L23 27.0195Z" fill="#FFC107"/>
</svg>
