<svg width="34" height="16" viewBox="0 0 34 16" fill="none" xmlns="http://www.w3.org/2000/svg">
<path d="M1.48633 6.90527C0.934043 6.90527 0.486328 7.35299 0.486328 7.90527C0.486328 8.45756 0.934043 8.90527 1.48633 8.90527V6.90527ZM33.5313 8.61238C33.9218 8.22186 33.9218 7.58869 33.5313 7.19817L27.1674 0.834206C26.7768 0.443681 26.1437 0.443681 25.7532 0.834206C25.3626 1.22473 25.3626 1.85789 25.7532 2.24842L31.41 7.90527L25.7532 13.5621C25.3626 13.9527 25.3626 14.5858 25.7532 14.9763C26.1437 15.3669 26.7768 15.3669 27.1674 14.9763L33.5313 8.61238ZM1.48633 7.90527V8.90527H32.8242V7.90527V6.90527H1.48633V7.90527Z" fill="#757575"/>
</svg>
