<svg width="75" height="76" viewBox="0 0 75 76" fill="none" xmlns="http://www.w3.org/2000/svg">
<rect y="0.5" width="75" height="75" rx="12" fill="#1E242E"/>
<path fill-rule="evenodd" clip-rule="evenodd" d="M18 22.5H57.9999V54.5H18V22.5ZM36 46.5H39.9999V48.5H36V46.5ZM45.9999 40.5H42V48.5H45.9999V40.5ZM48 36.5H51.9999V48.5H48V36.5ZM54 26.5H21.9999V30.5H54V26.5ZM36 41.5C36 45.366 32.8659 48.5 29 48.5C25.134 48.5 21.9999 45.366 21.9999 41.5C21.9999 37.634 25.134 34.5 29 34.5C32.8659 34.5 36 37.634 36 41.5ZM31.1818 37.0012C30.5018 36.6712 29.7558 36.4999 29 36.5V41.5L33.862 42.6663C34.1279 41.5579 34.007 40.392 33.5196 39.3617C33.0321 38.3314 32.2073 37.4986 31.1818 37.0012Z" fill="white"/>
</svg>
