<svg width="700" height="14" viewBox="0 0 700 14" fill="none" xmlns="http://www.w3.org/2000/svg">
<g clip-path="url(#clip0_371_7753)">
<g opacity="0.3" clip-path="url(#clip1_371_7753)">
<circle cx="2.25" cy="2.25" r="0.75" fill="#546881"/>
<circle cx="9.75" cy="2.25" r="0.75" fill="#546881"/>
<circle cx="17.25" cy="2.25" r="0.75" fill="#546881"/>
<circle cx="24.75" cy="2.25" r="0.75" fill="#546881"/>
<circle cx="32.25" cy="2.25" r="0.75" fill="#546881"/>
<circle cx="39.75" cy="2.25" r="0.75" fill="#546881"/>
<circle cx="47.25" cy="2.25" r="0.75" fill="#546881"/>
<circle cx="54.75" cy="2.25" r="0.75" fill="#546881"/>
<circle cx="62.25" cy="2.25" r="0.75" fill="#546881"/>
<circle cx="69.75" cy="2.25" r="0.75" fill="#546881"/>
<circle cx="77.25" cy="2.25" r="0.75" fill="#546881"/>
<circle cx="84.75" cy="2.25" r="0.75" fill="#546881"/>
<circle cx="92.25" cy="2.25" r="0.75" fill="#546881"/>
<circle cx="99.75" cy="2.25" r="0.75" fill="#546881"/>
<circle cx="107.25" cy="2.25" r="0.75" fill="#546881"/>
<circle cx="114.75" cy="2.25" r="0.75" fill="#546881"/>
<circle cx="122.25" cy="2.25" r="0.75" fill="#546881"/>
<circle cx="129.75" cy="2.25" r="0.75" fill="#546881"/>
<circle cx="137.25" cy="2.25" r="0.75" fill="#546881"/>
<circle cx="144.75" cy="2.25" r="0.75" fill="#546881"/>
<circle cx="152.25" cy="2.25" r="0.75" fill="#546881"/>
<circle cx="159.75" cy="2.25" r="0.75" fill="#546881"/>
<circle cx="167.25" cy="2.25" r="0.75" fill="#546881"/>
<circle cx="174.75" cy="2.25" r="0.75" fill="#546881"/>
<circle cx="182.25" cy="2.25" r="0.75" fill="#546881"/>
<circle cx="189.75" cy="2.25" r="0.75" fill="#546881"/>
<circle cx="197.25" cy="2.25" r="0.75" fill="#546881"/>
<circle cx="204.75" cy="2.25" r="0.75" fill="#546881"/>
<circle cx="212.25" cy="2.25" r="0.75" fill="#546881"/>
<circle cx="219.75" cy="2.25" r="0.75" fill="#546881"/>
<circle cx="227.25" cy="2.25" r="0.75" fill="#546881"/>
<circle cx="234.75" cy="2.25" r="0.75" fill="#546881"/>
<circle cx="242.25" cy="2.25" r="0.75" fill="#546881"/>
<circle cx="249.75" cy="2.25" r="0.75" fill="#546881"/>
<circle cx="257.25" cy="2.25" r="0.75" fill="#546881"/>
<circle cx="264.75" cy="2.25" r="0.75" fill="#546881"/>
<circle cx="272.25" cy="2.25" r="0.75" fill="#546881"/>
<circle cx="279.75" cy="2.25" r="0.75" fill="#546881"/>
<circle cx="287.25" cy="2.25" r="0.75" fill="#546881"/>
<circle cx="294.75" cy="2.25" r="0.75" fill="#546881"/>
<circle cx="302.25" cy="2.25" r="0.75" fill="#546881"/>
<circle cx="309.75" cy="2.25" r="0.75" fill="#546881"/>
<circle cx="317.25" cy="2.25" r="0.75" fill="#546881"/>
<circle cx="324.75" cy="2.25" r="0.75" fill="#546881"/>
<circle cx="332.25" cy="2.25" r="0.75" fill="#546881"/>
<circle cx="339.75" cy="2.25" r="0.75" fill="#546881"/>
<circle cx="347.25" cy="2.25" r="0.75" fill="#546881"/>
<circle cx="354.75" cy="2.25" r="0.75" fill="#546881"/>
<circle cx="362.25" cy="2.25" r="0.75" fill="#546881"/>
<circle cx="369.75" cy="2.25" r="0.75" fill="#546881"/>
<circle cx="377.25" cy="2.25" r="0.75" fill="#546881"/>
<circle cx="384.75" cy="2.25" r="0.75" fill="#546881"/>
<circle cx="392.25" cy="2.25" r="0.75" fill="#546881"/>
<circle cx="399.75" cy="2.25" r="0.75" fill="#546881"/>
<circle cx="407.25" cy="2.25" r="0.75" fill="#546881"/>
<circle cx="414.75" cy="2.25" r="0.75" fill="#546881"/>
<circle cx="422.25" cy="2.25" r="0.75" fill="#546881"/>
<circle cx="429.75" cy="2.25" r="0.75" fill="#546881"/>
<circle cx="437.25" cy="2.25" r="0.75" fill="#546881"/>
<circle cx="444.75" cy="2.25" r="0.75" fill="#546881"/>
<circle cx="452.25" cy="2.25" r="0.75" fill="#546881"/>
<circle cx="459.75" cy="2.25" r="0.75" fill="#546881"/>
<circle cx="467.25" cy="2.25" r="0.75" fill="#546881"/>
<circle cx="474.75" cy="2.25" r="0.75" fill="#546881"/>
<circle cx="482.25" cy="2.25" r="0.75" fill="#546881"/>
<circle cx="489.75" cy="2.25" r="0.75" fill="#546881"/>
<circle cx="497.25" cy="2.25" r="0.75" fill="#546881"/>
<circle cx="504.75" cy="2.25" r="0.75" fill="#546881"/>
<circle cx="512.25" cy="2.25" r="0.75" fill="#546881"/>
<circle cx="519.75" cy="2.25" r="0.75" fill="#546881"/>
<circle cx="527.25" cy="2.25" r="0.75" fill="#546881"/>
<circle cx="534.75" cy="2.25" r="0.75" fill="#546881"/>
<circle cx="542.25" cy="2.25" r="0.75" fill="#546881"/>
<circle cx="549.75" cy="2.25" r="0.75" fill="#546881"/>
<circle cx="557.25" cy="2.25" r="0.75" fill="#546881"/>
<circle cx="564.75" cy="2.25" r="0.75" fill="#546881"/>
<circle cx="572.25" cy="2.25" r="0.75" fill="#546881"/>
<circle cx="579.75" cy="2.25" r="0.75" fill="#546881"/>
<circle cx="587.25" cy="2.25" r="0.75" fill="#546881"/>
<circle cx="594.75" cy="2.25" r="0.75" fill="#546881"/>
<circle cx="602.25" cy="2.25" r="0.75" fill="#546881"/>
<circle cx="609.75" cy="2.25" r="0.75" fill="#546881"/>
<circle cx="617.25" cy="2.25" r="0.75" fill="#546881"/>
<circle cx="624.75" cy="2.25" r="0.75" fill="#546881"/>
<circle cx="632.25" cy="2.25" r="0.75" fill="#546881"/>
<circle cx="639.75" cy="2.25" r="0.75" fill="#546881"/>
<circle cx="647.25" cy="2.25" r="0.75" fill="#546881"/>
<circle cx="654.75" cy="2.25" r="0.75" fill="#546881"/>
<circle cx="662.25" cy="2.25" r="0.75" fill="#546881"/>
<circle cx="669.75" cy="2.25" r="0.75" fill="#546881"/>
<circle cx="677.25" cy="2.25" r="0.75" fill="#546881"/>
<circle cx="684.75" cy="2.25" r="0.75" fill="#546881"/>
<circle cx="692.25" cy="2.25" r="0.75" fill="#546881"/>
<circle cx="699.75" cy="2.25" r="0.75" fill="#546881"/>
<circle cx="6" cy="6.75" r="0.75" fill="#546881"/>
<circle cx="13.5" cy="6.75" r="0.75" fill="#546881"/>
<circle cx="21" cy="6.75" r="0.75" fill="#546881"/>
<circle cx="28.5" cy="6.75" r="0.75" fill="#546881"/>
<circle cx="36" cy="6.75" r="0.75" fill="#546881"/>
<circle cx="43.5" cy="6.75" r="0.75" fill="#546881"/>
<circle cx="51" cy="6.75" r="0.75" fill="#546881"/>
<circle cx="58.5" cy="6.75" r="0.75" fill="#546881"/>
<circle cx="66" cy="6.75" r="0.75" fill="#546881"/>
<circle cx="73.5" cy="6.75" r="0.75" fill="#546881"/>
<circle cx="81" cy="6.75" r="0.75" fill="#546881"/>
<circle cx="88.5" cy="6.75" r="0.75" fill="#546881"/>
<circle cx="96" cy="6.75" r="0.75" fill="#546881"/>
<circle cx="103.5" cy="6.75" r="0.75" fill="#546881"/>
<circle cx="111" cy="6.75" r="0.75" fill="#546881"/>
<circle cx="118.5" cy="6.75" r="0.75" fill="#546881"/>
<circle cx="126" cy="6.75" r="0.75" fill="#546881"/>
<circle cx="133.5" cy="6.75" r="0.75" fill="#546881"/>
<circle cx="141" cy="6.75" r="0.75" fill="#546881"/>
<circle cx="148.5" cy="6.75" r="0.75" fill="#546881"/>
<circle cx="156" cy="6.75" r="0.75" fill="#546881"/>
<circle cx="163.5" cy="6.75" r="0.75" fill="#546881"/>
<circle cx="171" cy="6.75" r="0.75" fill="#546881"/>
<circle cx="178.5" cy="6.75" r="0.75" fill="#546881"/>
<circle cx="186" cy="6.75" r="0.75" fill="#546881"/>
<circle cx="193.5" cy="6.75" r="0.75" fill="#546881"/>
<circle cx="201" cy="6.75" r="0.75" fill="#546881"/>
<circle cx="208.5" cy="6.75" r="0.75" fill="#546881"/>
<circle cx="216" cy="6.75" r="0.75" fill="#546881"/>
<circle cx="223.5" cy="6.75" r="0.75" fill="#546881"/>
<circle cx="231" cy="6.75" r="0.75" fill="#546881"/>
<circle cx="238.5" cy="6.75" r="0.75" fill="#546881"/>
<circle cx="246" cy="6.75" r="0.75" fill="#546881"/>
<circle cx="253.5" cy="6.75" r="0.75" fill="#546881"/>
<circle cx="261" cy="6.75" r="0.75" fill="#546881"/>
<circle cx="268.5" cy="6.75" r="0.75" fill="#546881"/>
<circle cx="276" cy="6.75" r="0.75" fill="#546881"/>
<circle cx="283.5" cy="6.75" r="0.75" fill="#546881"/>
<circle cx="291" cy="6.75" r="0.75" fill="#546881"/>
<circle cx="298.5" cy="6.75" r="0.75" fill="#546881"/>
<circle cx="306" cy="6.75" r="0.75" fill="#546881"/>
<circle cx="313.5" cy="6.75" r="0.75" fill="#546881"/>
<circle cx="321" cy="6.75" r="0.75" fill="#546881"/>
<circle cx="328.5" cy="6.75" r="0.75" fill="#546881"/>
<circle cx="336" cy="6.75" r="0.75" fill="#546881"/>
<circle cx="343.5" cy="6.75" r="0.75" fill="#546881"/>
<circle cx="351" cy="6.75" r="0.75" fill="#546881"/>
<circle cx="358.5" cy="6.75" r="0.75" fill="#546881"/>
<circle cx="366" cy="6.75" r="0.75" fill="#546881"/>
<circle cx="373.5" cy="6.75" r="0.75" fill="#546881"/>
<circle cx="381" cy="6.75" r="0.75" fill="#546881"/>
<circle cx="388.5" cy="6.75" r="0.75" fill="#546881"/>
<circle cx="396" cy="6.75" r="0.75" fill="#546881"/>
<circle cx="403.5" cy="6.75" r="0.75" fill="#546881"/>
<circle cx="411" cy="6.75" r="0.75" fill="#546881"/>
<circle cx="418.5" cy="6.75" r="0.75" fill="#546881"/>
<circle cx="426" cy="6.75" r="0.75" fill="#546881"/>
<circle cx="433.5" cy="6.75" r="0.75" fill="#546881"/>
<circle cx="441" cy="6.75" r="0.75" fill="#546881"/>
<circle cx="448.5" cy="6.75" r="0.75" fill="#546881"/>
<circle cx="456" cy="6.75" r="0.75" fill="#546881"/>
<circle cx="463.5" cy="6.75" r="0.75" fill="#546881"/>
<circle cx="471" cy="6.75" r="0.75" fill="#546881"/>
<circle cx="478.5" cy="6.75" r="0.75" fill="#546881"/>
<circle cx="486" cy="6.75" r="0.75" fill="#546881"/>
<circle cx="493.5" cy="6.75" r="0.75" fill="#546881"/>
<circle cx="501" cy="6.75" r="0.75" fill="#546881"/>
<circle cx="508.5" cy="6.75" r="0.75" fill="#546881"/>
<circle cx="516" cy="6.75" r="0.75" fill="#546881"/>
<circle cx="523.5" cy="6.75" r="0.75" fill="#546881"/>
<circle cx="531" cy="6.75" r="0.75" fill="#546881"/>
<circle cx="538.5" cy="6.75" r="0.75" fill="#546881"/>
<circle cx="546" cy="6.75" r="0.75" fill="#546881"/>
<circle cx="553.5" cy="6.75" r="0.75" fill="#546881"/>
<circle cx="561" cy="6.75" r="0.75" fill="#546881"/>
<circle cx="568.5" cy="6.75" r="0.75" fill="#546881"/>
<circle cx="576" cy="6.75" r="0.75" fill="#546881"/>
<circle cx="583.5" cy="6.75" r="0.75" fill="#546881"/>
<circle cx="591" cy="6.75" r="0.75" fill="#546881"/>
<circle cx="598.5" cy="6.75" r="0.75" fill="#546881"/>
<circle cx="606" cy="6.75" r="0.75" fill="#546881"/>
<circle cx="613.5" cy="6.75" r="0.75" fill="#546881"/>
<circle cx="621" cy="6.75" r="0.75" fill="#546881"/>
<circle cx="628.5" cy="6.75" r="0.75" fill="#546881"/>
<circle cx="636" cy="6.75" r="0.75" fill="#546881"/>
<circle cx="643.5" cy="6.75" r="0.75" fill="#546881"/>
<circle cx="651" cy="6.75" r="0.75" fill="#546881"/>
<circle cx="658.5" cy="6.75" r="0.75" fill="#546881"/>
<circle cx="666" cy="6.75" r="0.75" fill="#546881"/>
<circle cx="673.5" cy="6.75" r="0.75" fill="#546881"/>
<circle cx="681" cy="6.75" r="0.75" fill="#546881"/>
<circle cx="688.5" cy="6.75" r="0.75" fill="#546881"/>
<circle cx="696" cy="6.75" r="0.75" fill="#546881"/>
<circle cx="2.25" cy="11.25" r="0.75" fill="#546881"/>
<circle cx="9.75" cy="11.25" r="0.75" fill="#546881"/>
<circle cx="17.25" cy="11.25" r="0.75" fill="#546881"/>
<circle cx="24.75" cy="11.25" r="0.75" fill="#546881"/>
<circle cx="32.25" cy="11.25" r="0.75" fill="#546881"/>
<circle cx="39.75" cy="11.25" r="0.75" fill="#546881"/>
<circle cx="47.25" cy="11.25" r="0.75" fill="#546881"/>
<circle cx="54.75" cy="11.25" r="0.75" fill="#546881"/>
<circle cx="62.25" cy="11.25" r="0.75" fill="#546881"/>
<circle cx="69.75" cy="11.25" r="0.75" fill="#546881"/>
<circle cx="77.25" cy="11.25" r="0.75" fill="#546881"/>
<circle cx="84.75" cy="11.25" r="0.75" fill="#546881"/>
<circle cx="92.25" cy="11.25" r="0.75" fill="#546881"/>
<circle cx="99.75" cy="11.25" r="0.75" fill="#546881"/>
<circle cx="107.25" cy="11.25" r="0.75" fill="#546881"/>
<circle cx="114.75" cy="11.25" r="0.75" fill="#546881"/>
<circle cx="122.25" cy="11.25" r="0.75" fill="#546881"/>
<circle cx="129.75" cy="11.25" r="0.75" fill="#546881"/>
<circle cx="137.25" cy="11.25" r="0.75" fill="#546881"/>
<circle cx="144.75" cy="11.25" r="0.75" fill="#546881"/>
<circle cx="152.25" cy="11.25" r="0.75" fill="#546881"/>
<circle cx="159.75" cy="11.25" r="0.75" fill="#546881"/>
<circle cx="167.25" cy="11.25" r="0.75" fill="#546881"/>
<circle cx="174.75" cy="11.25" r="0.75" fill="#546881"/>
<circle cx="182.25" cy="11.25" r="0.75" fill="#546881"/>
<circle cx="189.75" cy="11.25" r="0.75" fill="#546881"/>
<circle cx="197.25" cy="11.25" r="0.75" fill="#546881"/>
<circle cx="204.75" cy="11.25" r="0.75" fill="#546881"/>
<circle cx="212.25" cy="11.25" r="0.75" fill="#546881"/>
<circle cx="219.75" cy="11.25" r="0.75" fill="#546881"/>
<circle cx="227.25" cy="11.25" r="0.75" fill="#546881"/>
<circle cx="234.75" cy="11.25" r="0.75" fill="#546881"/>
<circle cx="242.25" cy="11.25" r="0.75" fill="#546881"/>
<circle cx="249.75" cy="11.25" r="0.75" fill="#546881"/>
<circle cx="257.25" cy="11.25" r="0.75" fill="#546881"/>
<circle cx="264.75" cy="11.25" r="0.75" fill="#546881"/>
<circle cx="272.25" cy="11.25" r="0.75" fill="#546881"/>
<circle cx="279.75" cy="11.25" r="0.75" fill="#546881"/>
<circle cx="287.25" cy="11.25" r="0.75" fill="#546881"/>
<circle cx="294.75" cy="11.25" r="0.75" fill="#546881"/>
<circle cx="302.25" cy="11.25" r="0.75" fill="#546881"/>
<circle cx="309.75" cy="11.25" r="0.75" fill="#546881"/>
<circle cx="317.25" cy="11.25" r="0.75" fill="#546881"/>
<circle cx="324.75" cy="11.25" r="0.75" fill="#546881"/>
<circle cx="332.25" cy="11.25" r="0.75" fill="#546881"/>
<circle cx="339.75" cy="11.25" r="0.75" fill="#546881"/>
<circle cx="347.25" cy="11.25" r="0.75" fill="#546881"/>
<circle cx="354.75" cy="11.25" r="0.75" fill="#546881"/>
<circle cx="362.25" cy="11.25" r="0.75" fill="#546881"/>
<circle cx="369.75" cy="11.25" r="0.75" fill="#546881"/>
<circle cx="377.25" cy="11.25" r="0.75" fill="#546881"/>
<circle cx="384.75" cy="11.25" r="0.75" fill="#546881"/>
<circle cx="392.25" cy="11.25" r="0.75" fill="#546881"/>
<circle cx="399.75" cy="11.25" r="0.75" fill="#546881"/>
<circle cx="407.25" cy="11.25" r="0.75" fill="#546881"/>
<circle cx="414.75" cy="11.25" r="0.75" fill="#546881"/>
<circle cx="422.25" cy="11.25" r="0.75" fill="#546881"/>
<circle cx="429.75" cy="11.25" r="0.75" fill="#546881"/>
<circle cx="437.25" cy="11.25" r="0.75" fill="#546881"/>
<circle cx="444.75" cy="11.25" r="0.75" fill="#546881"/>
<circle cx="452.25" cy="11.25" r="0.75" fill="#546881"/>
<circle cx="459.75" cy="11.25" r="0.75" fill="#546881"/>
<circle cx="467.25" cy="11.25" r="0.75" fill="#546881"/>
<circle cx="474.75" cy="11.25" r="0.75" fill="#546881"/>
<circle cx="482.25" cy="11.25" r="0.75" fill="#546881"/>
<circle cx="489.75" cy="11.25" r="0.75" fill="#546881"/>
<circle cx="497.25" cy="11.25" r="0.75" fill="#546881"/>
<circle cx="504.75" cy="11.25" r="0.75" fill="#546881"/>
<circle cx="512.25" cy="11.25" r="0.75" fill="#546881"/>
<circle cx="519.75" cy="11.25" r="0.75" fill="#546881"/>
<circle cx="527.25" cy="11.25" r="0.75" fill="#546881"/>
<circle cx="534.75" cy="11.25" r="0.75" fill="#546881"/>
<circle cx="542.25" cy="11.25" r="0.75" fill="#546881"/>
<circle cx="549.75" cy="11.25" r="0.75" fill="#546881"/>
<circle cx="557.25" cy="11.25" r="0.75" fill="#546881"/>
<circle cx="564.75" cy="11.25" r="0.75" fill="#546881"/>
<circle cx="572.25" cy="11.25" r="0.75" fill="#546881"/>
<circle cx="579.75" cy="11.25" r="0.75" fill="#546881"/>
<circle cx="587.25" cy="11.25" r="0.75" fill="#546881"/>
<circle cx="594.75" cy="11.25" r="0.75" fill="#546881"/>
<circle cx="602.25" cy="11.25" r="0.75" fill="#546881"/>
<circle cx="609.75" cy="11.25" r="0.75" fill="#546881"/>
<circle cx="617.25" cy="11.25" r="0.75" fill="#546881"/>
<circle cx="624.75" cy="11.25" r="0.75" fill="#546881"/>
<circle cx="632.25" cy="11.25" r="0.75" fill="#546881"/>
<circle cx="639.75" cy="11.25" r="0.75" fill="#546881"/>
<circle cx="647.25" cy="11.25" r="0.75" fill="#546881"/>
<circle cx="654.75" cy="11.25" r="0.75" fill="#546881"/>
<circle cx="662.25" cy="11.25" r="0.75" fill="#546881"/>
<circle cx="669.75" cy="11.25" r="0.75" fill="#546881"/>
<circle cx="677.25" cy="11.25" r="0.75" fill="#546881"/>
<circle cx="684.75" cy="11.25" r="0.75" fill="#546881"/>
<circle cx="692.25" cy="11.25" r="0.75" fill="#546881"/>
<circle cx="699.75" cy="11.25" r="0.75" fill="#546881"/>
</g>
</g>
<defs>
<clipPath id="clip0_371_7753">
<rect width="700" height="13.5" fill="white"/>
</clipPath>
<clipPath id="clip1_371_7753">
<rect width="799.5" height="13.5" fill="white"/>
</clipPath>
</defs>
</svg>
