<svg width="75" height="76" viewBox="0 0 75 76" fill="none" xmlns="http://www.w3.org/2000/svg">
<rect y="0.853027" width="75" height="75" rx="12" fill="#1E242E"/>
<path d="M33 46.353C39.9036 46.353 45.5 40.7566 45.5 33.853C45.5 26.9495 39.9036 21.353 33 21.353C26.0964 21.353 20.5 26.9495 20.5 33.853C20.5 40.7566 26.0964 46.353 33 46.353Z" fill="#3F51B5"/>
<path d="M34.9173 32.1865V33.6032H31.7507V34.7699H34.9173V36.1865H31.7507C31.7507 36.6865 31.834 37.1865 32.0007 37.5199C32.1673 37.8532 32.334 38.1865 32.584 38.3532C32.834 38.6032 33.1673 38.6865 33.5007 38.8532C33.834 38.9365 34.2507 39.0199 34.6673 39.0199C35.0007 39.0199 35.2507 39.0199 35.584 38.9365C35.9173 38.8532 36.1673 38.8532 36.4173 38.6865L36.7507 40.9365C36.4173 41.0199 36.0007 41.1032 35.584 41.1032C35.1673 41.1865 34.7507 41.1865 34.334 41.1865C33.584 41.1865 32.834 41.1032 32.1673 40.8532C31.5007 40.6865 30.9173 40.3532 30.5007 39.9365C30.0007 39.5199 29.6673 39.0199 29.334 38.3532C29.084 37.7699 28.9173 37.0199 28.9173 36.1865H27.334V34.7699H28.9173V33.6032H27.334V32.1865H28.9173C29.0007 31.3532 29.1673 30.6865 29.4173 30.0199C29.7507 29.4365 30.084 28.8532 30.584 28.4365C31.084 28.0199 31.6673 27.6865 32.334 27.5199C33.0007 27.2699 33.7507 27.1865 34.5007 27.1865C34.834 27.1865 35.2507 27.1865 35.584 27.2699C35.9173 27.3532 36.334 27.3532 36.6673 27.5199L36.334 29.7699C36.084 29.6865 35.834 29.6032 35.5007 29.5199C35.1673 29.4365 34.9173 29.4365 34.584 29.4365C34.1673 29.4365 33.7507 29.5199 33.4173 29.6032C33.084 29.6865 32.7507 29.8532 32.584 30.1032C32.334 30.3532 32.1673 30.6032 32.0007 30.9365C31.834 31.2699 31.7507 31.6865 31.7507 32.1865H34.9173Z" fill="#FFF59D"/>
<path d="M43 56.353C49.9036 56.353 55.5 50.7566 55.5 43.853C55.5 36.9495 49.9036 31.353 43 31.353C36.0964 31.353 30.5 36.9495 30.5 43.853C30.5 50.7566 36.0964 56.353 43 56.353Z" fill="#4CAF50"/>
<path d="M41.666 41.3537C41.7493 41.5203 41.8327 41.687 41.9993 41.8537C42.166 42.0203 42.3327 42.187 42.5827 42.2703C42.8327 42.437 43.166 42.5203 43.4993 42.687C44.0827 42.937 44.666 43.187 45.166 43.437C45.666 43.687 46.0827 44.0203 46.416 44.3537C46.7493 44.687 47.0827 45.1037 47.2493 45.5203C47.416 45.937 47.5827 46.5203 47.5827 47.1037C47.5827 47.687 47.4993 48.187 47.3327 48.6037C47.166 49.0203 46.916 49.437 46.5827 49.7703C46.2493 50.1037 45.8327 50.3537 45.416 50.5203C44.916 50.687 44.416 50.8537 43.916 50.937V52.7703H42.416V50.937C41.916 50.8537 41.416 50.7703 40.916 50.6037C40.416 50.437 39.9993 50.187 39.666 49.7703C39.2493 49.437 38.9993 48.937 38.7493 48.437C38.4993 47.937 38.416 47.2703 38.416 46.5203H41.166C41.166 46.937 41.2493 47.3537 41.3327 47.6037C41.416 47.937 41.5827 48.1037 41.8327 48.3537C41.9993 48.5203 42.2493 48.687 42.4993 48.7703C42.7493 48.8537 42.9993 48.8537 43.2493 48.8537C43.5827 48.8537 43.8327 48.8537 43.9993 48.7703C44.2493 48.687 44.416 48.6037 44.5827 48.437C44.7493 48.2703 44.8327 48.1037 44.916 47.937C44.9993 47.7703 44.9994 47.5203 44.9994 47.2703C44.9994 47.0203 44.9993 46.7703 44.916 46.6037C44.8327 46.437 44.7493 46.187 44.5827 46.0203C44.416 45.8537 44.2493 45.687 43.9993 45.6037C43.7493 45.437 43.416 45.3537 43.0827 45.187C42.4993 44.937 41.916 44.687 41.416 44.437C40.916 44.187 40.4993 43.8537 40.166 43.5203C39.8327 43.187 39.4993 42.7703 39.3327 42.3537C39.166 41.937 38.9993 41.3537 38.9993 40.7703C38.9993 40.2703 39.0827 39.7703 39.2493 39.3537C39.416 38.937 39.666 38.5203 39.9993 38.187C40.3327 37.8537 40.7493 37.6037 41.166 37.3537C41.5827 37.187 42.166 37.0203 42.666 36.937V34.937H44.166V36.937C44.666 37.0203 45.166 37.187 45.666 37.437C46.0827 37.687 46.4993 37.937 46.7493 38.3537C47.0827 38.687 47.3327 39.187 47.4993 39.687C47.666 40.187 47.7493 40.7703 47.7493 41.3537H44.9994C44.9994 40.6037 44.8327 40.0203 44.4993 39.687C44.166 39.3537 43.7493 39.1037 43.2493 39.1037C42.9993 39.1037 42.7493 39.187 42.4993 39.2703C42.3327 39.3537 42.166 39.437 41.9993 39.6037C41.8327 39.7703 41.7493 39.937 41.7493 40.1037C41.666 40.2703 41.666 40.5203 41.666 40.7703C41.5827 40.937 41.666 41.187 41.666 41.3537Z" fill="white"/>
</svg>
