<svg width="75" height="76" viewBox="0 0 75 76" fill="none" xmlns="http://www.w3.org/2000/svg">
<rect y="0.353027" width="75" height="75" rx="12" fill="#1E242E"/>
<path d="M25.5 34.519H50.5V45.3524H25.5V34.519Z" fill="#37474F"/>
<path d="M38 50.3525C44.9036 50.3525 50.5 48.114 50.5 45.3525C50.5 42.5911 44.9036 40.3525 38 40.3525C31.0964 40.3525 25.5 42.5911 25.5 45.3525C25.5 48.114 31.0964 50.3525 38 50.3525Z" fill="#37474F"/>
<path d="M37.25 24.686L18.5 32.936C17.8333 33.2694 17.8333 34.186 18.5 34.5194L37.25 42.7694C37.75 42.936 38.25 42.936 38.75 42.7694L57.5 34.5194C58.1667 34.186 58.1667 33.2694 57.5 32.936L38.75 24.686C38.25 24.436 37.75 24.436 37.25 24.686Z" fill="#78909C"/>
<path d="M53.9998 34.8535L37.3332 32.0202C36.9165 31.9368 36.4165 32.2702 36.3332 32.6868C36.2498 33.1035 36.5832 33.6035 36.9998 33.6868L52.9998 36.3535V48.6868C52.9998 49.1868 53.3332 49.5202 53.8332 49.5202C54.3332 49.5202 54.6665 49.1868 54.6665 48.6868V35.6868C54.6665 35.2702 54.3332 34.9368 53.9998 34.8535Z" fill="#37474F"/>
<path d="M53.8327 50.3534C54.7532 50.3534 55.4993 49.6072 55.4993 48.6867C55.4993 47.7662 54.7532 47.02 53.8327 47.02C52.9122 47.02 52.166 47.7662 52.166 48.6867C52.166 49.6072 52.9122 50.3534 53.8327 50.3534Z" fill="#37474F"/>
<path d="M56.334 51.187C56.334 52.6037 53.834 56.187 53.834 56.187C53.834 56.187 51.334 52.6037 51.334 51.187C51.334 49.7703 52.4173 48.687 53.834 48.687C55.2507 48.687 56.334 49.7703 56.334 51.187Z" fill="#37474F"/>
</svg>
