<svg width="75" height="76" viewBox="0 0 75 76" fill="none" xmlns="http://www.w3.org/2000/svg">
<rect y="0.5" width="75" height="75" rx="12" fill="#1E242E"/>
<path d="M33.8049 40.3588L33.8467 40.4681C33.8597 40.5033 33.8793 40.5506 33.8961 40.6002L33.9568 40.7749C33.9805 40.8417 33.9998 40.9092 34.0252 40.9874C34.0493 41.0646 34.0778 41.1509 34.1002 41.2357L34.1783 41.5151C34.2041 41.6125 34.2257 41.7102 34.2518 41.8167C34.3635 42.2766 34.4428 42.7437 34.4892 43.2146C34.5158 43.4652 34.5271 43.7151 34.5327 43.9719C34.533 44.2237 34.527 44.4819 34.5034 44.7341C34.4803 44.9849 34.4422 45.2341 34.3893 45.4803C34.3364 45.722 34.2664 45.9597 34.1799 46.1915C34.0076 46.6511 33.7659 47.0759 33.452 47.4513C33.2967 47.6407 33.1152 47.8097 32.9353 47.9846C32.753 48.157 32.5663 48.3294 32.3715 48.4966C31.9776 48.8384 31.566 49.1593 31.1385 49.4581C30.7067 49.7617 30.2526 50.043 29.7868 50.3011C29.5534 50.4291 29.317 50.5513 29.0776 50.6676C28.839 50.7822 28.5976 50.8909 28.3537 50.9937C27.8672 51.1966 27.377 51.3728 26.891 51.5187C26.4218 51.6604 25.9459 51.7789 25.4651 51.8738C24.5455 52.0572 23.7014 52.1324 23.074 52.1484L22.8497 52.1523L22.6483 52.1521L22.3222 52.1434L22.1131 52.1312L22.0392 52.1248L22.0328 52.0509L22.0206 51.8419L22.0119 51.5157L22.0117 51.3143L22.0156 51.09C22.0317 50.4626 22.1068 49.6186 22.2902 48.6989C22.3851 48.2181 22.5036 47.7422 22.6452 47.273C22.7912 46.787 22.9673 46.2967 23.1703 45.8103C23.2731 45.5664 23.3818 45.325 23.4963 45.0864C23.6126 44.8479 23.7345 44.6107 23.8629 44.3772C24.121 43.9114 24.4022 43.4573 24.7058 43.0256C25.0046 42.598 25.3256 42.1864 25.6674 41.7925C25.8345 41.5977 26.0069 41.411 26.1793 41.2287C26.3543 41.0489 26.5232 40.8674 26.7127 40.7121C27.0882 40.3981 27.5128 40.1564 27.9725 39.9841C28.2043 39.8976 28.442 39.8276 28.6837 39.7747C28.9299 39.7218 29.1791 39.6837 29.4299 39.6606C29.6821 39.6371 29.9403 39.631 30.192 39.6314C30.4489 39.6369 30.6987 39.6482 30.9493 39.6749C31.4203 39.7212 31.8874 39.8005 32.3472 39.9122C32.4537 39.9382 32.5514 39.9599 32.6488 39.9857L32.9282 40.0638C33.0131 40.0862 33.0995 40.1147 33.1765 40.1389C33.2548 40.1641 33.3222 40.1835 33.389 40.2072L33.5637 40.2679C33.6134 40.2847 33.6607 40.3044 33.6959 40.3174C33.7677 40.3446 33.8049 40.3588 33.8049 40.3588Z" fill="#FFB636"/>
<path d="M25.8038 32.359L21.2716 36.8911C20.9584 37.2044 21.1803 37.74 21.6233 37.74H25.4323C25.5642 37.74 25.6907 37.7924 25.7839 37.8856L28.2572 40.3589L32.2741 32.2134H26.1554C26.0901 32.2134 26.0254 32.2262 25.9651 32.2512C25.9047 32.2762 25.8499 32.3128 25.8038 32.359ZM34.5101 45.5365L36.9833 48.0098C37.0765 48.103 37.1289 48.2295 37.1289 48.3614V52.1704C37.1289 52.6134 37.6646 52.8353 37.9778 52.5221L42.5099 47.9899C42.6032 47.8967 42.6556 47.7702 42.6556 47.6383V41.5196L34.5101 45.5365Z" fill="#FF473E"/>
<path d="M52.6025 22.1177L52.6073 22.1575C52.6103 22.1837 52.616 22.224 52.6201 22.2738C52.6283 22.3734 52.6469 22.5277 52.6557 22.7134C52.684 23.0955 52.703 23.6335 52.6896 24.2807C52.6767 24.9282 52.6311 25.6847 52.5322 26.5058C52.5101 26.7137 52.4785 26.9195 52.448 27.1333C52.4197 27.3494 52.3794 27.5605 52.3426 27.7817C52.267 28.2221 52.1726 28.6703 52.0636 29.1275C51.8367 30.0763 51.5485 31.0095 51.2008 31.921C50.8422 32.8598 50.4118 33.7976 49.9074 34.7085C49.4022 35.6187 48.8275 36.5065 48.1852 37.3504C47.5438 38.1951 46.8356 38.9967 46.0758 39.7465C45.316 40.4964 44.5055 41.1957 43.654 41.8303C43.4411 41.9889 43.2269 42.1448 43.0079 42.294C42.7913 42.4457 42.57 42.5907 42.3494 42.7343C41.9061 43.0194 41.4535 43.2862 40.9962 43.5366C40.0959 44.0291 39.1632 44.4598 38.2044 44.8257C37.2933 45.1725 36.3614 45.4618 35.4141 45.6918C34.958 45.8018 34.5121 45.8985 34.0725 45.9748L33.7488 46.0332C33.6415 46.0515 33.5327 46.0667 33.4271 46.0832L33.1136 46.131L32.8028 46.1706C31.9861 46.2739 31.2346 46.3245 30.5918 46.3422C29.9497 46.3606 29.4148 46.3447 29.0371 46.3208C28.8532 46.3138 28.7 46.2962 28.6016 46.2893C28.5523 46.2857 28.5122 46.2802 28.4863 46.2776L28.4469 46.2732C28.148 46.2399 27.9213 46.0027 27.8895 45.7158L27.8851 45.6764C27.8825 45.6505 27.877 45.6105 27.8734 45.5612C27.8665 45.4628 27.8488 45.3096 27.8419 45.1257C27.818 44.7479 27.8021 44.2131 27.8205 43.5709C27.8381 42.9281 27.8888 42.1767 27.9921 41.36L28.0316 41.0491L28.0795 40.7357C28.096 40.63 28.1112 40.5213 28.1295 40.414L28.1878 40.0903C28.2641 39.6506 28.3609 39.2048 28.4708 38.7486C28.7008 37.8013 28.99 36.8694 29.337 35.9583C29.7029 34.9996 30.1336 34.0668 30.6261 33.1665C30.8765 32.7093 31.1433 32.2566 31.4284 31.8133C31.572 31.5928 31.717 31.3715 31.8686 31.1548C32.0178 30.9358 32.1738 30.7217 32.3323 30.5087C32.967 29.6572 33.6662 28.8467 34.4161 28.087C35.166 27.3272 35.9676 26.619 36.8123 25.9775C37.6561 25.3353 38.544 24.7605 39.4541 24.2553C40.3651 23.7509 41.3029 23.3205 42.2416 22.9619C43.1532 22.6142 44.0863 22.326 45.0352 22.0991C45.4924 21.9902 45.9406 21.8958 46.381 21.8202C46.6022 21.7833 46.8133 21.743 47.0293 21.7147C47.2432 21.6842 47.449 21.6526 47.6569 21.6305C48.478 21.5317 49.2345 21.486 49.882 21.4731C50.5292 21.4598 51.0671 21.4787 51.4493 21.507C51.635 21.5158 51.7893 21.5345 51.8888 21.5426C51.9386 21.5467 51.979 21.5524 52.0052 21.5554L52.045 21.5602C52.3431 21.5962 52.5681 21.8323 52.6025 22.1177Z" fill="#ADBBBC"/>
<path d="M36.1922 37.9688L36.2287 38.0674C36.249 38.1287 36.2764 38.2169 36.2952 38.3151C36.34 38.5186 36.3548 38.7662 36.2739 38.9816C36.234 39.0898 36.1603 39.1801 36.0909 39.2892L35.86 39.6364L35.306 40.4684C35.0859 40.7944 34.864 41.1191 34.6402 41.4426C34.3908 41.8024 34.1384 42.1602 33.883 42.5158L33.4762 43.0758L33.0534 43.6436C32.7666 44.0233 32.4731 44.407 32.1747 44.7857C31.8791 45.163 31.5799 45.5374 31.2769 45.9088C30.9781 46.2766 30.6851 46.6396 30.3967 46.986L29.9737 47.498C29.8335 47.6634 29.7061 47.8348 29.5581 47.9778C29.411 48.1217 29.2414 48.2351 29.0464 48.3138C28.853 48.3943 28.6414 48.4471 28.4368 48.4965C28.0511 48.5879 27.6611 48.6605 27.2684 48.7141C27.0869 48.7389 26.9133 48.7584 26.7494 48.7731C26.5863 48.7886 26.4285 48.7948 26.2903 48.8048C26.151 48.8136 26.018 48.8128 25.9069 48.8168C25.794 48.819 25.6925 48.8153 25.613 48.8152C25.5318 48.8134 25.4669 48.8093 25.4245 48.8079L25.3579 48.8034L25.3534 48.7368C25.3519 48.6943 25.3479 48.6294 25.346 48.5483C25.3459 48.4688 25.3422 48.3673 25.3445 48.2544C25.3484 48.1432 25.3477 48.0103 25.3565 47.8709C25.3664 47.7327 25.3726 47.5749 25.3881 47.4119C25.4027 47.248 25.4222 47.0744 25.4471 46.8929C25.5007 46.5001 25.5733 46.1102 25.6647 45.7244C25.7141 45.5199 25.767 45.3083 25.8474 45.1149C25.9262 44.9198 26.0395 44.7502 26.1834 44.6031C26.3264 44.4552 26.4979 44.3278 26.6633 44.1876L27.1753 43.7646C27.5217 43.4762 27.8847 43.1831 28.2525 42.8844C28.6197 42.585 28.9958 42.284 29.3756 41.9866C29.7543 41.6881 30.138 41.3947 30.5177 41.1079L31.0855 40.6851L31.6455 40.2783C32.0011 40.0229 32.3589 39.7705 32.7187 39.5211C33.0625 39.2829 33.3899 39.0601 33.6929 38.8553L34.5249 38.3013L34.8721 38.0704C34.9812 38.001 35.0714 37.9273 35.1797 37.8874C35.3951 37.8065 35.6427 37.8213 35.8462 37.8661C35.9444 37.8849 36.0326 37.9123 36.0939 37.9326L36.1922 37.9688Z" fill="#FF473E"/>
<path d="M43.6306 33.9159C43.6306 35.7857 42.1148 37.3015 40.245 37.3015C38.3752 37.3015 36.8594 35.7857 36.8594 33.9159C36.8594 32.0461 38.3752 30.5303 40.245 30.5303C42.1148 30.5303 43.6306 32.0461 43.6306 33.9159ZM45.3324 26.6733C44.1422 26.6733 43.1773 27.6382 43.1773 28.8285C43.1773 30.0187 44.1422 30.9836 45.3324 30.9836C46.5227 30.9836 47.4876 30.0187 47.4876 28.8285C47.4876 27.6382 46.5227 26.6733 45.3324 26.6733Z" fill="#2B3B47"/>
</svg>
