<svg width="75" height="76" viewBox="0 0 75 76" fill="none" xmlns="http://www.w3.org/2000/svg">
<rect y="0.5" width="75" height="75" rx="12" fill="#1E242E"/>
<path d="M37.9984 53.5374C37.5984 53.5374 37.2169 53.4624 36.8539 53.3124C36.4909 53.1624 36.1599 52.9499 35.8609 52.6749L23.8234 40.6374C23.5484 40.3374 23.3359 40.0059 23.1859 39.6429C23.0359 39.2799 22.9609 38.8989 22.9609 38.4999C22.9609 38.1009 23.0359 37.7134 23.1859 37.3374C23.3359 36.9614 23.5484 36.6364 23.8234 36.3624L35.8609 24.3249C36.1609 24.0249 36.4924 23.8059 36.8554 23.6679C37.2184 23.5299 37.5994 23.4614 37.9984 23.4624C38.3974 23.4634 38.7849 23.5324 39.1609 23.6694C39.5369 23.8064 39.8619 24.0249 40.1359 24.3249L52.1734 36.3624C52.4734 36.6374 52.6924 36.9624 52.8304 37.3374C52.9684 37.7124 53.0369 38.0999 53.0359 38.4999C53.0349 38.8999 52.9664 39.2814 52.8304 39.6444C52.6944 40.0074 52.4754 40.3384 52.1734 40.6374L40.1359 52.6749C39.8609 52.9499 39.5359 53.1624 39.1609 53.3124C38.7859 53.4624 38.3984 53.5374 37.9984 53.5374ZM37.9984 39.9999C38.4234 39.9999 38.7799 39.8564 39.0679 39.5694C39.3559 39.2824 39.4994 38.9259 39.4984 38.4999V32.4999C39.4984 32.0749 39.3544 31.7189 39.0664 31.4319C38.7784 31.1449 38.4224 31.0009 37.9984 30.9999C37.5744 30.9989 37.2184 31.1429 36.9304 31.4319C36.6424 31.7209 36.4984 32.0769 36.4984 32.4999V38.4999C36.4984 38.9249 36.6424 39.2814 36.9304 39.5694C37.2184 39.8574 37.5744 40.0009 37.9984 39.9999ZM37.9984 44.4999C38.4234 44.4999 38.7799 44.3559 39.0679 44.0679C39.3559 43.7799 39.4994 43.4239 39.4984 42.9999C39.4974 42.5759 39.3534 42.2199 39.0664 41.9319C38.7794 41.6439 38.4234 41.4999 37.9984 41.4999C37.5734 41.4999 37.2174 41.6439 36.9304 41.9319C36.6434 42.2199 36.4994 42.5759 36.4984 42.9999C36.4974 43.4239 36.6414 43.7804 36.9304 44.0694C37.2194 44.3584 37.5754 44.5019 37.9984 44.4999Z" fill="white"/>
</svg>
