<svg width="75" height="76" viewBox="0 0 75 76" fill="none" xmlns="http://www.w3.org/2000/svg">
<rect y="0.5" width="75" height="75" rx="12" fill="#1E242E"/>
<path d="M39.3164 26.3867C39.3164 26.3867 39.3164 34.8715 40.4102 38.8172C40.9488 40.7613 41.6215 41.9863 43.2348 40.775L49.4938 40.7121C51.1043 41.9426 52.2582 40.7641 52.6055 38.7652C53.4258 34.0512 53.4258 26.3867 53.4258 26.3867H39.3164Z" fill="#6D4C41"/>
<path d="M44.9727 36.2165C44.9727 36.2165 40.5977 35.82 38 40.2962V45.1142L44.9727 36.2165Z" fill="#651FFF"/>
<path d="M55.5 53.145L38 53.1505V42.1719C38 38.8141 40.5102 36.777 43.7586 36.2165C45.8668 35.8528 47.9203 35.9868 49.7961 36.4298C52.8668 37.1598 55.5 39.063 55.5 42.1719V53.145Z" fill="#651FFF"/>
<path d="M20.5 53.145L38 53.1505V42.1719C38 38.8141 35.3695 36.777 32.1211 36.2165C30.0129 35.8528 28.0797 35.9868 26.2039 36.4298C23.1332 37.1598 20.5 39.0657 20.5 42.1719V53.145Z" fill="#00BFA5"/>
<path d="M31.0273 36.2165C31.0273 36.2165 35.4926 35.82 38 40.2962V45.1142L31.0273 36.2165Z" fill="#00BFA5"/>
<path d="M29.6484 38.2662C28.5902 38.2662 27.7344 37.4104 27.7344 36.3521V34.5967H31.5625V36.3521C31.5625 37.4104 30.7039 38.2662 29.6484 38.2662Z" fill="#E59900"/>
<path d="M35.4074 28.177C35.4074 28.177 36.4629 28.3602 36.4629 29.4977C36.4629 30.5012 35.6918 30.8977 34.9207 30.8977V28.177H35.4074ZM23.8875 28.177C23.8875 28.177 22.832 28.3602 22.832 29.4977C22.832 30.5012 23.6031 30.8977 24.3742 30.8977V28.177H23.8875Z" fill="#E59600"/>
<path d="M29.6484 20.7285C25.0957 20.7285 23.9062 24.2559 23.9062 29.2133C23.9062 34.3539 27.2094 35.6828 29.6484 35.6828C32.052 35.6828 35.3906 34.3922 35.3906 29.2133C35.3906 24.2586 34.1984 20.7285 29.6484 20.7285Z" fill="#FCC21B"/>
<path d="M27.7566 29.6765C27.7566 30.1878 27.4148 30.6034 26.991 30.6034C26.5672 30.6034 26.2227 30.1878 26.2227 29.6765C26.2227 29.1624 26.5672 28.7495 26.991 28.7495C27.4148 28.7468 27.7566 29.1624 27.7566 29.6765ZM31.5383 29.6765C31.5383 30.1878 31.8801 30.6034 32.3066 30.6034C32.7305 30.6034 33.075 30.1878 33.075 29.6765C33.075 29.1624 32.7305 28.7495 32.3066 28.7495C31.8801 28.7468 31.5383 29.1624 31.5383 29.6765Z" fill="#444444"/>
<path d="M31.3141 32.8066H27.9891C27.7977 32.8066 27.7156 32.9352 27.8414 33.1266C28.0192 33.3945 28.6727 33.9113 29.6488 33.9113C30.625 33.9113 31.2813 33.3945 31.4563 33.1266C31.5848 32.9352 31.5027 32.8066 31.3141 32.8066Z" fill="#513F35"/>
<path d="M30.4486 31.3924C30.1669 31.4717 29.8716 31.5127 29.6446 31.5127C29.4177 31.5127 29.1251 31.4744 28.8407 31.3924C28.7204 31.3568 28.6712 31.4717 28.715 31.5483C28.8052 31.7068 29.1661 32.024 29.6419 32.024C30.1177 32.024 30.4814 31.7068 30.5689 31.5483C30.6181 31.4717 30.5716 31.3568 30.4486 31.3924Z" fill="#E59600"/>
<path d="M29.784 20.0809C29.784 20.0809 29.6965 20.0781 29.6555 20.0781C29.6172 20.0781 29.527 20.0809 29.527 20.0809C24.6187 20.1766 23.1367 23.1324 23.1367 25.1805C23.1367 27.1711 23.1395 28.634 23.1395 28.634C23.1395 28.634 23.2188 28.552 23.3609 28.4398C23.5141 28.3195 23.6863 28.2539 23.6863 28.2539L23.9352 29.9164L25.573 26.4957C25.584 26.4738 25.6059 26.4629 25.6277 26.4656L26.5984 26.5723C27.5746 26.6816 28.5535 26.7336 29.5324 26.7363V26.7391H29.7895V26.7363C30.7684 26.7336 31.7473 26.6816 32.7234 26.5723L33.6941 26.4656C33.7188 26.4629 33.7406 26.4766 33.7488 26.4957L35.3867 29.9164L35.6355 28.2539C35.6355 28.2539 35.8051 28.3223 35.9609 28.4398C36.1059 28.552 36.1824 28.634 36.1824 28.634C36.1824 28.634 36.1852 27.1711 36.1852 25.1805C36.177 23.1324 34.6949 20.1766 29.784 20.0809Z" fill="#6D4C41"/>
<path d="M20.5 44.5559H22.7395V53.1446H20.5V44.5559ZM53.3508 44.5559H55.5383V53.1446H53.3508V44.5559Z" fill="#FCC21B"/>
<path d="M46.3867 38.2675C45.3285 38.2675 44.4727 37.4116 44.4727 36.3534V34.7183H48.3008V36.3534C48.3008 37.4116 47.4422 38.2675 46.3867 38.2675Z" fill="#E59900"/>
<path d="M46.3867 32.6859C50.2829 32.6859 53.4414 29.847 53.4414 26.3449C53.4414 22.8429 50.2829 20.0039 46.3867 20.0039C42.4905 20.0039 39.332 22.8429 39.332 26.3449C39.332 29.847 42.4905 32.6859 46.3867 32.6859Z" fill="#6D4C41"/>
<path d="M46.3895 21.5308C42.0527 21.5308 40.918 24.894 40.918 29.6163C40.918 34.3386 44.2813 35.7796 46.3895 35.7796C48.4977 35.7796 51.8609 34.3386 51.8609 29.6163C51.8609 24.894 50.7262 21.5308 46.3895 21.5308Z" fill="#FCC21B"/>
<path d="M44.5164 29.8094C44.5164 30.3152 44.1773 30.7254 43.7563 30.7254C43.3379 30.7254 42.9961 30.3152 42.9961 29.8094C42.9961 29.3008 43.3379 28.8906 43.7563 28.8906C44.1773 28.8906 44.5164 29.3035 44.5164 29.8094ZM48.2598 29.8094C48.2598 30.3152 48.5988 30.7254 49.0199 30.7254C49.4383 30.7254 49.7801 30.3152 49.7801 29.8094C49.7801 29.3008 49.4383 28.8906 49.0199 28.8906C48.5988 28.8906 48.2598 29.3035 48.2598 29.8094Z" fill="#444444"/>
<path d="M48.0406 25.2382C47.4637 25.7933 44.6008 28.3746 40.6523 29.0472V23.7535C40.6523 23.7535 42.3559 20.3738 46.4437 20.3738C50.5316 20.3738 52.2352 23.841 52.2352 23.841V29.0472C52.2352 29.0472 49.5555 28.0191 48.2102 25.271C48.2035 25.2553 48.1931 25.2415 48.1799 25.2307C48.1666 25.22 48.1509 25.2126 48.1342 25.2094C48.1174 25.2061 48.1001 25.2071 48.0838 25.2121C48.0675 25.2171 48.0526 25.2261 48.0406 25.2382Z" fill="#6D4C41"/>
<path d="M48.0325 32.9109H44.7403C44.5517 32.9109 44.4696 33.0367 44.5954 33.2281C44.7704 33.4933 45.4185 34.0046 46.3837 34.0046C47.3489 34.0046 47.9997 33.4933 48.172 33.2281C48.3032 33.0367 48.2212 32.9109 48.0325 32.9109Z" fill="#4C3734"/>
<path d="M47.1837 31.6146C46.9048 31.6939 46.6122 31.7321 46.388 31.7321C46.1638 31.7321 45.874 31.6939 45.5923 31.6146C45.472 31.5818 45.4255 31.6939 45.4693 31.7704C45.5568 31.9263 45.915 32.2407 46.388 32.2407C46.8611 32.2407 47.2165 31.9263 47.3068 31.7704C47.3505 31.6939 47.304 31.579 47.1837 31.6146Z" fill="#E48C15"/>
<path d="M43.8947 53.3056H32.1041C32.0193 53.3056 32.1041 51.3532 32.1041 51.3532C32.1041 48.6626 35.5303 47.7603 36.7197 47.7603H39.2818C40.4713 47.7603 43.8947 48.6626 43.8947 51.3532V51.4298C43.8947 51.5255 43.9795 53.3056 43.8947 53.3056Z" fill="#B2DFDB"/>
<path d="M37.9973 49.8005C37.6571 49.8005 37.331 49.6654 37.0905 49.4249C36.85 49.1844 36.7148 48.8582 36.7148 48.5181V47.5337H39.2824V48.5181C39.2824 49.2263 38.7082 49.8005 37.9973 49.8005Z" fill="#E59900"/>
<path d="M38 46.8183C41.126 46.8183 43.6602 44.4323 43.6602 41.489C43.6602 38.5457 41.126 36.1597 38 36.1597C34.874 36.1597 32.3398 38.5457 32.3398 41.489C32.3398 44.4323 34.874 46.8183 38 46.8183Z" fill="#6D4C41"/>
<path d="M42.6348 42.8059C42.6348 42.8059 43.4961 42.9563 43.4961 43.8833C43.4961 44.7036 42.8672 45.0262 42.2383 45.0262V42.8059H42.6348ZM33.3652 42.8059C33.3652 42.8059 32.5039 42.9563 32.5039 43.8833C32.5039 44.7036 33.1328 45.0262 33.7617 45.0262V42.8059H33.3652Z" fill="#E59600"/>
<path d="M41.2821 40.0203C40.4973 39.0441 39.1465 38.623 38.0008 38.623C36.8579 38.623 35.5044 39.0414 34.7196 40.0203C33.9512 40.9773 33.5493 42.2105 33.5547 43.8676C33.5602 45.2047 33.9047 46.2301 34.8727 47.0395C35.7696 47.7887 36.8086 48.1934 37.9325 48.1934C39.0372 48.1934 40.2567 47.8078 41.1208 47.0477C42.0696 46.2137 42.436 45.2047 42.4415 43.8703C42.4524 42.2105 42.0477 40.9773 41.2821 40.0203Z" fill="#FCC21B"/>
<path d="M38.6447 44.8701C38.415 44.9358 38.1798 44.9659 37.9966 44.9659C37.8134 44.9659 37.5755 44.933 37.3486 44.8701C37.2501 44.8428 37.2119 44.9358 37.2474 44.9959C37.3212 45.1244 37.6111 45.3815 37.9966 45.3815C38.3822 45.3815 38.6748 45.1244 38.7458 44.9959C38.7814 44.9358 38.7431 44.8428 38.6447 44.8701Z" fill="#E59600"/>
<path d="M39.3447 45.9265H36.6595C36.5064 45.9265 36.438 46.0304 36.5419 46.1863C36.6841 46.4023 37.2146 46.8207 38.0021 46.8207C38.7923 46.8207 39.32 46.4023 39.465 46.1863C39.5661 46.0304 39.5005 45.9265 39.3447 45.9265Z" fill="#513F35"/>
<path d="M36.2219 43.9052C36.2219 44.3017 35.9566 44.6216 35.6285 44.6216C35.3004 44.6216 35.0352 44.3017 35.0352 43.9052C35.0352 43.5087 35.3031 43.186 35.6285 43.186C35.9566 43.1888 36.2219 43.5087 36.2219 43.9052ZM40.966 43.9052C40.966 44.3017 40.7008 44.6216 40.3727 44.6216C40.0445 44.6216 39.7793 44.3017 39.7793 43.9052C39.7793 43.5087 40.0473 43.186 40.3727 43.186C40.7008 43.1888 40.966 43.5087 40.966 43.9052Z" fill="#444444"/>
<path d="M33.3133 43.5989C33.3133 43.5989 34.6039 42.2481 35.077 41.7942C35.107 41.7641 35.1562 41.7887 35.1508 41.8325C35.1316 42.0211 35.118 42.2262 35.1098 42.3493C35.107 42.4067 35.159 42.4532 35.2164 42.4422C36.1434 42.2672 37.0348 41.8817 37.2727 41.7723C37.3027 41.7586 37.3328 41.7833 37.3328 41.8133C37.3273 41.9856 37.3301 42.1497 37.3328 42.2481C37.3328 42.3028 37.382 42.3438 37.4367 42.3356C38.2871 42.2043 38.9953 41.8571 39.2305 41.7313C39.2852 41.7012 39.3453 41.6958 39.4055 41.7176C39.8457 41.8762 40.3816 42.1879 40.5758 42.3028C40.6195 42.3274 40.6742 42.3137 40.6988 42.27C40.7727 42.136 40.8766 41.9309 40.923 41.8325C40.9367 41.8051 40.9723 41.7997 40.9914 41.8188C41.6832 42.5024 42.6949 43.5961 42.6949 43.5961L43.4086 41.3047C43.4086 41.3047 42.252 37.2278 38.2352 37.2278C34.2184 37.2278 32.6953 41.5809 32.6953 41.5809L33.3133 43.5989Z" fill="#6D4C41"/>
</svg>
