<svg width="75" height="76" viewBox="0 0 75 76" fill="none" xmlns="http://www.w3.org/2000/svg">
<rect y="0.5" width="75" height="75" rx="12" fill="#1E242E"/>
<path d="M29.39 25.11C27.868 25.1105 26.4085 25.7155 25.3325 26.7919C24.2565 27.8683 23.652 29.328 23.652 30.85H16C15.9997 29.0914 16.3459 27.35 17.0187 25.7253C17.6915 24.1005 18.6777 22.6241 19.9211 21.3806C21.1645 20.137 22.6407 19.1505 24.2654 18.4775C25.8901 17.8044 27.6314 17.458 29.39 17.458V25.11Z" fill="#C9F7CA"/>
<path d="M51.3931 40.4139L46.4191 45.4059L42.4191 49.3859L38.9771 52.8459H38.9571L25.0131 38.8819C24.6569 38.5237 24.457 38.039 24.457 37.5339C24.457 37.0288 24.6569 36.5441 25.0131 36.1859L34.7491 26.4479C35.1074 26.0912 35.5924 25.8909 36.0981 25.8909C36.6037 25.8909 37.0887 26.0912 37.4471 26.4479L51.3931 40.4139Z" fill="#66E1FF"/>
<path d="M45.1928 46.6301L46.4228 45.4061L51.3888 40.4141L37.4428 26.4481C37.0846 26.092 36.6 25.8921 36.0948 25.8921C35.5897 25.8921 35.1051 26.092 34.7468 26.4481L29.8828 31.3201L45.1928 46.6301Z" fill="#C2F3FF"/>
<path d="M51.3931 40.4139L46.4191 45.4059L42.4191 49.3859L38.9771 52.8459H38.9571L25.0131 38.8819C24.6569 38.5237 24.457 38.039 24.457 37.5339C24.457 37.0288 24.6569 36.5441 25.0131 36.1859L34.7491 26.4479C35.1074 26.0912 35.5924 25.8909 36.0981 25.8909C36.6037 25.8909 37.0887 26.0912 37.4471 26.4479L51.3931 40.4139Z" stroke="#191919" stroke-width="2" stroke-linecap="round" stroke-linejoin="round"/>
<path d="M53.8806 45.5781L51.0106 48.4481L46.1506 53.3261L44.1426 55.3161C43.7842 55.6728 43.2992 55.8731 42.7936 55.8731C42.2879 55.8731 41.8029 55.6728 41.4446 55.3161L38.9766 52.8481L42.4206 49.3841L46.4186 45.4041L51.3926 40.4141L53.8786 42.8801C54.2348 43.2386 54.4348 43.7236 54.4348 44.2291C54.4348 44.7345 54.2348 45.2195 53.8786 45.5781" fill="white"/>
<path d="M53.8806 45.5781L51.0106 48.4481L46.1506 53.3261L44.1426 55.3161C43.7842 55.6728 43.2992 55.8731 42.7936 55.8731C42.2879 55.8731 41.8029 55.6728 41.4446 55.3161L38.9766 52.8481L42.4206 49.3841L46.4186 45.4041L51.3926 40.4141L53.8786 42.8801C54.2348 43.2386 54.4348 43.7236 54.4348 44.2291C54.4348 44.7345 54.2348 45.2195 53.8786 45.5781" stroke="#191919" stroke-width="2" stroke-linecap="round" stroke-linejoin="round"/>
<path d="M16 30.848C16.0005 27.2971 17.4115 23.8918 19.9225 21.3811C22.4336 18.8704 25.8391 17.46 29.39 17.46" stroke="#191919" stroke-width="2" stroke-linecap="round" stroke-linejoin="round"/>
<path d="M19.8281 30.8479C19.8276 29.5918 20.0746 28.3479 20.5551 27.1873C21.0355 26.0267 21.74 24.9722 22.6282 24.084C23.5164 23.1958 24.5709 22.4913 25.7315 22.0109C26.8921 21.5304 28.136 21.2834 29.3921 21.2839M23.6521 30.8479C23.6521 29.3256 24.2569 27.8656 25.3333 26.7891C26.4098 25.7127 27.8698 25.1079 29.3921 25.1079M36.8261 35.5539L34.9561 37.4239C34.7673 37.6121 34.6476 37.8587 34.6165 38.1235C34.5854 38.3883 34.6448 38.6558 34.7849 38.8826C34.9251 39.1094 35.1378 39.2822 35.3886 39.3728C35.6393 39.4635 35.9133 39.4667 36.1661 39.3819L38.8461 38.4899C39.0995 38.4029 39.375 38.4047 39.6272 38.495C39.8794 38.5853 40.0934 38.7587 40.234 38.9868C40.3746 39.2149 40.4333 39.484 40.4007 39.7499C40.368 40.0158 40.2458 40.2627 40.0541 40.4499L38.1781 42.3179M35.4761 36.9079L34.1221 35.5539M40.8861 42.3259L39.5321 40.9659" stroke="#191919" stroke-width="2" stroke-linecap="round" stroke-linejoin="round"/>
<path d="M59.999 59.5421L50.895 56.5221C49.3329 56.0082 47.9162 55.1285 46.763 53.9561L42.975 50.1681C42.4604 49.6453 42.1574 48.9507 42.1241 48.2179C42.0909 47.4851 42.3299 46.7659 42.7951 46.1987C43.2603 45.6315 43.9188 45.2563 44.6439 45.1455C45.369 45.0346 46.1096 45.1958 46.723 45.5981L51.009 48.4481L53.879 45.5781C54.2352 45.2195 54.4352 44.7346 54.4352 44.2291C54.4352 43.7236 54.2352 43.2387 53.879 42.8801L44.237 33.2401L44.773 32.7041C45.8589 31.612 47.3077 30.9562 48.8449 30.8611C50.3821 30.766 51.9007 31.2382 53.113 32.1881L60.001 37.5441" fill="#FFDDA1"/>
<path d="M59.999 59.5421L50.895 56.5221C49.3329 56.0082 47.9162 55.1285 46.763 53.9561L42.975 50.1681C42.4604 49.6453 42.1574 48.9507 42.1241 48.2179C42.0909 47.4851 42.3299 46.7659 42.7951 46.1987C43.2603 45.6315 43.9188 45.2563 44.6439 45.1455C45.369 45.0346 46.1096 45.1958 46.723 45.5981L51.009 48.4481L53.879 45.5781C54.2352 45.2195 54.4352 44.7346 54.4352 44.2291C54.4352 43.7236 54.2352 43.2387 53.879 42.8801L44.237 33.2401L44.773 32.7041C45.8589 31.612 47.3077 30.9562 48.8449 30.8611C50.3821 30.766 51.9007 31.2382 53.113 32.1881L60.001 37.5441M53.311 49.9781L51.015 48.4481" stroke="#191919" stroke-width="2" stroke-linecap="round" stroke-linejoin="round"/>
</svg>
