<svg width="75" height="76" viewBox="0 0 75 76" fill="none" xmlns="http://www.w3.org/2000/svg">
<rect y="0.353027" width="75" height="75" rx="12" fill="#1E242E"/>
<g clip-path="url(#clip0_371_10561)">
<path d="M54.2249 28.3405L50.6436 22.6718C50.3249 22.1655 49.7561 21.853 49.1499 21.853H26.8499C26.2436 21.853 25.6749 22.1655 25.3561 22.6718L21.7686 28.3405C19.9186 31.2655 21.5561 35.3343 25.0124 35.803C25.2624 35.8343 25.5186 35.853 25.7686 35.853C27.3999 35.853 28.8499 35.1405 29.8436 34.0405C30.8374 35.1405 32.2874 35.853 33.9186 35.853C35.5499 35.853 36.9999 35.1405 37.9936 34.0405C38.9874 35.1405 40.4374 35.853 42.0686 35.853C43.7061 35.853 45.1499 35.1405 46.1436 34.0405C47.1436 35.1405 48.5874 35.853 50.2186 35.853C50.4749 35.853 50.7249 35.8343 50.9749 35.803C54.4436 35.3405 56.0874 31.2718 54.2311 28.3405H54.2249Z" fill="#00C7BE"/>
<path d="M51.225 37.7844H51.2312C51.5 37.7531 51.75 37.7031 52 37.6406V49.8531C52 52.0594 50.2062 53.8531 48 53.8531H28C25.7937 53.8531 24 52.0594 24 49.8531V37.6406C24.2437 37.7031 24.4937 37.7469 24.75 37.7844H24.7562C25.0875 37.8281 25.4312 37.8531 25.775 37.8531C26.55 37.8531 27.3 37.7344 28 37.5156V45.8531H48V37.5219C48.6937 37.7344 49.4375 37.8531 50.2125 37.8531C50.5562 37.8531 50.8937 37.8281 51.225 37.7844Z" fill="#FFCC00"/>
</g>
<defs>
<clipPath id="clip0_371_10561">
<rect width="36" height="32" fill="white" transform="translate(20 21.853)"/>
</clipPath>
</defs>
</svg>
