<svg width="48" height="48" viewBox="0 0 48 48" fill="none" xmlns="http://www.w3.org/2000/svg">
<path d="M17.1085 9.23393C9.19597 8.25893 6.37447 12.2339 5.01547 14.0624C1.31197 19.5224 3.53797 25.5224 6.23347 28.4069C6.23347 28.4069 21.3745 43.1489 21.796 43.5464C22.2175 43.9439 23.215 45.3044 25.6165 44.9174C27.7135 44.5799 28.312 42.0464 28.312 42.0464C28.312 42.0464 29.86 43.3094 32.086 42.0464C33.82 41.0624 33.7495 39.0944 33.7495 39.0944C33.7495 39.0944 35.6065 40.0244 37.594 38.3444C39.382 36.8294 38.2735 34.1714 38.2735 34.1714C38.2735 34.1714 39.8785 34.4354 41.0155 33.1874C42.553 31.4999 42.0235 29.3669 41.0155 28.4069L29.437 15.7499L28.546 11.0624L17.1085 9.23393Z" fill="#FFC83D"/>
<path d="M40.0599 33.8894L36.7209 30.5039C36.6516 30.4338 36.5693 30.378 36.4785 30.3397C36.3877 30.3014 36.2902 30.2814 36.1916 30.2808C36.0931 30.2802 35.9954 30.2989 35.9041 30.3361C35.8128 30.3732 35.7298 30.428 35.6596 30.4972C35.5895 30.5664 35.5337 30.6488 35.4954 30.7396C35.4571 30.8304 35.4371 30.9279 35.4365 31.0264C35.4358 31.125 35.4546 31.2227 35.4918 31.314C35.5289 31.4052 35.5836 31.4883 35.6529 31.5584L38.2989 34.2404L38.2734 34.1714C38.2734 34.1714 39.1464 34.3154 40.0599 33.8894ZM35.9664 39.2249L32.5014 35.3804C32.3681 35.2327 32.1816 35.1439 31.9828 35.1336C31.7841 35.1233 31.5894 35.1924 31.4416 35.3257C31.2938 35.459 31.205 35.6455 31.1948 35.8442C31.1845 36.043 31.2536 36.2377 31.3869 36.3854L33.8769 39.1469C34.1754 39.2609 34.9719 39.4934 35.9664 39.2249ZM30.8634 42.5264L28.1544 39.6569C28.0867 39.5853 28.0056 39.5278 27.9157 39.4875C27.8258 39.4472 27.7288 39.4251 27.6303 39.4223C27.5319 39.4195 27.4338 39.4362 27.3418 39.4713C27.2497 39.5064 27.1655 39.5593 27.0939 39.6269C27.0223 39.6946 26.9647 39.7757 26.9244 39.8656C26.8842 39.9555 26.862 40.0525 26.8592 40.151C26.8565 40.2495 26.8731 40.3475 26.9082 40.4396C26.9433 40.5316 26.9962 40.6158 27.0639 40.6874L28.4199 42.1229C28.7184 42.3179 29.6124 42.7979 30.8634 42.5264ZM27.6039 43.5809C26.4654 43.8839 24.3534 43.9784 22.8984 42.4214L21.7344 43.4864L21.7959 43.5464C21.8399 43.5884 21.8899 43.6384 21.9459 43.6964C22.4379 44.2064 23.4609 45.2654 25.6164 44.9174C26.5494 44.7674 27.1854 44.1824 27.6039 43.5794" fill="#D67D00"/>
<path d="M9.56157 10.2194C7.03107 13.4684 3.13107 21.8819 10.0311 27.6569L7.85907 29.9894L6.23307 28.4069C3.53907 25.5239 1.31157 19.5239 5.01507 14.0624L5.07507 13.9799C5.86257 12.9209 7.12407 11.2214 9.50007 10.1294L9.56157 10.2194Z" fill="#F59F00"/>
<path d="M25.8754 35.5319C27.6799 37.6169 25.4254 40.2749 24.3754 41.3909L8.50391 24.8759C11.4649 21.8729 13.4209 21.5714 14.7439 22.8749C16.0639 24.1784 15.4459 25.1009 15.4459 25.1009C15.4459 25.1009 17.2369 24.0839 19.1254 25.9454C21.0154 27.8069 19.7104 29.2259 19.7104 29.2259C19.7104 29.2259 21.6604 28.8749 23.0404 30.4214C24.5854 32.1569 23.6014 34.1714 23.6014 34.1714C23.6014 34.1714 24.7864 34.2734 25.8754 35.5319Z" fill="#D67D00"/>
<path d="M18.6563 11.9999C23.5073 10.0544 30.8663 9.07043 34.2413 9.02393C36.5378 9.02393 39.4628 9.57893 42.5618 13.2194C47.5118 19.0304 43.8038 25.6634 40.8743 28.3589V26.2499C40.8743 26.2499 29.6153 16.4459 29.2493 16.1009C28.5743 15.4634 25.7963 15.6569 25.4993 15.7499C24.5933 16.0319 23.0243 16.4999 20.9993 17.2499C19.3523 17.8604 18.0458 17.3669 17.5073 16.1009C16.9673 14.8364 16.2458 12.9659 18.6563 11.9999Z" fill="#FFC83D"/>
<path d="M42.4644 26.565C41.9927 27.2122 41.4602 27.8129 40.8744 28.359C36.7344 24.75 28.3074 17.3715 27.6324 16.734C26.9574 16.0965 26.1714 16.125 25.8744 16.218C24.1108 16.771 22.3603 17.3651 20.6244 18C18.9774 18.6105 17.3199 17.367 16.7814 16.101C16.2864 14.9445 16.2474 13.2825 18.0864 12.267L19.0344 11.8515L19.1094 11.823C16.1799 14.025 18.7674 16.716 21.1869 16.407C22.0374 16.2975 23.4369 16.008 24.7959 15.657C25.3359 15.516 25.8654 15.2685 26.3649 15.036C27.3024 14.5965 28.1349 14.208 28.7349 14.6715C30.9849 16.419 37.6989 22.1235 42.4659 26.565" fill="#D67D00"/>
<path d="M13.2287 25.3185C12.9636 24.9749 12.6334 24.687 12.257 24.4711C11.8806 24.2551 11.4653 24.1155 11.0349 24.06C10.6045 24.0046 10.1674 24.0345 9.74853 24.148C9.32968 24.2615 8.93728 24.4563 8.59375 24.7215L5.71675 27.15C4.39225 28.2525 4.04875 30.315 5.01625 31.653C5.89225 32.865 7.23625 33.366 8.47075 33.015C7.92325 34.2675 7.96975 35.8695 9.02125 36.75C10.0037 37.5705 11.2172 38.133 12.4337 37.7535C12.3167 38.556 12.5537 39.435 13.3787 40.311C14.1587 41.1375 15.2927 41.55 16.5092 41.2755C16.3487 42.1335 16.6202 43.0875 17.6237 44.055C18.8522 45.24 20.7437 45.342 22.5212 43.71L23.6792 42.36C24.6092 41.19 25.8962 39.156 23.9732 37.428C23.3087 36.831 22.5452 36.4995 21.7517 36.498C22.1822 35.448 22.1747 34.161 20.9267 32.928C20.1467 32.1585 19.1912 31.824 18.1367 32.076C18.7067 30.864 18.6932 29.6265 17.5517 28.4985C16.5152 27.474 15.2372 26.988 13.5872 27.9135C13.8782 27.0195 13.8092 26.0715 13.2272 25.317" fill="#FFC83D"/>
<path d="M13.5508 25.863L6.46484 32.8605C7.09184 33.1395 7.77434 33.204 8.42984 33.0285L13.6333 27.8895L13.5898 27.9135C13.8148 27.225 13.8238 26.5035 13.5508 25.863ZM18.3688 29.739L10.4398 37.6275C11.0773 37.884 11.7568 37.9665 12.4378 37.755L18.1483 32.076L18.1408 32.0775C18.5083 31.2975 18.6313 30.5055 18.3688 29.739ZM21.8593 34.3455L14.4823 41.0925C15.0883 41.358 15.7798 41.439 16.4998 41.28L21.7693 36.4605C22.0243 35.82 22.1143 35.0925 21.8593 34.3455Z" fill="#D67D00"/>
</svg>
