<svg width="40" height="41" viewBox="0 0 40 41" fill="none" xmlns="http://www.w3.org/2000/svg">
<rect y="0.0185547" width="40" height="40" rx="10" fill="white"/>
<g clip-path="url(#clip0_371_7154)">
<g clip-path="url(#clip1_371_7154)">
<g clip-path="url(#clip2_371_7154)">
<mask id="mask0_371_7154" style="mask-type:luminance" maskUnits="userSpaceOnUse" x="8" y="8" width="24" height="25">
<path d="M8 8.01855H32V32.0186H8V8.01855Z" fill="white"/>
</mask>
<g mask="url(#mask0_371_7154)">
<path d="M12.25 8.31836H27.75C30.1 8.31836 32 10.2184 32 12.5684V27.4684C32 29.8184 30.1 31.7184 27.75 31.7184H12.25C9.9 31.7184 8 29.8184 8 27.4684V12.5684C8 10.2184 9.9 8.31836 12.25 8.31836Z" fill="#390000"/>
<path d="M19.6299 22.3581H15.9099L15.1499 24.7081C15.1299 24.7981 15.0499 24.8581 14.9599 24.8481H13.0799C12.9699 24.8481 12.9399 24.7881 12.9699 24.6681L16.1899 15.3981C16.2199 15.2981 16.2499 15.1881 16.2899 15.0681C16.3299 14.8581 16.3499 14.6381 16.3499 14.4181C16.3399 14.3681 16.3799 14.3181 16.4299 14.3081H19.0199C19.0999 14.3081 19.1399 14.3381 19.1499 14.3881L22.7999 24.6881C22.8299 24.7981 22.7999 24.8481 22.6999 24.8481H20.6099C20.5399 24.8581 20.4699 24.8081 20.4499 24.7381L19.6299 22.3581ZM16.4899 20.3281H19.0299L17.7499 16.1581L16.4899 20.3281Z" fill="#FF9A00"/>
<path d="M24.9807 16.0183C24.6507 16.0283 24.3307 15.8983 24.0907 15.6683C23.8616 15.4178 23.7396 15.0876 23.7507 14.7483C23.7407 14.4083 23.8707 14.0883 24.1107 13.8583C24.3507 13.6283 24.6707 13.5083 25.0007 13.5083C25.3907 13.5083 25.6907 13.6283 25.9107 13.8583C26.1307 14.0983 26.2507 14.4183 26.2407 14.7483C26.2507 15.0883 26.1307 15.4183 25.8907 15.6683C25.6607 15.9083 25.3207 16.0383 24.9807 16.0183Z" fill="#FF9A00"/>
<path d="M23.8594 24.6984V16.9984C23.8594 16.8984 23.8994 16.8584 23.9894 16.8584H25.9694C26.0594 16.8584 26.0994 16.9084 26.0994 16.9984V24.6984C26.0994 24.8084 26.0594 24.8584 25.9694 24.8584H24.0094C23.9094 24.8584 23.8594 24.7984 23.8594 24.6984Z" fill="#FF9A00"/>
</g>
</g>
</g>
</g>
<defs>
<clipPath id="clip0_371_7154">
<rect width="24" height="24" fill="white" transform="translate(8 8.01855)"/>
</clipPath>
<clipPath id="clip1_371_7154">
<rect width="24" height="24" fill="white" transform="translate(8 8.01855)"/>
</clipPath>
<clipPath id="clip2_371_7154">
<rect width="24" height="24" fill="white" transform="translate(8 8.01855)"/>
</clipPath>
</defs>
</svg>
