<svg width="75" height="75" viewBox="0 0 75 75" fill="none" xmlns="http://www.w3.org/2000/svg">
<rect width="75" height="75" rx="12" fill="#1E242E"/>
<path d="M23.652 32.2598H52.348C53.353 32.2598 54.3482 32.4578 55.2768 32.8424C56.2053 33.2271 57.0489 33.7909 57.7595 34.5017C58.4701 35.2125 59.0337 36.0562 59.4181 36.9849C59.8025 37.9135 60.0003 38.9087 60 39.9138V49.4778C60 49.9854 59.7983 50.4722 59.4394 50.8312C59.0805 51.1901 58.5936 51.3918 58.086 51.3918H17.914C17.6626 51.392 17.4136 51.3427 17.1812 51.2466C16.9489 51.1505 16.7378 51.0095 16.56 50.8318C16.3822 50.654 16.2413 50.4429 16.1452 50.2105C16.0491 49.9782 15.9997 49.7292 16 49.4778V39.9118C16 37.8823 16.8062 35.936 18.2412 34.501C19.6762 33.066 21.6226 32.2598 23.652 32.2598Z" fill="#FF808C"/>
<path d="M59.7583 37.9998C59.3342 36.3565 58.376 34.9009 57.0342 33.8618C55.6925 32.8227 54.0433 32.2592 52.3463 32.2598H23.6523C21.9549 32.2587 20.3053 32.8221 18.9631 33.8612C17.621 34.9003 16.6624 36.3562 16.2383 37.9998H59.7583Z" fill="#FFBFC5"/>
<path d="M19.8297 41.826H25.5697L24.6117 38H16.2457C16.1165 38.511 16.0381 39.0336 16.0117 39.56C16.3819 40.2496 16.9333 40.8251 17.6065 41.2244C18.2797 41.6237 19.047 41.8317 19.8297 41.826ZM51.3937 38L50.4377 41.826H56.1777C56.961 41.8299 57.7307 41.6207 58.4042 41.2208C59.0778 40.821 59.63 40.2455 60.0017 39.556C59.9731 39.0307 59.8927 38.5095 59.7617 38H51.3937Z" fill="#FFEF5E"/>
<path d="M22.6953 32.2597L24.0753 23.9797C24.2236 23.0843 24.6858 22.271 25.3791 21.6853C26.0725 21.0997 26.9517 20.7801 27.8593 20.7837H48.1513C49.0571 20.783 49.9337 21.1042 50.6246 21.69C51.3155 22.2758 51.7758 23.088 51.9233 23.9817L53.3033 32.2617L22.6953 32.2597Z" fill="#66E1FF"/>
<path d="M44.6953 20.7817H27.8593C26.9522 20.7797 26.0739 21.1005 25.3817 21.6868C24.6895 22.2731 24.2285 23.0866 24.0813 23.9817L22.6953 32.2617H33.2153L44.6953 20.7817Z" fill="#C2F3FF"/>
<path d="M22.696 32.2598L24.076 23.9798C24.2231 23.0857 24.6832 22.273 25.3741 21.6868C26.0651 21.1006 26.9419 20.7792 27.848 20.7798H48.148C49.0542 20.7786 49.9312 21.0996 50.6226 21.6854C51.3139 22.2712 51.7745 23.0837 51.922 23.9778L53.302 32.2578M23.652 32.2598H52.348C53.353 32.2598 54.3482 32.4578 55.2768 32.8425C56.2053 33.2271 57.0489 33.7909 57.7595 34.5017C58.4701 35.2125 59.0337 36.0563 59.4181 36.9849C59.8025 37.9135 60.0003 38.9087 60 39.9138V49.4778C60 49.9854 59.7983 50.4722 59.4394 50.8312C59.0805 51.1901 58.5936 51.3918 58.086 51.3918H17.914C17.6626 51.392 17.4136 51.3427 17.1812 51.2466C16.9489 51.1505 16.7378 51.0096 16.56 50.8318C16.3822 50.654 16.2413 50.4429 16.1452 50.2106C16.0491 49.9782 15.9997 49.7292 16 49.4778V39.9118C16 37.8824 16.8062 35.936 18.2412 34.501C19.6762 33.066 21.6226 32.2598 23.652 32.2598Z" stroke="#191919" stroke-width="2" stroke-linecap="round" stroke-linejoin="round"/>
<path d="M53.304 32.2596L56.174 28.4336H59.044C59.2976 28.4346 59.5404 28.536 59.7195 28.7155C59.8986 28.895 59.9995 29.138 60 29.3916V31.3036C59.9989 31.5568 59.8979 31.7994 59.7188 31.9784C59.5398 32.1575 59.2972 32.2585 59.044 32.2596H53.304ZM22.696 32.2596L19.826 28.4336H16.956C16.7024 28.4346 16.4596 28.536 16.2805 28.7155C16.1014 28.895 16.0005 29.138 16 29.3916V31.3036C16.0011 31.5568 16.1021 31.7994 16.2812 31.9784C16.4602 32.1575 16.7028 32.2585 16.956 32.2596H22.696Z" fill="#FF808C" stroke="#191919" stroke-width="2" stroke-linecap="round" stroke-linejoin="round"/>
<path d="M25.5622 51.3916V53.3036C25.5624 53.5549 25.5132 53.8037 25.4172 54.0359C25.3212 54.2681 25.1804 54.4791 25.0029 54.6569C24.8253 54.8346 24.6144 54.9757 24.3823 55.0719C24.1502 55.1681 23.9014 55.2176 23.6502 55.2176H19.8242C19.3165 55.2176 18.8297 55.0159 18.4708 54.657C18.1118 54.2981 17.9102 53.8112 17.9102 53.3036V51.3916H25.5622ZM58.0862 51.3916V53.3036C58.0864 53.555 58.0371 53.804 57.941 54.0364C57.8449 54.2687 57.7039 54.4798 57.5261 54.6576C57.3484 54.8354 57.1373 54.9764 56.9049 55.0724C56.6726 55.1685 56.4236 55.2179 56.1722 55.2176H52.3462C51.8389 55.2171 51.3526 55.0152 50.994 54.6563C50.6355 54.2974 50.4342 53.8109 50.4342 53.3036V51.3916H58.0862Z" fill="#808080" stroke="#191919" stroke-width="2" stroke-linecap="round" stroke-linejoin="round"/>
<path d="M59.76 38H51.392L50.436 41.826H56.176C56.9589 41.8303 57.7283 41.6217 58.4018 41.2226C59.0753 40.8234 59.6278 40.2488 60 39.56M16.24 38H24.608L25.566 41.826H19.826C19.0423 41.8328 18.2717 41.6253 17.5974 41.226C16.923 40.8266 16.3707 40.2505 16 39.56" stroke="#191919" stroke-width="2" stroke-linecap="round" stroke-linejoin="round"/>
<path d="M50.4354 41.826L46.5294 43.386C45.9365 43.6002 45.3135 43.7197 44.6834 43.74H30.3474C29.7204 43.7166 29.1041 43.5705 28.5334 43.31L25.5654 41.826L24.6094 38H51.3914L50.4354 41.826Z" fill="#808080" stroke="#191919" stroke-width="2" stroke-linecap="round" stroke-linejoin="round"/>
<path d="M24.6094 51.3919L26.5214 47.5659H49.4794L51.3914 51.3919H24.6094Z" fill="#B2B2B2" stroke="#191919" stroke-width="2" stroke-linecap="round" stroke-linejoin="round"/>
<path d="M49.4782 47.5659H56.1722M19.8242 47.5659H26.5202" stroke="#191919" stroke-width="2" stroke-linecap="round" stroke-linejoin="round"/>
</svg>
