<svg width="175" height="64" viewBox="0 0 175 64" fill="none" xmlns="http://www.w3.org/2000/svg">
<g clip-path="url(#clip0_971_27973)">
<path d="M0.334327 47.5835C3.25659 53.7651 9.26731 58.0664 15.704 60.0668C20.9962 61.7421 26.6382 62.0462 32.1527 61.6711C45.3257 60.8427 56.968 55.162 68.4031 49.0374C75.0165 45.5481 81.9319 41.8527 88.921 39.1125C100.542 34.45 112.974 32.3646 125.48 33.5262C143.675 34.9522 161.189 44.0604 169.614 60.6889C170.061 61.5988 170.478 62.5145 170.81 63.4769C170.845 63.5666 170.798 63.6679 170.707 63.6982C170.624 63.7262 170.533 63.6854 170.497 63.6073C170.096 62.7138 169.613 61.8377 169.109 60.9837C167.585 58.4229 165.775 56.0335 163.773 53.8234C145.92 34.0924 115.224 32.4636 91.5682 41.7035C70.938 49.564 53.1294 64.3728 29.9771 63.9906C18.5303 64.1083 5.94128 59.9247 0.594136 49.0864C0.377629 48.6297 0.176335 48.173 0.0124919 47.6825C-0.0167659 47.5939 0.0312168 47.4984 0.11899 47.4693C0.212615 47.4378 0.30624 47.4926 0.335497 47.5823L0.334327 47.5835Z" fill="white"/>
<path d="M5.85156 43.1051C6.11371 43.6049 6.41565 44.0814 6.72695 44.5497C7.03943 45.0169 7.36828 45.4725 7.71353 45.914C8.06228 46.3532 8.41571 46.7866 8.79255 47.2002C8.97629 47.4111 9.17173 47.6115 9.36015 47.8165C9.55091 48.0192 9.75104 48.2149 9.94531 48.4142L10.1899 48.6646L9.65156 49.1575L9.42803 48.8872C9.06406 48.4456 8.70361 48.0017 8.37124 47.5369C8.03185 47.0779 7.71938 46.6014 7.41393 46.1214C7.11199 45.6391 6.82877 45.1462 6.56428 44.6453C6.30096 44.1431 6.05637 43.6317 5.85156 43.1063V43.1051Z" fill="white"/>
<path d="M16.9849 53.2281C17.9867 53.672 19.0154 54.0483 20.064 54.3489C20.5883 54.4992 21.1173 54.632 21.6498 54.7462C22.1823 54.8603 22.7183 54.9547 23.2543 55.0444L24.2549 55.2122L23.8687 57.2393L22.8751 57.0308C22.3005 56.9096 21.7317 56.757 21.1688 56.5881C20.6059 56.4192 20.05 56.2316 19.5011 56.0254C18.4034 55.6118 17.336 55.1248 16.3144 54.5609L15.6602 54.1998L16.3003 52.9264L16.9849 53.2293V53.2281Z" fill="white"/>
<path d="M31.6999 55.3473C33.8883 55.1178 36.0604 54.6832 38.1962 54.0972L39.1559 53.8339L39.6849 55.7434L38.7252 56.0067C36.4993 56.6172 34.2207 57.0751 31.907 57.3174L30.9181 57.4211L30.7109 55.451L31.6999 55.3473Z" fill="white"/>
<path d="M46.291 51.1567C47.3091 50.7023 48.3144 50.2235 49.3151 49.7225L52.3544 48.2091L53.2438 47.7664L54.1297 49.5396L53.2403 49.9823L50.208 51.4922C49.1875 52.0036 48.1506 52.4976 47.1043 52.9636L46.1962 53.3691L45.3828 51.5621L46.291 51.1567Z" fill="white"/>
<path d="M60.2609 44.3715C62.309 43.4011 64.3664 42.4481 66.4343 41.516L67.3401 41.1083L68.1605 42.9129L67.2547 43.3207C65.1996 44.2457 63.1539 45.194 61.1164 46.1599L60.2188 46.5851L59.3633 44.7968L60.2609 44.3715Z" fill="white"/>
<path d="M74.5163 38.0267C76.6159 37.1623 78.7283 36.327 80.8559 35.5266L81.7863 35.1771L82.4897 37.0295L81.5593 37.379C79.4527 38.1712 77.359 38.9984 75.277 39.8558L74.3584 40.2345L73.5977 38.4042L74.5163 38.0256V38.0267Z" fill="white"/>
<path d="M89.1823 32.6163C91.3486 31.9196 93.53 31.2672 95.7279 30.6672L96.6875 30.4051L97.213 32.3157L96.2533 32.5779C94.0871 33.1686 91.9337 33.8128 89.7932 34.5014L88.8464 34.8054L88.2344 32.9204L89.1812 32.6163H89.1823Z" fill="white"/>
<path d="M104.333 28.6284C106.571 28.1822 108.824 27.8013 111.089 27.4983L112.075 27.3667L112.34 29.3298L111.355 29.4614C109.135 29.7585 106.924 30.1325 104.725 30.5705L103.75 30.7651L103.359 28.823L104.334 28.6284H104.333Z" fill="white"/>
<path d="M119.924 26.7387C122.214 26.6572 124.507 26.6711 126.798 26.7923L127.791 26.8447L127.685 28.823L126.691 28.7705C124.463 28.6529 122.228 28.6389 119.994 28.7181L119 28.7531L118.93 26.7737L119.923 26.7387H119.924Z" fill="white"/>
<path d="M135.64 27.8315C137.9 28.2521 140.138 28.795 142.338 29.4672L143.29 29.7573L142.707 31.6505L141.755 31.3604C139.629 30.7115 137.464 30.1861 135.275 29.7783L134.297 29.5966L134.662 27.6498L135.64 27.8315Z" fill="white"/>
<path d="M150.61 32.7829C152.638 33.8652 154.596 35.0652 156.471 36.3724L156.99 36.7347L156.335 37.7541L155.787 37.4361C153.853 36.313 151.856 35.3052 149.813 34.4233L148.973 34.061L149.804 32.3542L150.611 32.7841L150.61 32.7829Z" fill="white"/>
<path d="M163.295 41.9692C164.373 43.0003 165.415 44.064 166.412 45.1661C165.299 44.1805 164.163 43.2251 162.994 42.3141L162.812 42.1731L163.128 41.8108L163.295 41.9692Z" fill="white"/>
<path d="M24.4005 51.9932L21.1424 44.4566L19.5566 50.7909L16.0469 49.9194L19.6397 35.5743L23.1495 36.4458L21.5731 42.7393L27.9524 37.6376L32.0778 38.6617L24.7341 44.3051L28.6909 53.0568L24.4005 51.992V51.9932Z" fill="white"/>
<path d="M36.4845 39.5541C37.0112 39.0415 37.6501 38.692 38.4026 38.5056L39.3237 42.2057L38.3582 42.4434C37.4816 42.6601 36.8719 43.0096 36.5266 43.4919C36.1814 43.9754 36.1264 44.6861 36.3605 45.6262L37.6782 50.9202L34.1673 51.7858L31.3281 40.3789L34.8391 39.5133L35.3119 41.4146C35.567 40.6865 35.9567 40.0655 36.4833 39.5529L36.4845 39.5541Z" fill="white"/>
<path d="M49.173 33.4808L54.3235 44.0546L51.0689 45.6263L50.3678 44.1863C50.2649 44.8131 50.0015 45.4049 49.5755 45.9618C49.1496 46.5187 48.5937 46.9626 47.9079 47.2934C47.0957 47.686 46.2905 47.8515 45.4935 47.7921C44.6965 47.7326 43.9604 47.4437 43.2851 46.9264C42.6099 46.4092 42.0481 45.6903 41.5987 44.7676L38.5898 38.5906L41.8258 37.0283L44.6228 42.7696C44.9669 43.4768 45.4186 43.9381 45.978 44.1513C46.5362 44.3657 47.1273 44.3226 47.7487 44.022C48.383 43.7156 48.7891 43.2787 48.967 42.709C49.1437 42.1405 49.0606 41.502 48.7154 40.7937L45.9183 35.0524L49.173 33.4808Z" fill="white"/>
<path d="M57.5955 39.0683L62.203 36.8466L63.5032 39.5191L55.2584 43.4942L54.005 40.916L55.8319 33.4598L51.4526 35.5708L50.1523 32.8983L58.2638 28.9884L59.5172 31.5666L57.5955 39.0683Z" fill="white"/>
<path d="M58.93 26.7306C58.408 26.5605 58.0323 26.2273 57.8018 25.7298C57.5654 25.2207 57.5513 24.7127 57.7597 24.2071C57.968 23.7015 58.36 23.3158 58.9358 23.0514C59.4987 22.7927 60.0418 22.7485 60.5637 22.9174C61.0857 23.0875 61.4648 23.4277 61.7013 23.9368C61.9318 24.4343 61.9435 24.9352 61.7352 25.4409C61.5269 25.9465 61.1407 26.3286 60.5778 26.5873C60.002 26.8517 59.4531 26.8995 58.9311 26.7294L58.93 26.7306ZM62.7241 26.9461L67.6745 37.6143L64.3906 39.1242L59.4402 28.456L62.7241 26.9461Z" fill="white"/>
<path d="M74.6013 23.1341C75.7107 23.6339 76.5709 24.6009 77.183 26.035L79.8782 32.3542L76.5674 33.7534L74.0618 27.8793C73.7528 27.1558 73.3245 26.6734 72.7779 26.4311C72.2302 26.19 71.6392 26.2039 71.0026 26.4719C70.3659 26.741 69.9458 27.1558 69.7398 27.715C69.5338 28.2754 69.5853 28.9161 69.8943 29.6396L72.3999 35.5137L69.0704 36.9211L64.457 26.1049L67.7866 24.6976L68.3986 26.1317C68.5321 25.5107 68.8258 24.941 69.2775 24.4214C69.7305 23.9018 70.3133 23.4917 71.0272 23.19C72.2993 22.6518 73.4907 22.6331 74.6001 23.1329L74.6013 23.1341Z" fill="white"/>
<path d="M81.1327 19.7287C81.3796 18.4448 81.9437 17.3241 82.8238 16.3664C83.7038 15.4088 84.8285 14.7086 86.1966 14.2647C87.8725 13.7206 89.4512 13.6962 90.934 14.189C92.4156 14.6829 93.607 15.6255 94.5081 17.0165L90.7269 18.2433C90.2529 17.747 89.7075 17.4301 89.0908 17.2903C88.474 17.1505 87.8374 17.1878 87.1796 17.401C86.1205 17.7447 85.382 18.3901 84.9654 19.3373C84.5488 20.2844 84.5418 21.3726 84.9432 22.6005C85.3458 23.8285 85.9953 24.7034 86.8929 25.2242C87.7905 25.7449 88.7689 25.8335 89.8281 25.4898C90.4846 25.2766 91.0218 24.9329 91.4372 24.4576C91.8527 23.9834 92.1055 23.4067 92.1944 22.7275L95.9757 21.5007C96.0717 23.1527 95.6667 24.6102 94.7586 25.8719C93.8516 27.1337 92.5596 28.0366 90.8837 28.5806C89.5156 29.0245 88.1931 29.1177 86.914 28.8602C85.636 28.6028 84.5184 28.0319 83.5599 27.1465C82.6026 26.2611 81.8969 25.124 81.4416 23.7364C80.9875 22.3477 80.8834 21.0126 81.1303 19.7287H81.1327Z" fill="white"/>
<path d="M100.534 25.0692C99.5254 24.7884 98.6641 24.2607 97.949 23.4836C97.2339 22.7065 96.7436 21.7221 96.4779 20.5302C96.2146 19.3512 96.245 18.2561 96.568 17.2425C96.891 16.2289 97.454 15.3819 98.2556 14.7016C99.0573 14.0212 100.023 13.5563 101.152 13.307C102.281 13.0577 103.353 13.0728 104.369 13.3513C105.385 13.6309 106.255 14.161 106.978 14.9427C107.701 15.7245 108.194 16.7054 108.457 17.8844C108.721 19.0635 108.687 20.1597 108.357 21.1745C108.027 22.1892 107.458 23.0386 106.649 23.7201C105.84 24.4028 104.871 24.8677 103.743 25.117C102.614 25.3663 101.545 25.3511 100.537 25.0704L100.534 25.0692ZM104.622 20.952C104.987 20.3531 105.067 19.5947 104.862 18.6767C104.657 17.7586 104.269 17.1039 103.698 16.7124C103.126 16.321 102.503 16.1998 101.829 16.3489C101.14 16.5015 100.623 16.8709 100.277 17.458C99.9303 18.0452 99.8625 18.8048 100.07 19.7368C100.274 20.6549 100.656 21.312 101.213 21.7057C101.77 22.1007 102.387 22.223 103.061 22.0739C103.735 21.9248 104.256 21.5508 104.621 20.9531L104.622 20.952Z" fill="white"/>
<path d="M119.695 12.001C120.605 12.8084 121.136 13.9862 121.289 15.5369L121.966 22.3698L118.387 22.7205L117.758 16.3699C117.681 15.587 117.417 14.9998 116.967 14.606C116.517 14.2134 115.948 14.0503 115.261 14.1179C114.573 14.1855 114.047 14.4558 113.683 14.9288C113.319 15.4018 113.175 16.0297 113.254 16.8126L113.882 23.1632L110.282 23.5162L109.125 11.8216L112.725 11.4686L112.878 13.0193C113.192 12.467 113.642 12.0103 114.231 11.648C114.819 11.2869 115.499 11.069 116.271 10.9933C117.646 10.8581 118.788 11.1948 119.698 12.001H119.695Z" fill="white"/>
<path d="M134.117 12.4461C134.884 13.3874 135.22 14.6352 135.122 16.1905L134.694 23.0432L131.104 22.8207L131.502 16.4514C131.551 15.6674 131.385 15.0441 131.005 14.5851C130.623 14.126 130.089 13.8744 129.399 13.8313C128.71 13.7882 128.147 13.9722 127.712 14.3812C127.276 14.7901 127.034 15.3878 126.985 16.1718L126.587 22.5411L122.977 22.3174L123.71 10.589L127.321 10.8127L127.224 12.368C127.622 11.8729 128.14 11.4931 128.779 11.2298C129.417 10.9665 130.124 10.8593 130.897 10.907C132.277 10.9921 133.35 11.5059 134.118 12.4461H134.117Z" fill="white"/>
<path d="M147.565 21.0871L139.632 19.0727C139.505 19.7939 139.595 20.3927 139.902 20.8692C140.209 21.3457 140.657 21.6591 141.244 21.8082C142.118 22.0308 142.821 21.8176 143.351 21.1698L147.082 22.117C146.698 22.8172 146.181 23.402 145.529 23.8739C144.876 24.3457 144.13 24.6568 143.292 24.8059C142.453 24.955 141.57 24.9119 140.64 24.6754C139.519 24.3911 138.583 23.8995 137.83 23.2016C137.078 22.5038 136.569 21.6498 136.303 20.6409C136.038 19.632 136.056 18.5357 136.361 17.352C136.664 16.1683 137.172 15.1967 137.883 14.4347C138.595 13.674 139.449 13.166 140.446 12.912C141.442 12.6581 142.508 12.6755 143.642 12.9633C144.749 13.2441 145.674 13.7252 146.416 14.4068C147.158 15.0883 147.662 15.919 147.928 16.8988C148.194 17.8786 148.18 18.9411 147.887 20.0828C147.804 20.409 147.696 20.7446 147.564 21.0871H147.565ZM144.536 18.2526C144.69 17.6537 144.607 17.126 144.287 16.6681C143.968 16.2103 143.501 15.9039 142.886 15.7466C142.299 15.5974 141.759 15.6417 141.269 15.8794C140.778 16.1171 140.405 16.5365 140.149 17.1388L144.535 18.2526H144.536Z" fill="white"/>
<path d="M150.58 17.9462C151.427 17.338 152.361 17.0048 153.383 16.9466C154.403 16.8883 155.435 17.1073 156.479 17.6048C157.815 18.2409 158.764 19.1217 159.327 20.2448C159.888 21.369 160.005 22.6308 159.677 24.03L156.203 22.3756C156.3 21.4261 155.929 20.7504 155.089 20.3508C154.491 20.0654 153.902 20.07 153.324 20.3624C152.746 20.6549 152.25 21.2316 151.836 22.0937C151.421 22.9546 151.282 23.7014 151.415 24.3329C151.549 24.9655 151.915 25.4233 152.513 25.7076C153.352 26.1072 154.113 25.9721 154.796 25.301L158.27 26.9554C157.393 28.0633 156.333 28.7565 155.089 29.0361C153.845 29.3157 152.561 29.1398 151.237 28.5095C150.194 28.0121 149.376 27.3503 148.781 26.522C148.186 25.6936 147.86 24.7604 147.805 23.7224C147.749 22.6843 147.985 21.6137 148.515 20.5116C149.045 19.4094 149.734 18.5555 150.581 17.9462H150.58Z" fill="white"/>
<path d="M163.822 32.4194L162.075 34.9289L160.563 33.885C159.485 33.1405 158.827 32.2982 158.591 31.358C158.353 30.4167 158.65 29.353 159.477 28.1635L162.153 24.3212L160.971 23.5057L162.684 21.0486L163.866 21.8642L165.505 19.5108L168.478 21.5624L166.838 23.9158L168.786 25.2602L167.073 27.7173L165.126 26.3729L162.426 30.2501C162.225 30.539 162.15 30.7942 162.2 31.0167C162.251 31.2404 162.439 31.4629 162.763 31.6866L163.824 32.4182L163.822 32.4194Z" fill="white"/>
<path d="M21.5369 12.7618C19.0828 13.5435 16.198 15.0383 15.3261 17.5687C14.8603 18.9598 15.2418 20.4568 15.8399 21.7617C17.3554 25.2836 20.3994 27.2967 24.1409 27.8466C31.0668 28.8719 39.0062 26.2587 45.4733 23.7399C49.4231 22.1589 53.2734 20.3252 57.0477 18.3633C60.9939 16.385 65.0221 14.5571 69.0983 12.8759C76.325 9.87249 83.7108 7.25466 91.2207 5.04226C97.84 3.13393 104.56 1.50755 111.405 0.615129C126.083 -1.1697 141.381 0.959979 155.006 6.61273C162.202 9.63249 168.974 13.6856 174.935 18.7104C175.013 18.7687 175.025 18.8805 174.963 18.9539C174.905 19.0227 174.803 19.0343 174.731 18.9796C168.575 14.3357 161.735 10.6088 154.516 7.89892C141.89 3.22947 128.103 1.36658 114.705 2.89394C108.961 3.63723 103.314 4.95838 97.7335 6.49273C86.5758 9.61385 75.6743 13.6286 65.0537 18.2363C62.3995 19.3978 59.7792 20.6153 57.1846 21.905C49.3529 25.6937 41.1373 29.0326 32.4407 30.1534C25.6564 30.9922 17.7124 30.0148 14.7725 22.9279C12.8298 18.4868 14.2705 15.2398 18.6779 13.3047C19.5837 12.9179 20.5094 12.6185 21.4808 12.4286C21.572 12.4111 21.661 12.4717 21.6785 12.5626C21.7008 12.6569 21.6294 12.7431 21.5404 12.7618H21.5369Z" fill="white"/>
</g>
<defs>
<clipPath id="clip0_971_27973">
<rect width="175" height="64" fill="white"/>
</clipPath>
</defs>
</svg>
