<svg width="85" height="98" viewBox="0 0 85 98" fill="none" xmlns="http://www.w3.org/2000/svg">
<path d="M1.5 95.3594C0.947715 95.3594 0.5 95.8071 0.5 96.3594C0.5 96.9117 0.947715 97.3594 1.5 97.3594V95.3594ZM84.2071 8.70711C84.5976 8.31658 84.5976 7.68342 84.2071 7.29289L77.8431 0.928932C77.4526 0.538408 76.8195 0.538408 76.4289 0.928932C76.0384 1.31946 76.0384 1.95262 76.4289 2.34315L82.0858 8L76.4289 13.6569C76.0384 14.0474 76.0384 14.6805 76.4289 15.0711C76.8195 15.4616 77.4526 15.4616 77.8431 15.0711L84.2071 8.70711ZM1.5 96.3594V97.3594H18.5V96.3594V95.3594H1.5V96.3594ZM42.5 72.3594H43.5V32H42.5H41.5V72.3594H42.5ZM66.5 8V9H83.5V8V7H66.5V8ZM42.5 32H43.5C43.5 19.2974 53.7975 9 66.5 9V8V7C52.6929 7 41.5 18.1929 41.5 32H42.5ZM18.5 96.3594V97.3594C32.3071 97.3594 43.5 86.1665 43.5 72.3594H42.5H41.5C41.5 85.0619 31.2025 95.3594 18.5 95.3594V96.3594Z" fill="#757575"/>
</svg>
