<svg width="145" height="17" viewBox="0 0 145 17" fill="none" xmlns="http://www.w3.org/2000/svg">
<path d="M9.1921 16.74C3.8881 16.74 0.600098 13.476 0.600098 8.45999C0.600098 3.44399 3.8881 0.179993 9.1921 0.179993C14.1841 0.179993 17.4001 2.67599 17.4001 6.75599V7.11599H13.3921V6.75599C13.3921 4.64399 12.1921 3.63599 9.2641 3.63599C5.7361 3.63599 4.4161 4.88399 4.4161 8.45999C4.4161 12.036 5.7361 13.284 9.2641 13.284C12.1921 13.284 13.3921 12.276 13.3921 10.164V9.80399H17.4001V10.164C17.4001 14.244 14.2081 16.74 9.1921 16.74ZM22.6561 16.74C20.0641 16.74 18.5041 15.54 18.5041 13.524C18.5041 11.748 19.8241 10.644 22.3921 10.38L27.5521 9.85199V9.39599C27.5521 7.83599 26.8561 7.40399 24.9361 7.40399C23.1121 7.40399 22.3681 7.88399 22.3681 9.25199V9.34799H18.7441V9.27599C18.7441 6.29999 21.2401 4.23599 25.2001 4.23599C29.2081 4.23599 31.1041 6.29999 31.1041 9.44399V16.5H27.7441V13.74H27.5521C27.0001 15.612 25.3201 16.74 22.6561 16.74ZM22.1281 13.284C22.1281 13.932 22.6321 14.196 23.6881 14.196C26.1361 14.196 27.4561 13.62 27.5521 11.916L23.3761 12.396C22.5121 12.468 22.1281 12.708 22.1281 13.284ZM36.5289 16.5H32.9289V0.419993H36.5289V16.5ZM42.0132 16.5H38.4132V0.419993H42.0132V16.5ZM51.2007 16.5H47.6007V0.419993H52.4727L56.2407 8.33999L57.7527 12.108H58.0167L59.4807 8.33999L63.1287 0.419993H68.0247V16.5H64.4247V8.33999L64.5447 5.81999H64.2807L63.3447 8.33999L59.9847 15.54H55.6167L52.2567 8.33999L51.3207 5.81999H51.0567L51.2007 8.33999V16.5ZM76.2972 16.74C72.2892 16.74 69.5532 14.772 69.5532 10.5C69.5532 6.65999 72.2652 4.23599 76.2252 4.23599C80.1612 4.23599 82.7772 6.29999 82.7772 10.068C82.7772 10.5 82.7292 10.812 82.6812 11.22H72.8892C72.9852 13.068 73.8492 13.86 76.1772 13.86C78.3132 13.86 79.0572 13.308 79.0572 12.276V12.036H82.6572V12.3C82.6572 14.916 80.1132 16.74 76.2972 16.74ZM76.1532 7.04399C74.0172 7.04399 73.1052 7.76399 72.9372 9.32399H79.3212C79.2252 7.73999 78.2652 7.04399 76.1532 7.04399ZM91.607 16.5H88.007V0.419993H92.879L96.647 8.33999L98.159 12.108H98.423L99.887 8.33999L103.535 0.419993H108.431V16.5H104.831V8.33999L104.951 5.81999H104.687L103.751 8.33999L100.391 15.54H96.023L92.663 8.33999L91.727 5.81999H91.463L91.607 8.33999V16.5ZM113.919 3.25199H110.319V0.419993H113.919V3.25199ZM113.919 16.5H110.319V4.47599H113.919V16.5ZM121.18 16.74C117.436 16.74 115.372 14.292 115.372 10.5C115.372 6.65999 117.412 4.23599 120.988 4.23599C123.844 4.23599 125.308 5.65199 125.716 7.66799H125.932V0.419993H129.532V16.5H126.172V13.164H125.98C125.524 15.54 123.94 16.74 121.18 16.74ZM119.02 10.5C119.02 12.684 120.1 13.452 122.404 13.452C124.684 13.452 125.932 12.66 125.932 10.572V10.38C125.932 8.29199 124.708 7.52399 122.404 7.52399C120.1 7.52399 119.02 8.29199 119.02 10.5ZM137.821 16.74C133.813 16.74 131.077 14.772 131.077 10.5C131.077 6.65999 133.789 4.23599 137.749 4.23599C141.685 4.23599 144.301 6.29999 144.301 10.068C144.301 10.5 144.253 10.812 144.205 11.22H134.413C134.509 13.068 135.373 13.86 137.701 13.86C139.837 13.86 140.581 13.308 140.581 12.276V12.036H144.181V12.3C144.181 14.916 141.637 16.74 137.821 16.74ZM137.677 7.04399C135.541 7.04399 134.629 7.76399 134.461 9.32399H140.845C140.749 7.73999 139.789 7.04399 137.677 7.04399Z" fill="white"/>
</svg>
