<svg width="300" height="52" viewBox="0 0 300 52" fill="none" xmlns="http://www.w3.org/2000/svg">
<path d="M192.152 3.81898C194.624 5.75992 195.86 8.46968 195.86 11.9609C195.86 14.7588 195.159 17.2165 193.77 19.3465C192.368 21.4765 190.38 23.1276 187.806 24.2997C185.219 25.4718 182.224 26.0642 178.821 26.0642H172.997L171.366 34.2565H159.998L166.727 0.920166H181.701C186.2 0.920166 189.679 1.89064 192.152 3.81898ZM183.052 16.2208C183.919 15.4394 184.352 14.3555 184.352 12.9565C184.352 10.7005 182.938 9.57879 180.108 9.57879H176.311L174.718 17.393H179.382C180.95 17.393 182.173 17.0023 183.04 16.2208H183.052Z" fill="white"/>
<path d="M214.263 28.4463H201.404L198.04 34.2565H186.047L207.521 0.920166H218.698L226.689 34.2565H215.372L214.263 28.4463ZM212.67 20.3422L211.039 11.8222L206.081 20.3422H212.683H212.67Z" fill="white"/>
<path d="M229.76 34.08C227.186 33.4624 225.07 32.6432 223.401 31.6223L227.785 23.3418C231.417 25.4087 235.202 26.4422 239.153 26.4422C240.593 26.4422 241.701 26.2658 242.479 25.9129C243.243 25.56 243.639 25.0937 243.639 24.4887C243.639 23.9215 243.243 23.4552 242.453 23.1023C241.663 22.7494 240.427 22.3713 238.719 21.9554C236.476 21.3882 234.616 20.8085 233.137 20.2161C231.659 19.6237 230.372 18.7289 229.263 17.5063C228.154 16.2838 227.606 14.6705 227.606 12.6666C227.606 10.1585 228.282 7.96546 229.658 6.07493C231.022 4.1844 232.984 2.7224 235.559 1.68891C238.12 0.655417 241.166 0.138672 244.658 0.138672C247.156 0.138672 249.501 0.390742 251.667 0.88228C253.834 1.37382 255.707 2.07962 257.275 2.99967L253.184 11.192C251.871 10.3727 250.418 9.74256 248.825 9.33925C247.232 8.92333 245.601 8.72167 243.932 8.72167C242.364 8.72167 241.141 8.94854 240.274 9.38966C239.407 9.83079 238.974 10.3601 238.974 10.9651C238.974 11.5701 239.369 12.049 240.159 12.3893C240.949 12.7422 242.237 13.1203 244.034 13.5362C246.213 14.0404 248.048 14.5823 249.552 15.1495C251.043 15.7166 252.33 16.6115 253.426 17.8214C254.522 19.0314 255.057 20.6194 255.057 22.5856C255.057 25.0558 254.369 27.2363 252.993 29.1142C251.616 30.9921 249.641 32.4415 247.067 33.475C244.492 34.5085 241.485 35.0252 238.018 35.0252C235.1 35.0252 232.347 34.7102 229.786 34.0926L229.76 34.08Z" fill="white"/>
<path d="M257.492 34.08C254.917 33.4624 252.802 32.6432 251.132 31.6223L255.516 23.3418C259.148 25.4087 262.933 26.4422 266.884 26.4422C268.324 26.4422 269.433 26.2658 270.21 25.9129C270.975 25.56 271.37 25.0937 271.37 24.4887C271.37 23.9215 270.975 23.4552 270.185 23.1023C269.395 22.7494 268.159 22.3713 266.451 21.9554C264.208 21.3882 262.347 20.8085 260.869 20.2161C259.39 19.6237 258.103 18.7289 256.995 17.5063C255.886 16.2838 255.338 14.6705 255.338 12.6666C255.338 10.1585 256.013 7.96546 257.39 6.07493C258.753 4.1844 260.716 2.7224 263.29 1.68891C265.852 0.655417 268.898 0.138672 272.39 0.138672C274.888 0.138672 277.232 0.390742 279.399 0.88228C281.566 1.37382 283.439 2.07962 285.006 2.99967L280.916 11.192C279.603 10.3727 278.15 9.74256 276.557 9.33925C274.964 8.92333 273.333 8.72167 271.663 8.72167C270.096 8.72167 268.872 8.94854 268.006 9.38966C267.139 9.83079 266.706 10.3601 266.706 10.9651C266.706 11.5701 267.101 12.049 267.891 12.3893C268.681 12.7422 269.968 13.1203 271.765 13.5362C273.944 14.0404 275.78 14.5823 277.283 15.1495C278.775 15.7166 280.062 16.6115 281.158 17.8214C282.254 19.0314 282.789 20.6194 282.789 22.5856C282.789 25.0558 282.101 27.2363 280.724 29.1142C279.348 30.9921 277.373 32.4415 274.798 33.475C272.224 34.5085 269.216 35.0252 265.75 35.0252C262.831 35.0252 260.079 34.7102 257.517 34.0926L257.492 34.08Z" fill="white"/>
<path d="M29.6114 18.4012L33.167 0.781494H21.7609L18.1925 18.4012H29.6114Z" fill="#DF3331"/>
<path d="M41.8203 24.9551H30.6946L30.3123 26.896H41.4253L41.8203 24.9551Z" fill="#DF3331"/>
<path d="M64.059 24.9551H47.0072L48.2179 26.896H63.664L64.059 24.9551Z" fill="#DF3331"/>
<path d="M31.8925 19.0693L31.4974 21.0103H42.6104L43.0055 19.0693H31.8925Z" fill="#DF3331"/>
<path d="M42.4703 21.6782H31.3573L30.975 23.6192H42.088L42.4703 21.6782Z" fill="#DF3331"/>
<path d="M44.9681 21.6782L46.1788 23.6192H64.3267L64.7218 21.6782H44.9681Z" fill="#DF3331"/>
<path d="M29.8789 29.0386L28.8212 34.2438H39.9469L40.9919 29.0386H29.8789Z" fill="#DF3331"/>
<path d="M43.3369 19.0693L44.5476 21.0103H64.862L65.2443 19.0693H43.3369Z" fill="#DF3331"/>
<path d="M49.556 29.0386L52.8058 34.2438H62.1856L63.2306 29.0386H49.556Z" fill="#DF3331"/>
<path d="M65.3845 18.4012L68.9529 0.781494H57.8272L54.6921 16.3595L44.9682 0.781494H35.5884L32.02 18.4012H65.3845Z" fill="#DF3331"/>
<path d="M29.076 21.01L29.4711 19.0691H18.065L17.6699 21.01H29.076Z" fill="#DF3331"/>
<path d="M27.8909 26.8958L28.2859 24.9548H16.8671L16.4847 26.8958H27.8909Z" fill="#DF3331"/>
<path d="M28.5536 23.6189L28.9487 21.678H17.5298L17.1475 23.6189H28.5536Z" fill="#DF3331"/>
<path d="M16.0514 29.0383L14.9937 34.2436H26.3998L27.4575 29.0383H16.0514Z" fill="#DF3331"/>
<path d="M70.0744 23.304L69.9087 23.619H70.6733C70.4694 23.5056 70.2655 23.4174 70.0744 23.304Z" fill="#DF3331"/>
<path d="M81.0473 21.9174C82.755 22.3334 84.0039 22.7115 84.7941 23.0644C85.1636 23.2282 85.4313 23.4173 85.6352 23.6189H97.3854C97.4109 23.266 97.4364 22.9005 97.4364 22.535C97.4364 22.2451 97.4236 21.9553 97.3981 21.678H80.1552C80.4483 21.7536 80.7414 21.8292 81.0473 21.9174Z" fill="#DF3331"/>
<path d="M97.1942 24.9551H85.8773C85.7116 25.3206 85.3676 25.6357 84.8195 25.8751C84.0421 26.228 82.9334 26.4045 81.4805 26.4045C78.7788 26.4045 76.1662 25.9129 73.6173 24.9551H69.1951L68.1755 26.896H96.608C96.8629 26.2784 97.0668 25.6231 97.1942 24.9551Z" fill="#DF3331"/>
<path d="M67.0412 29.0386L65.6776 31.6223C67.3599 32.6432 69.4754 33.4624 72.0625 34.08C74.6368 34.6976 77.4023 35.0126 80.3335 35.0126C83.8127 35.0126 86.8458 34.4959 89.4202 33.4624C91.9945 32.4289 93.9826 30.9669 95.3717 29.089C95.3717 29.0764 95.3972 29.0512 95.41 29.0386H67.054H67.0412Z" fill="#DF3331"/>
<path d="M72.534 18.4012H96.2893C96.1364 18.1743 95.9707 17.96 95.7923 17.7458C94.6963 16.5358 93.3964 15.641 91.9053 15.0738C90.4015 14.4941 88.5663 13.9521 86.3743 13.448C84.5646 13.032 83.2774 12.6539 82.4873 12.301C81.6972 11.9481 81.3021 11.4692 81.3021 10.8642C81.3021 10.2593 81.7354 9.72992 82.602 9.2888C83.4686 8.84768 84.6921 8.62081 86.2724 8.62081C87.9546 8.62081 89.5859 8.82247 91.1789 9.23839C92.7719 9.6543 94.2375 10.2719 95.5502 11.1037L99.6538 2.8736C98.0735 1.95355 96.2001 1.23515 94.0209 0.743608C91.8416 0.252071 89.4967 0 86.986 0C83.4686 0 80.4227 0.516745 77.8484 1.55023C75.274 2.58372 73.2987 4.05834 71.9223 5.94887C70.5459 7.8394 69.8705 10.0576 69.8705 12.5657C69.8705 14.5697 70.4312 16.1955 71.54 17.4181C71.8586 17.7584 72.1899 18.0861 72.534 18.3759V18.4012Z" fill="#DF3331"/>
<path d="M73.4006 19.0691C74.0378 19.5102 74.7133 19.8757 75.4397 20.1656C76.1534 20.4429 76.9563 20.7328 77.8484 21.01H97.3216C97.2069 20.3042 96.9903 19.6615 96.6971 19.0691H73.4006Z" fill="#DF3331"/>
<path d="M117.878 24.9551H106.459L106.077 26.896H117.483L117.878 24.9551Z" fill="#DF3331"/>
<path d="M105.644 29.0386L104.599 34.2438H116.005L117.05 29.0386H105.644Z" fill="#DF3331"/>
<path d="M107.122 21.6782L106.74 23.6192H118.146L118.541 21.6782H107.122Z" fill="#DF3331"/>
<path d="M107.644 19.0693L107.262 21.0103H118.668L119.063 19.0693H107.644Z" fill="#DF3331"/>
<path d="M107.785 18.4012H119.191L120.988 9.52834H130.89L132.687 0.781494H101.451L99.6665 9.52834H109.569L107.785 18.4012Z" fill="#DF3331"/>
<path d="M145.495 19.0693L145.724 20.2919H139.097L139.811 19.0693H128.774L127.513 21.0103H156.621L156.162 19.0693H145.495Z" fill="#DF3331"/>
<path d="M127.092 21.6782L125.843 23.6192H157.245L156.786 21.6782H127.092Z" fill="#DF3331"/>
<path d="M157.564 24.9551H124.977L123.728 26.896H158.035L157.564 24.9551Z" fill="#DF3331"/>
<path d="M140.206 18.4012L144.08 11.7214L145.367 18.4012H155.996L151.765 0.781494H140.55L129.195 18.4012H140.206Z" fill="#DF3331"/>
<path d="M147.445 29.0386L148.439 34.2438H159.794L158.545 29.0386H147.445Z" fill="#DF3331"/>
<path d="M122.351 29.0386L118.987 34.2438H131.03L134.051 29.0386H122.351Z" fill="#DF3331"/>
</svg>
