<svg width="48" height="48" viewBox="0 0 48 48" fill="none" xmlns="http://www.w3.org/2000/svg">
<rect width="48" height="48" rx="12" fill="#1E242E"/>
<path d="M26 25.5C26.2449 25.5 26.4813 25.59 26.6644 25.7527C26.8474 25.9155 26.9643 26.1397 26.993 26.383L27 26.5V32.5C26.9997 32.7549 26.9021 33 26.7272 33.1854C26.5522 33.3707 26.313 33.4822 26.0586 33.4972C25.8042 33.5121 25.5536 33.4293 25.3582 33.2657C25.1627 33.1021 25.0371 32.8701 25.007 32.617L25 32.5V26.5C25 26.2348 25.1054 25.9804 25.2929 25.7929C25.4804 25.6054 25.7348 25.5 26 25.5ZM29 30C29.2652 30 29.5196 30.1054 29.7071 30.2929C29.8946 30.4804 30 30.7348 30 31V32.5C30 32.7652 29.8946 33.0196 29.7071 33.2071C29.5196 33.3946 29.2652 33.5 29 33.5C28.7348 33.5 28.4804 33.3946 28.2929 33.2071C28.1054 33.0196 28 32.7652 28 32.5V31C28 30.7348 28.1054 30.4804 28.2929 30.2929C28.4804 30.1054 28.7348 30 29 30ZM32 25.5C32.2449 25.5 32.4813 25.59 32.6644 25.7527C32.8474 25.9155 32.9643 26.1397 32.993 26.383L33 26.5V32.5C32.9997 32.7549 32.9021 33 32.7272 33.1854C32.5522 33.3707 32.313 33.4822 32.0586 33.4972C31.8042 33.5121 31.5536 33.4293 31.3582 33.2657C31.1627 33.1021 31.0371 32.8701 31.007 32.617L31 32.5V26.5C31 26.2348 31.1054 25.9804 31.2929 25.7929C31.4804 25.6054 31.7348 25.5 32 25.5ZM21 25.5C21.5304 25.5 22.0391 25.7107 22.4142 26.0858C22.7893 26.4609 23 26.9696 23 27.5V31.5C23 32.0304 22.7893 32.5391 22.4142 32.9142C22.0391 33.2893 21.5304 33.5 21 33.5H17C16.4696 33.5 15.9609 33.2893 15.5858 32.9142C15.2107 32.5391 15 32.0304 15 31.5V27.5C15 26.9696 15.2107 26.4609 15.5858 26.0858C15.9609 25.7107 16.4696 25.5 17 25.5H21ZM29 25.5C29.2449 25.5 29.4813 25.59 29.6644 25.7527C29.8474 25.9155 29.9643 26.1397 29.993 26.383L30 26.5V28C29.9997 28.2549 29.9021 28.5 29.7272 28.6854C29.5522 28.8707 29.313 28.9822 29.0586 28.9972C28.8042 29.0121 28.5536 28.9293 28.3582 28.7657C28.1627 28.6021 28.0371 28.3701 28.007 28.117L28 28V26.5C28 26.2348 28.1054 25.9804 28.2929 25.7929C28.4804 25.6054 28.7348 25.5 29 25.5ZM21 15.5C21.5304 15.5 22.0391 15.7107 22.4142 16.0858C22.7893 16.4609 23 16.9696 23 17.5V21.5C23 22.0304 22.7893 22.5391 22.4142 22.9142C22.0391 23.2893 21.5304 23.5 21 23.5H17C16.4696 23.5 15.9609 23.2893 15.5858 22.9142C15.2107 22.5391 15 22.0304 15 21.5V17.5C15 16.9696 15.2107 16.4609 15.5858 16.0858C15.9609 15.7107 16.4696 15.5 17 15.5H21ZM31 15.5C31.5304 15.5 32.0391 15.7107 32.4142 16.0858C32.7893 16.4609 33 16.9696 33 17.5V21.5C33 22.0304 32.7893 22.5391 32.4142 22.9142C32.0391 23.2893 31.5304 23.5 31 23.5H27C26.4696 23.5 25.9609 23.2893 25.5858 22.9142C25.2107 22.5391 25 22.0304 25 21.5V17.5C25 16.9696 25.2107 16.4609 25.5858 16.0858C25.9609 15.7107 26.4696 15.5 27 15.5H31Z" fill="white"/>
</svg>
