<svg width="75" height="76" viewBox="0 0 75 76" fill="none" xmlns="http://www.w3.org/2000/svg">
<rect y="0.853027" width="75" height="75" rx="12" fill="#1E242E"/>
<path d="M22.7051 47.0883V25.1275C22.7051 23.402 24.1168 21.9902 25.8423 21.9902H36.8227C38.5482 21.9902 39.96 23.402 39.96 25.1275V47.0883C39.96 48.8138 38.5482 50.2255 36.8227 50.2255H25.8423C24.1168 50.2255 22.7051 48.8138 22.7051 47.0883Z" fill="#37474F"/>
<path d="M36.8233 24.3433H25.8429C25.3723 24.3433 25.0586 24.657 25.0586 25.1276V44.7354C25.0586 45.206 25.3723 45.5197 25.8429 45.5197H36.8233C37.2939 45.5197 37.6076 45.206 37.6076 44.7354V25.1276C37.6076 24.657 37.2939 24.3433 36.8233 24.3433Z" fill="#BBDEFB"/>
<path d="M28.9805 47.0884H33.6864V48.657H28.9805V47.0884Z" fill="#78909C"/>
<path d="M33.6855 49.2255V27.2647C33.6855 25.5392 35.0973 24.1274 36.8228 24.1274H47.8032C49.5287 24.1274 50.9404 25.5392 50.9404 27.2647V49.2255C50.9404 50.951 49.5287 52.3627 47.8032 52.3627H36.8228C35.0973 52.3627 33.6855 50.951 33.6855 49.2255Z" fill="#E38939"/>
<path d="M47.8038 26.481H36.8234C36.3528 26.481 36.0391 26.7947 36.0391 27.2653V46.8731C36.0391 47.3437 36.3528 47.6574 36.8234 47.6574H47.8038C48.2744 47.6574 48.5881 47.3437 48.5881 46.8731V27.2653C48.5881 26.7947 48.2744 26.481 47.8038 26.481Z" fill="#FFF3E0"/>
<path d="M42.3132 51.1864C42.9629 51.1864 43.4897 50.6597 43.4897 50.01C43.4897 49.3602 42.9629 48.8335 42.3132 48.8335C41.6634 48.8335 41.1367 49.3602 41.1367 50.01C41.1367 50.6597 41.6634 51.1864 42.3132 51.1864Z" fill="#A6642A"/>
</svg>
