<svg width="75" height="76" viewBox="0 0 75 76" fill="none" xmlns="http://www.w3.org/2000/svg">
<rect y="0.853027" width="75" height="75" rx="12" fill="#1E242E"/>
<path d="M49.666 29.6862C46.916 29.6862 44.666 28.9362 44.666 28.0195V29.6862C44.666 30.6029 46.916 31.3529 49.666 31.3529C52.416 31.3529 54.666 30.6029 54.666 29.6862V28.0195C54.666 28.9362 52.416 29.6862 49.666 29.6862Z" fill="#FFA000"/>
<path d="M49.666 27.1862C46.916 27.1862 44.666 26.4362 44.666 25.5195V27.1862C44.666 28.1029 46.916 28.8529 49.666 28.8529C52.416 28.8529 54.666 28.1029 54.666 27.1862V25.5195C54.666 26.4362 52.416 27.1862 49.666 27.1862ZM49.666 32.1862C46.916 32.1862 44.666 31.4362 44.666 30.5195V32.1862C44.666 33.1029 46.916 33.8529 49.666 33.8529C52.416 33.8529 54.666 33.1029 54.666 32.1862V30.5195C54.666 31.4362 52.416 32.1862 49.666 32.1862Z" fill="#FFA000"/>
<path d="M49.666 34.6862C46.916 34.6862 44.666 33.9362 44.666 33.0195V34.6862C44.666 35.6029 46.916 36.3529 49.666 36.3529C52.416 36.3529 54.666 35.6029 54.666 34.6862V33.0195C54.666 33.9362 52.416 34.6862 49.666 34.6862Z" fill="#FFA000"/>
<path d="M49.666 37.1862C46.916 37.1862 44.666 36.4362 44.666 35.5195V37.1862C44.666 38.1029 46.916 38.8529 49.666 38.8529C52.416 38.8529 54.666 38.1029 54.666 37.1862V35.5195C54.666 36.4362 52.416 37.1862 49.666 37.1862Z" fill="#FFA000"/>
<path d="M49.666 39.6862C46.916 39.6862 44.666 38.9362 44.666 38.0195V39.6862C44.666 40.6029 46.916 41.3529 49.666 41.3529C52.416 41.3529 54.666 40.6029 54.666 39.6862V38.0195C54.666 38.9362 52.416 39.6862 49.666 39.6862Z" fill="#FFA000"/>
<path d="M49.666 42.1862C46.916 42.1862 44.666 41.4362 44.666 40.5195V42.1862C44.666 43.1029 46.916 43.8529 49.666 43.8529C52.416 43.8529 54.666 43.1029 54.666 42.1862V40.5195C54.666 41.4362 52.416 42.1862 49.666 42.1862Z" fill="#FFA000"/>
<path d="M49.666 44.6862C46.916 44.6862 44.666 43.9362 44.666 43.0195V44.6862C44.666 45.6029 46.916 46.3529 49.666 46.3529C52.416 46.3529 54.666 45.6029 54.666 44.6862V43.0195C54.666 43.9362 52.416 44.6862 49.666 44.6862Z" fill="#FFA000"/>
<path d="M49.666 47.1862C46.916 47.1862 44.666 46.4362 44.666 45.5195V47.1862C44.666 48.1029 46.916 48.8529 49.666 48.8529C52.416 48.8529 54.666 48.1029 54.666 47.1862V45.5195C54.666 46.4362 52.416 47.1862 49.666 47.1862Z" fill="#FFA000"/>
<path d="M49.666 49.6862C46.916 49.6862 44.666 48.9362 44.666 48.0195V49.6862C44.666 50.6029 46.916 51.3529 49.666 51.3529C52.416 51.3529 54.666 50.6029 54.666 49.6862V48.0195C54.666 48.9362 52.416 49.6862 49.666 49.6862Z" fill="#FFA000"/>
<path d="M49.666 52.1862C46.916 52.1862 44.666 51.4362 44.666 50.5195V52.1862C44.666 53.1029 46.916 53.8529 49.666 53.8529C52.416 53.8529 54.666 53.1029 54.666 52.1862V50.5195C54.666 51.4362 52.416 52.1862 49.666 52.1862Z" fill="#FFA000"/>
<path d="M49.666 27.1864C52.4274 27.1864 54.666 26.4402 54.666 25.5197C54.666 24.5992 52.4274 23.853 49.666 23.853C46.9046 23.853 44.666 24.5992 44.666 25.5197C44.666 26.4402 46.9046 27.1864 49.666 27.1864Z" fill="#FFC107"/>
<path d="M49.666 28.853C47.3327 28.853 45.416 28.353 44.8327 27.603C44.7493 27.7697 44.666 27.853 44.666 28.0197C44.666 28.9364 46.916 29.6864 49.666 29.6864C52.416 29.6864 54.666 28.9364 54.666 28.0197C54.666 27.853 54.5827 27.7697 54.4993 27.603C53.916 28.353 51.9993 28.853 49.666 28.853ZM49.666 31.353C47.3327 31.353 45.416 30.853 44.8327 30.103C44.7493 30.2697 44.666 30.353 44.666 30.5197C44.666 31.4364 46.916 32.1864 49.666 32.1864C52.416 32.1864 54.666 31.4364 54.666 30.5197C54.666 30.353 54.5827 30.2697 54.4993 30.103C53.916 30.853 51.9993 31.353 49.666 31.353ZM49.666 33.853C47.3327 33.853 45.416 33.353 44.8327 32.603C44.7493 32.7697 44.666 32.853 44.666 33.0197C44.666 33.9364 46.916 34.6864 49.666 34.6864C52.416 34.6864 54.666 33.9364 54.666 33.0197C54.666 32.853 54.5827 32.7697 54.4993 32.603C53.916 33.353 51.9993 33.853 49.666 33.853ZM49.666 36.353C47.3327 36.353 45.416 35.853 44.8327 35.103C44.7493 35.2697 44.666 35.353 44.666 35.5197C44.666 36.4364 46.916 37.1864 49.666 37.1864C52.416 37.1864 54.666 36.4364 54.666 35.5197C54.666 35.353 54.5827 35.2697 54.4993 35.103C53.916 35.853 51.9993 36.353 49.666 36.353ZM49.666 38.853C47.3327 38.853 45.416 38.353 44.8327 37.603C44.7493 37.7697 44.666 37.853 44.666 38.0197C44.666 38.9364 46.916 39.6864 49.666 39.6864C52.416 39.6864 54.666 38.9364 54.666 38.0197C54.666 37.853 54.5827 37.7697 54.4993 37.603C53.916 38.353 51.9993 38.853 49.666 38.853ZM49.666 41.353C47.3327 41.353 45.416 40.853 44.8327 40.103C44.7493 40.2697 44.666 40.353 44.666 40.5197C44.666 41.4364 46.916 42.1864 49.666 42.1864C52.416 42.1864 54.666 41.4364 54.666 40.5197C54.666 40.353 54.5827 40.2697 54.4993 40.103C53.916 40.853 51.9993 41.353 49.666 41.353ZM49.666 43.853C47.3327 43.853 45.416 43.353 44.8327 42.603C44.7493 42.7697 44.666 42.853 44.666 43.0197C44.666 43.9364 46.916 44.6864 49.666 44.6864C52.416 44.6864 54.666 43.9364 54.666 43.0197C54.666 42.853 54.5827 42.7697 54.4993 42.603C53.916 43.353 51.9993 43.853 49.666 43.853ZM49.666 46.353C47.3327 46.353 45.416 45.853 44.8327 45.103C44.7493 45.2697 44.666 45.353 44.666 45.5197C44.666 46.4364 46.916 47.1864 49.666 47.1864C52.416 47.1864 54.666 46.4364 54.666 45.5197C54.666 45.353 54.5827 45.2697 54.4993 45.103C53.916 45.853 51.9993 46.353 49.666 46.353ZM49.666 48.853C47.3327 48.853 45.416 48.353 44.8327 47.603C44.7493 47.7697 44.666 47.853 44.666 48.0197C44.666 48.9364 46.916 49.6864 49.666 49.6864C52.416 49.6864 54.666 48.9364 54.666 48.0197C54.666 47.853 54.5827 47.7697 54.4993 47.603C53.916 48.353 51.9993 48.853 49.666 48.853ZM49.666 51.353C47.3327 51.353 45.416 50.853 44.8327 50.103C44.7493 50.2697 44.666 50.353 44.666 50.5197C44.666 51.4364 46.916 52.1864 49.666 52.1864C52.416 52.1864 54.666 51.4364 54.666 50.5197C54.666 50.353 54.5827 50.2697 54.4993 50.103C53.916 50.853 51.9993 51.353 49.666 51.353Z" fill="#FFC107"/>
<path d="M26.334 34.6862C23.584 34.6862 21.334 33.9362 21.334 33.0195V34.6862C21.334 35.6029 23.584 36.3529 26.334 36.3529C29.084 36.3529 31.334 35.6029 31.334 34.6862V33.0195C31.334 33.9362 29.084 34.6862 26.334 34.6862Z" fill="#FFA000"/>
<path d="M26.334 32.1862C23.584 32.1862 21.334 31.4362 21.334 30.5195V32.1862C21.334 33.1029 23.584 33.8529 26.334 33.8529C29.084 33.8529 31.334 33.1029 31.334 32.1862V30.5195C31.334 31.4362 29.084 32.1862 26.334 32.1862ZM26.334 37.1862C23.584 37.1862 21.334 36.4362 21.334 35.5195V37.1862C21.334 38.1029 23.584 38.8529 26.334 38.8529C29.084 38.8529 31.334 38.1029 31.334 37.1862V35.5195C31.334 36.4362 29.084 37.1862 26.334 37.1862Z" fill="#FFA000"/>
<path d="M26.334 39.6862C23.584 39.6862 21.334 38.9362 21.334 38.0195V39.6862C21.334 40.6029 23.584 41.3529 26.334 41.3529C29.084 41.3529 31.334 40.6029 31.334 39.6862V38.0195C31.334 38.9362 29.084 39.6862 26.334 39.6862Z" fill="#FFA000"/>
<path d="M26.334 42.1862C23.584 42.1862 21.334 41.4362 21.334 40.5195V42.1862C21.334 43.1029 23.584 43.8529 26.334 43.8529C29.084 43.8529 31.334 43.1029 31.334 42.1862V40.5195C31.334 41.4362 29.084 42.1862 26.334 42.1862Z" fill="#FFA000"/>
<path d="M26.334 44.6862C23.584 44.6862 21.334 43.9362 21.334 43.0195V44.6862C21.334 45.6029 23.584 46.3529 26.334 46.3529C29.084 46.3529 31.334 45.6029 31.334 44.6862V43.0195C31.334 43.9362 29.084 44.6862 26.334 44.6862Z" fill="#FFA000"/>
<path d="M26.334 47.1862C23.584 47.1862 21.334 46.4362 21.334 45.5195V47.1862C21.334 48.1029 23.584 48.8529 26.334 48.8529C29.084 48.8529 31.334 48.1029 31.334 47.1862V45.5195C31.334 46.4362 29.084 47.1862 26.334 47.1862Z" fill="#FFA000"/>
<path d="M26.334 49.6862C23.584 49.6862 21.334 48.9362 21.334 48.0195V49.6862C21.334 50.6029 23.584 51.3529 26.334 51.3529C29.084 51.3529 31.334 50.6029 31.334 49.6862V48.0195C31.334 48.9362 29.084 49.6862 26.334 49.6862Z" fill="#FFA000"/>
<path d="M26.334 52.1862C23.584 52.1862 21.334 51.4362 21.334 50.5195V52.1862C21.334 53.1029 23.584 53.8529 26.334 53.8529C29.084 53.8529 31.334 53.1029 31.334 52.1862V50.5195C31.334 51.4362 29.084 52.1862 26.334 52.1862Z" fill="#FFA000"/>
<path d="M26.334 32.1864C29.0954 32.1864 31.334 31.4402 31.334 30.5197C31.334 29.5992 29.0954 28.853 26.334 28.853C23.5726 28.853 21.334 29.5992 21.334 30.5197C21.334 31.4402 23.5726 32.1864 26.334 32.1864Z" fill="#FFC107"/>
<path d="M26.334 33.853C24.0007 33.853 22.084 33.353 21.5007 32.603C21.4173 32.7697 21.334 32.853 21.334 33.0197C21.334 33.9364 23.584 34.6864 26.334 34.6864C29.084 34.6864 31.334 33.9364 31.334 33.0197C31.334 32.853 31.2507 32.7697 31.1673 32.603C30.584 33.353 28.6673 33.853 26.334 33.853ZM26.334 36.353C24.0007 36.353 22.084 35.853 21.5007 35.103C21.4173 35.2697 21.334 35.353 21.334 35.5197C21.334 36.4364 23.584 37.1864 26.334 37.1864C29.084 37.1864 31.334 36.4364 31.334 35.5197C31.334 35.353 31.2507 35.2697 31.1673 35.103C30.584 35.853 28.6673 36.353 26.334 36.353ZM26.334 38.853C24.0007 38.853 22.084 38.353 21.5007 37.603C21.4173 37.7697 21.334 37.853 21.334 38.0197C21.334 38.9364 23.584 39.6864 26.334 39.6864C29.084 39.6864 31.334 38.9364 31.334 38.0197C31.334 37.853 31.2507 37.7697 31.1673 37.603C30.584 38.353 28.6673 38.853 26.334 38.853ZM26.334 41.353C24.0007 41.353 22.084 40.853 21.5007 40.103C21.4173 40.2697 21.334 40.353 21.334 40.5197C21.334 41.4364 23.584 42.1864 26.334 42.1864C29.084 42.1864 31.334 41.4364 31.334 40.5197C31.334 40.353 31.2507 40.2697 31.1673 40.103C30.584 40.853 28.6673 41.353 26.334 41.353ZM26.334 43.853C24.0007 43.853 22.084 43.353 21.5007 42.603C21.4173 42.7697 21.334 42.853 21.334 43.0197C21.334 43.9364 23.584 44.6864 26.334 44.6864C29.084 44.6864 31.334 43.9364 31.334 43.0197C31.334 42.853 31.2507 42.7697 31.1673 42.603C30.584 43.353 28.6673 43.853 26.334 43.853ZM26.334 46.353C24.0007 46.353 22.084 45.853 21.5007 45.103C21.4173 45.2697 21.334 45.353 21.334 45.5197C21.334 46.4364 23.584 47.1864 26.334 47.1864C29.084 47.1864 31.334 46.4364 31.334 45.5197C31.334 45.353 31.2507 45.2697 31.1673 45.103C30.584 45.853 28.6673 46.353 26.334 46.353ZM26.334 48.853C24.0007 48.853 22.084 48.353 21.5007 47.603C21.4173 47.7697 21.334 47.853 21.334 48.0197C21.334 48.9364 23.584 49.6864 26.334 49.6864C29.084 49.6864 31.334 48.9364 31.334 48.0197C31.334 47.853 31.2507 47.7697 31.1673 47.603C30.584 48.353 28.6673 48.853 26.334 48.853ZM26.334 51.353C24.0007 51.353 22.084 50.853 21.5007 50.103C21.4173 50.2697 21.334 50.353 21.334 50.5197C21.334 51.4364 23.584 52.1864 26.334 52.1864C29.084 52.1864 31.334 51.4364 31.334 50.5197C31.334 50.353 31.2507 50.2697 31.1673 50.103C30.584 50.853 28.6673 51.353 26.334 51.353Z" fill="#FFC107"/>
<path d="M38 42.1862C35.25 42.1862 33 41.4362 33 40.5195V42.1862C33 43.1029 35.25 43.8529 38 43.8529C40.75 43.8529 43 43.1029 43 42.1862V40.5195C43 41.4362 40.75 42.1862 38 42.1862Z" fill="#FFA000"/>
<path d="M38 39.6862C35.25 39.6862 33 38.9362 33 38.0195V39.6862C33 40.6029 35.25 41.3529 38 41.3529C40.75 41.3529 43 40.6029 43 39.6862V38.0195C43 38.9362 40.75 39.6862 38 39.6862ZM38 44.6862C35.25 44.6862 33 43.9362 33 43.0195V44.6862C33 45.6029 35.25 46.3529 38 46.3529C40.75 46.3529 43 45.6029 43 44.6862V43.0195C43 43.9362 40.75 44.6862 38 44.6862Z" fill="#FFA000"/>
<path d="M38 47.1862C35.25 47.1862 33 46.4362 33 45.5195V47.1862C33 48.1029 35.25 48.8529 38 48.8529C40.75 48.8529 43 48.1029 43 47.1862V45.5195C43 46.4362 40.75 47.1862 38 47.1862Z" fill="#FFA000"/>
<path d="M38 49.6862C35.25 49.6862 33 48.9362 33 48.0195V49.6862C33 50.6029 35.25 51.3529 38 51.3529C40.75 51.3529 43 50.6029 43 49.6862V48.0195C43 48.9362 40.75 49.6862 38 49.6862Z" fill="#FFA000"/>
<path d="M38 52.1862C35.25 52.1862 33 51.4362 33 50.5195V52.1862C33 53.1029 35.25 53.8529 38 53.8529C40.75 53.8529 43 53.1029 43 52.1862V50.5195C43 51.4362 40.75 52.1862 38 52.1862Z" fill="#FFA000"/>
<path d="M38 39.6864C40.7614 39.6864 43 38.9402 43 38.0197C43 37.0992 40.7614 36.353 38 36.353C35.2386 36.353 33 37.0992 33 38.0197C33 38.9402 35.2386 39.6864 38 39.6864Z" fill="#FFC107"/>
<path d="M38 41.353C35.6667 41.353 33.75 40.853 33.1667 40.103C33.0833 40.2697 33 40.353 33 40.5197C33 41.4364 35.25 42.1864 38 42.1864C40.75 42.1864 43 41.4364 43 40.5197C43 40.353 42.9167 40.2697 42.8333 40.103C42.25 40.853 40.3333 41.353 38 41.353ZM38 43.853C35.6667 43.853 33.75 43.353 33.1667 42.603C33.0833 42.7697 33 42.853 33 43.0197C33 43.9364 35.25 44.6864 38 44.6864C40.75 44.6864 43 43.9364 43 43.0197C43 42.853 42.9167 42.7697 42.8333 42.603C42.25 43.353 40.3333 43.853 38 43.853ZM38 46.353C35.6667 46.353 33.75 45.853 33.1667 45.103C33.0833 45.2697 33 45.353 33 45.5197C33 46.4364 35.25 47.1864 38 47.1864C40.75 47.1864 43 46.4364 43 45.5197C43 45.353 42.9167 45.2697 42.8333 45.103C42.25 45.853 40.3333 46.353 38 46.353ZM38 48.853C35.6667 48.853 33.75 48.353 33.1667 47.603C33.0833 47.7697 33 47.853 33 48.0197C33 48.9364 35.25 49.6864 38 49.6864C40.75 49.6864 43 48.9364 43 48.0197C43 47.853 42.9167 47.7697 42.8333 47.603C42.25 48.353 40.3333 48.853 38 48.853ZM38 51.353C35.6667 51.353 33.75 50.853 33.1667 50.103C33.0833 50.2697 33 50.353 33 50.5197C33 51.4364 35.25 52.1864 38 52.1864C40.75 52.1864 43 51.4364 43 50.5197C43 50.353 42.9167 50.2697 42.8333 50.103C42.25 50.853 40.3333 51.353 38 51.353Z" fill="#FFC107"/>
</svg>
