<svg width="145" height="12" viewBox="0 0 145 12" fill="none" xmlns="http://www.w3.org/2000/svg">
<path d="M16.4158 7.864L14.9278 8.712V0.759999H18.9278V11H14.9278L2.87981 4.024L4.36781 3.16V11H0.36781V0.759999H4.36781L16.4158 7.864ZM23.1487 9.448V7.048H34.0927V9.448H23.1487ZM19.5647 11L26.4287 0.759999H30.8767L37.8047 11H33.4047L27.4687 1.832H29.8527L23.9647 11H19.5647ZM51.1512 9.784H48.7512L57.4872 0.759999H61.4872V11H57.4872V4.024L58.6872 4.52L52.3672 11H47.5672L41.2312 4.536L42.4472 4.04V11H38.4472V0.759999H42.4472L51.1512 9.784ZM67.0884 6.68V7.96H79.2484V11H63.0884V0.759999H79.2164V3.8H67.0884V5.08H77.0084V6.68H67.0884ZM84.6828 0.759999V7.96H94.0108V11H80.6828V0.759999H84.6828ZM99.1366 6.68V7.96H111.297V11H95.1366V0.759999H111.265V3.8H99.1366V5.08H109.057V6.68H99.1366ZM112.171 7.24H116.539C116.614 7.464 116.832 7.656 117.195 7.816C117.558 7.96533 118.043 8.08267 118.651 8.168C119.27 8.24267 119.984 8.28 120.795 8.28C121.595 8.28 122.224 8.25867 122.683 8.216C123.152 8.16267 123.483 8.07733 123.675 7.96C123.867 7.832 123.963 7.66133 123.963 7.448C123.963 7.24533 123.808 7.09067 123.499 6.984C123.19 6.86667 122.64 6.78667 121.851 6.744C121.062 6.70133 119.952 6.68 118.523 6.68C117.456 6.68 116.534 6.632 115.755 6.536C114.987 6.42933 114.352 6.26933 113.851 6.056C113.36 5.832 112.998 5.55467 112.763 5.224C112.528 4.88267 112.411 4.47733 112.411 4.008C112.411 3.19733 112.683 2.53067 113.227 2.008C113.782 1.47467 114.614 1.08 115.723 0.823999C116.843 0.557333 118.24 0.424 119.915 0.424C122.368 0.424 124.24 0.781333 125.531 1.496C126.832 2.2 127.483 3.21867 127.483 4.552H123.339C123.286 4.2 122.955 3.93333 122.347 3.752C121.739 3.56 120.875 3.464 119.755 3.464C118.646 3.464 117.819 3.528 117.275 3.656C116.742 3.784 116.475 4.00267 116.475 4.312C116.475 4.472 116.55 4.6 116.699 4.696C116.848 4.792 117.104 4.872 117.467 4.936C117.84 4.98933 118.363 5.02667 119.035 5.048C119.707 5.06933 120.56 5.08 121.595 5.08C122.736 5.08 123.707 5.13867 124.507 5.256C125.307 5.36267 125.952 5.528 126.443 5.752C126.944 5.976 127.307 6.264 127.531 6.616C127.755 6.95733 127.867 7.36267 127.867 7.832C127.867 8.64267 127.611 9.304 127.099 9.816C126.587 10.328 125.776 10.7067 124.667 10.952C123.558 11.1973 122.107 11.32 120.315 11.32C119.302 11.32 118.368 11.2613 117.515 11.144C116.672 11.0267 115.92 10.856 115.259 10.632C114.598 10.3973 114.038 10.1147 113.579 9.784C113.12 9.44267 112.768 9.064 112.523 8.648C112.288 8.22133 112.171 7.752 112.171 7.24ZM128.422 7.24H132.79C132.864 7.464 133.083 7.656 133.446 7.816C133.808 7.96533 134.294 8.08267 134.902 8.168C135.52 8.24267 136.235 8.28 137.046 8.28C137.846 8.28 138.475 8.25867 138.934 8.216C139.403 8.16267 139.734 8.07733 139.926 7.96C140.118 7.832 140.214 7.66133 140.214 7.448C140.214 7.24533 140.059 7.09067 139.75 6.984C139.44 6.86667 138.891 6.78667 138.102 6.744C137.312 6.70133 136.203 6.68 134.774 6.68C133.707 6.68 132.784 6.632 132.006 6.536C131.238 6.42933 130.603 6.26933 130.102 6.056C129.611 5.832 129.248 5.55467 129.014 5.224C128.779 4.88267 128.662 4.47733 128.662 4.008C128.662 3.19733 128.934 2.53067 129.478 2.008C130.032 1.47467 130.864 1.08 131.974 0.823999C133.094 0.557333 134.491 0.424 136.166 0.424C138.619 0.424 140.491 0.781333 141.782 1.496C143.083 2.2 143.734 3.21867 143.734 4.552H139.59C139.536 4.2 139.206 3.93333 138.598 3.752C137.99 3.56 137.126 3.464 136.006 3.464C134.896 3.464 134.07 3.528 133.526 3.656C132.992 3.784 132.726 4.00267 132.726 4.312C132.726 4.472 132.8 4.6 132.95 4.696C133.099 4.792 133.355 4.872 133.718 4.936C134.091 4.98933 134.614 5.02667 135.286 5.048C135.958 5.06933 136.811 5.08 137.846 5.08C138.987 5.08 139.958 5.13867 140.758 5.256C141.558 5.36267 142.203 5.528 142.694 5.752C143.195 5.976 143.558 6.264 143.782 6.616C144.006 6.95733 144.118 7.36267 144.118 7.832C144.118 8.64267 143.862 9.304 143.35 9.816C142.838 10.328 142.027 10.7067 140.918 10.952C139.808 11.1973 138.358 11.32 136.566 11.32C135.552 11.32 134.619 11.2613 133.766 11.144C132.923 11.0267 132.171 10.856 131.51 10.632C130.848 10.3973 130.288 10.1147 129.83 9.784C129.371 9.44267 129.019 9.064 128.774 8.648C128.539 8.22133 128.422 7.752 128.422 7.24Z" fill="white"/>
</svg>
