<svg width="75" height="76" viewBox="0 0 75 76" fill="none" xmlns="http://www.w3.org/2000/svg">
<rect y="0.853027" width="75" height="75" rx="12" fill="#1E242E"/>
<path d="M53.1875 39.728L52.4375 28.4155L47.25 31.603C44.6875 31.1655 44 31.1655 42 30.228C40.8125 29.6655 39.3125 30.0405 38.5625 30.478C37.4375 29.2905 30.125 31.0405 29.3125 31.4155C27.125 30.728 23.875 28.228 23.875 28.228L22.75 40.978L24.25 41.353C24.375 41.7905 24.75 42.853 24.75 42.853C23.375 44.603 25 46.6655 26.5625 45.978C25.875 47.728 27.6875 49.353 29.125 48.228C28.9375 49.853 30.625 51.0405 31.875 49.9155C31.3125 51.853 33.5 53.2905 34.8125 51.728C35.75 52.353 36.625 52.853 37.375 53.103C38.6875 53.6655 40.125 52.4155 39.875 50.853C41.375 52.603 43.625 50.9155 43.125 48.978C44.8125 50.2905 46.875 48.103 45.8125 46.1655C47.6875 47.228 49.3125 44.353 47.5 42.478L53.1875 39.728Z" fill="#FFDD67"/>
<path d="M26.6875 41.5405C27.625 41.978 28.25 43.4155 27.25 44.6655L26.8125 45.1655C26.3125 45.7905 25.8125 45.978 25.3125 45.978C25.6875 46.1655 26.125 46.1655 26.5625 45.978C26.625 45.7905 26.75 45.5405 26.9375 45.353L27.375 44.853C27.625 44.5405 27.9375 44.2905 28.1875 44.1655C28.6875 42.853 27.8125 41.603 26.6875 41.5405ZM33.8125 47.728C34.8125 47.978 35.5625 49.2905 34.8125 50.728L34.4375 51.2905C34.0625 51.978 33.5625 52.2905 33.0625 52.353C33.75 52.5405 34.5 52.2905 35 51.353L35.375 50.7905C36.3125 49.0405 35.125 47.603 33.8125 47.728ZM29.4375 47.228L30.4375 45.6655C30.375 44.7905 29.625 44.0405 28.875 43.978C29.8125 44.4155 30.4375 45.853 29.4375 47.103L29 47.603C28.5 48.228 28 48.4155 27.4375 48.4155C27.9375 48.6655 28.5 48.603 29.0625 48.228C29.125 47.9155 29.25 47.5405 29.4375 47.228ZM32.125 44.4155C33.125 44.728 33.8125 46.103 32.9375 47.478L31.75 49.353C31.3125 50.0405 30.8125 50.2905 30.3125 50.2905C30.9375 50.478 31.75 50.2905 32.3125 49.4155L33.5 47.5405C34.5 45.9155 33.375 44.353 32.125 44.4155ZM40.4375 45.978C40.5 45.978 41.25 45.853 41.5 45.853C40.5625 44.9155 39.0625 45.6655 38.1875 45.1655C38.8125 46.228 40.125 45.978 40.25 45.978L41.75 47.9155C43 49.478 42 51.2905 40.6875 51.478C42.0625 51.9155 43.4375 50.478 43 48.9155C42.9375 48.853 40.4375 45.978 40.4375 45.978ZM41.9375 42.353C41.9375 42.353 42.875 42.1655 43.6875 42.1655C42.75 41.4155 41.3125 42.103 40.375 41.478C40.75 42.2905 41.5625 42.2905 41.8125 42.353L44.6875 45.6655C46 47.1655 45.0625 48.978 43.75 49.2905C45.25 49.728 46.6875 47.7905 45.75 46.103C45.125 45.853 41.9375 42.353 41.9375 42.353Z" fill="#EBA352"/>
<path d="M39.9375 49.5396C39 48.7896 37.6875 49.3521 37.125 48.9771C37.4375 49.8521 38.625 49.6646 38.6875 49.6646C39.75 51.2896 38.625 52.9771 37.3125 53.1021C38.625 53.6646 40.0625 52.4146 39.8125 50.8521C39.75 50.7896 38.875 49.6646 38.875 49.6646C39 49.6021 39.6875 49.5396 39.9375 49.5396ZM52.5 38.6646C52.5 38.6646 51.4375 40.8521 47.3125 42.0396C46.75 41.352 45.5625 39.977 44.1875 38.7895C45.0625 38.602 45.5 37.9145 46.1875 37.7895C45.9375 37.5395 45.0625 37.6646 44.375 37.9146C43.125 38.3521 40.25 36.3521 40.25 36.3521L37.875 36.6646C36.1875 38.2896 32.5625 39.1646 32.375 36.6646C32.25 34.9146 36.0625 33.7271 37.25 32.6021C38.75 31.1646 40.0625 29.3521 42.5 30.6021C44.5 31.6021 45.3125 31.5396 48.0625 32.0396C49 32.2271 49.625 32.6646 50.3125 33.6021C49.75 32.2896 48.9375 31.7271 47.9375 31.5396L52.3125 29.4771L52.375 28.4146L47.1875 31.3521C44.8125 30.9771 43.9375 30.9771 42 30.0396C40.75 29.4146 39.75 29.6021 38.9375 30.1021C37.4375 29.2271 36.5625 29.4146 36 29.5396C34.25 30.1021 31.4375 30.1646 28.9375 31.1646C29.375 31.2896 29.8125 31.4146 30.125 31.4146C32.5625 30.6646 35.125 30.7271 36.3125 30.2896C36.6875 30.1646 37.4375 30.1646 38.25 30.6021C37.75 31.0396 37.3125 31.5396 36.8125 32.0396C35.625 33.1646 32 34.7896 32.25 36.852C32.375 37.852 33.75 40.4771 38.3125 37.5396L40.25 37.2896C40.25 37.2896 43.8125 38.9771 47.125 42.8521C48.4375 44.3521 47.625 45.9771 46.3125 46.3521C48 46.6646 49.4375 44.2895 47.8125 42.6646L51.75 40.5396L52.5 38.6646Z" fill="#EBA352"/>
<path d="M51.3752 29.04L53.4377 39.7275L51.7502 40.4775C50.8752 38.165 49.5627 32.6025 49.8752 29.915L51.3752 29.04Z" fill="#3B946F"/>
<path d="M24.9375 42.603C24.625 41.853 24.4375 40.853 24.4375 40.853L22.875 39.7905L22.75 40.978L24.125 41.353C24.3125 41.978 24.5 42.478 24.75 42.853L24.9375 42.603Z" fill="#EBA352"/>
<path d="M21.8125 40.791L25.1875 29.1035L26.75 30.166C27 31.916 24.125 39.916 23.0625 41.1035L21.8125 40.791Z" fill="#3B946F"/>
<path d="M51.3125 28.978C50.8125 29.2905 52.625 40.103 53.375 39.7905C55.75 38.728 56.8125 38.4155 56.8125 38.4155V25.5405C56.75 25.5405 55.3125 26.603 51.3125 28.978ZM19.25 24.478V40.4155C19.25 40.4155 20.375 40.603 21.8125 40.9155C22.625 41.103 25.5625 29.353 25.375 29.1655C23.25 27.728 19.25 24.478 19.25 24.478Z" fill="#47B892"/>
</svg>
