<svg width="75" height="75" viewBox="0 0 75 75" fill="none" xmlns="http://www.w3.org/2000/svg">
<rect width="75" height="75" rx="12" fill="#1E242E"/>
<path d="M53.1875 38.875L52.4375 27.5625L47.25 30.75C44.6875 30.3125 44 30.3125 42 29.375C40.8125 28.8125 39.3125 29.1875 38.5625 29.625C37.4375 28.4375 30.125 30.1875 29.3125 30.5625C27.125 29.875 23.875 27.375 23.875 27.375L22.75 40.125L24.25 40.5C24.375 40.9375 24.75 42 24.75 42C23.375 43.75 25 45.8125 26.5625 45.125C25.875 46.875 27.6875 48.5 29.125 47.375C28.9375 49 30.625 50.1875 31.875 49.0625C31.3125 51 33.5 52.4375 34.8125 50.875C35.75 51.5 36.625 52 37.375 52.25C38.6875 52.8125 40.125 51.5625 39.875 50C41.375 51.75 43.625 50.0625 43.125 48.125C44.8125 49.4375 46.875 47.25 45.8125 45.3125C47.6875 46.375 49.3125 43.5 47.5 41.625L53.1875 38.875Z" fill="#FFDD67"/>
<path d="M26.6875 40.6875C27.625 41.125 28.25 42.5625 27.25 43.8125L26.8125 44.3125C26.3125 44.9375 25.8125 45.125 25.3125 45.125C25.6875 45.3125 26.125 45.3125 26.5625 45.125C26.625 44.9375 26.75 44.6875 26.9375 44.5L27.375 44C27.625 43.6875 27.9375 43.4375 28.1875 43.3125C28.6875 42 27.8125 40.75 26.6875 40.6875ZM33.8125 46.875C34.8125 47.125 35.5625 48.4375 34.8125 49.875L34.4375 50.4375C34.0625 51.125 33.5625 51.4375 33.0625 51.5C33.75 51.6875 34.5 51.4375 35 50.5L35.375 49.9375C36.3125 48.1875 35.125 46.75 33.8125 46.875ZM29.4375 46.375L30.4375 44.8125C30.375 43.9375 29.625 43.1875 28.875 43.125C29.8125 43.5625 30.4375 45 29.4375 46.25L29 46.75C28.5 47.375 28 47.5625 27.4375 47.5625C27.9375 47.8125 28.5 47.75 29.0625 47.375C29.125 47.0625 29.25 46.6875 29.4375 46.375ZM32.125 43.5625C33.125 43.875 33.8125 45.25 32.9375 46.625L31.75 48.5C31.3125 49.1875 30.8125 49.4375 30.3125 49.4375C30.9375 49.625 31.75 49.4375 32.3125 48.5625L33.5 46.6875C34.5 45.0625 33.375 43.5 32.125 43.5625ZM40.4375 45.125C40.5 45.125 41.25 45 41.5 45C40.5625 44.0625 39.0625 44.8125 38.1875 44.3125C38.8125 45.375 40.125 45.125 40.25 45.125L41.75 47.0625C43 48.625 42 50.4375 40.6875 50.625C42.0625 51.0625 43.4375 49.625 43 48.0625C42.9375 48 40.4375 45.125 40.4375 45.125ZM41.9375 41.5C41.9375 41.5 42.875 41.3125 43.6875 41.3125C42.75 40.5625 41.3125 41.25 40.375 40.625C40.75 41.4375 41.5625 41.4375 41.8125 41.5L44.6875 44.8125C46 46.3125 45.0625 48.125 43.75 48.4375C45.25 48.875 46.6875 46.9375 45.75 45.25C45.125 45 41.9375 41.5 41.9375 41.5Z" fill="#EBA352"/>
<path d="M39.9375 48.6865C39 47.9365 37.6875 48.499 37.125 48.124C37.4375 48.999 38.625 48.8115 38.6875 48.8115C39.75 50.4365 38.625 52.124 37.3125 52.249C38.625 52.8115 40.0625 51.5615 39.8125 49.999C39.75 49.9365 38.875 48.8115 38.875 48.8115C39 48.749 39.6875 48.6865 39.9375 48.6865ZM52.5 37.8115C52.5 37.8115 51.4375 39.999 47.3125 41.1865C46.75 40.499 45.5625 39.124 44.1875 37.9365C45.0625 37.749 45.5 37.0615 46.1875 36.9365C45.9375 36.6865 45.0625 36.8115 44.375 37.0615C43.125 37.499 40.25 35.499 40.25 35.499L37.875 35.8115C36.1875 37.4365 32.5625 38.3115 32.375 35.8115C32.25 34.0615 36.0625 32.874 37.25 31.749C38.75 30.3115 40.0625 28.499 42.5 29.749C44.5 30.749 45.3125 30.6865 48.0625 31.1865C49 31.374 49.625 31.8115 50.3125 32.749C49.75 31.4365 48.9375 30.874 47.9375 30.6865L52.3125 28.624L52.375 27.5615L47.1875 30.499C44.8125 30.124 43.9375 30.124 42 29.1865C40.75 28.5615 39.75 28.749 38.9375 29.249C37.4375 28.374 36.5625 28.5615 36 28.6865C34.25 29.249 31.4375 29.3115 28.9375 30.3115C29.375 30.4365 29.8125 30.5615 30.125 30.5615C32.5625 29.8115 35.125 29.874 36.3125 29.4365C36.6875 29.3115 37.4375 29.3115 38.25 29.749C37.75 30.1865 37.3125 30.6865 36.8125 31.1865C35.625 32.3115 32 33.9365 32.25 35.999C32.375 36.999 33.75 39.624 38.3125 36.6865L40.25 36.4365C40.25 36.4365 43.8125 38.124 47.125 41.999C48.4375 43.499 47.625 45.124 46.3125 45.499C48 45.8115 49.4375 43.4365 47.8125 41.8115L51.75 39.6865L52.5 37.8115Z" fill="#EBA352"/>
<path d="M51.3752 28.187L53.4377 38.8745L51.7502 39.6245C50.8752 37.312 49.5627 31.7495 49.8752 29.062L51.3752 28.187Z" fill="#3B946F"/>
<path d="M24.9375 41.75C24.625 41 24.4375 40 24.4375 40L22.875 38.9375L22.75 40.125L24.125 40.5C24.3125 41.125 24.5 41.625 24.75 42L24.9375 41.75Z" fill="#EBA352"/>
<path d="M21.8125 39.938L25.1875 28.2505L26.75 29.313C27 31.063 24.125 39.063 23.0625 40.2505L21.8125 39.938Z" fill="#3B946F"/>
<path d="M51.3125 28.125C50.8125 28.4375 52.625 39.25 53.375 38.9375C55.75 37.875 56.8125 37.5625 56.8125 37.5625V24.6875C56.75 24.6875 55.3125 25.75 51.3125 28.125ZM19.25 23.625V39.5625C19.25 39.5625 20.375 39.75 21.8125 40.0625C22.625 40.25 25.5625 28.5 25.375 28.3125C23.25 26.875 19.25 23.625 19.25 23.625Z" fill="#47B892"/>
</svg>
