<svg width="1134" height="612" viewBox="0 0 1134 612" fill="none" xmlns="http://www.w3.org/2000/svg">
<g opacity="0.34">
<path d="M238.34 0L-1203.44 612" stroke="#225862"/>
<path d="M289.342 0L-612.317 612" stroke="#225862"/>
<path d="M340.34 0L-264.58 612" stroke="#225862"/>
<path d="M391.34 0L-13.7341 612" stroke="#225862"/>
<path d="M442.342 0L190.926 612" stroke="#225862"/>
<path d="M493.342 0L372.532 612" stroke="#225862"/>
<path d="M544.34 0V612" stroke="#225862"/>
<path d="M595.342 0L716.151 612" stroke="#225862"/>
<path d="M646.342 0L897.757 612" stroke="#225862"/>
<path d="M697.34 0L1102.41 612" stroke="#225862"/>
<path d="M748.342 0L1353.26 612" stroke="#225862"/>
<path d="M799.342 0L1701 612" stroke="#225862"/>
<path d="M850.34 0L2292.12 612" stroke="#225862"/>
<path d="M238.34 0H850.34" stroke="#133237"/>
<path d="M238.34 0H850.34" stroke="#133237"/>
<path d="M238.34 0H850.34" stroke="#133237"/>
<path d="M238.34 0H850.34" stroke="#133237"/>
<path d="M238.34 0H850.34" stroke="#133237"/>
<path d="M238.34 0H850.34" stroke="#133237"/>
<path d="M238.34 0H850.34" stroke="#133237"/>
<path d="M238.34 0H850.34" stroke="#133237"/>
<path d="M238.34 0H850.341" stroke="#133237"/>
<path d="M238.34 0H850.342" stroke="#133237"/>
<path d="M238.338 0.000732422H850.342" stroke="#133237"/>
<path d="M238.336 0.00146484H850.345" stroke="#133237"/>
<path d="M238.332 0.00372314H850.35" stroke="#133237"/>
<path d="M238.324 0.00671387H850.357" stroke="#133237"/>
<path d="M238.312 0.0119629H850.371" stroke="#133237"/>
<path d="M238.291 0.0209351H850.39" stroke="#133237"/>
<path d="M238.26 0.0343628H850.422" stroke="#133237"/>
<path d="M238.211 0.0545654H850.47" stroke="#133237"/>
<path d="M238.139 0.085144H850.542" stroke="#133237"/>
<path d="M238.035 0.129272H850.646" stroke="#133237"/>
<path d="M237.887 0.192017H850.794" stroke="#133237"/>
<path d="M237.68 0.280151H851" stroke="#133237"/>
<path d="M237.396 0.400452H851.286" stroke="#133237"/>
<path d="M237.01 0.564026H851.67" stroke="#133237"/>
<path d="M236.494 0.783691H852.187" stroke="#133237"/>
<path d="M235.812 1.07281H852.869" stroke="#133237"/>
<path d="M234.922 1.45081H853.761" stroke="#133237"/>
<path d="M233.768 1.94092H854.913" stroke="#133237"/>
<path d="M232.291 2.56769H856.392" stroke="#133237"/>
<path d="M230.414 3.36481H858.269" stroke="#133237"/>
<path d="M228.049 4.36816H860.633" stroke="#133237"/>
<path d="M225.094 5.62317H863.59" stroke="#133237"/>
<path d="M221.424 7.18011H867.257" stroke="#133237"/>
<path d="M216.9 9.10004H871.78" stroke="#133237"/>
<path d="M211.359 11.4526H877.32" stroke="#133237"/>
<path d="M204.613 14.3161H884.069" stroke="#133237"/>
<path d="M196.443 17.784H892.239" stroke="#133237"/>
<path d="M186.602 21.9616H902.079" stroke="#225862"/>
<path d="M174.809 26.9678H913.874" stroke="#225862"/>
<path d="M160.74 32.9391H927.94" stroke="#225862"/>
<path d="M144.037 40.0287H944.643" stroke="#225862"/>
<path d="M124.289 48.4116H964.391" stroke="#225862"/>
<path d="M101.037 58.2819H987.645" stroke="#225862"/>
<path d="M73.7637 69.8585H1014.92" stroke="#225862"/>
<path d="M41.8926 83.3872H1046.79" stroke="#225862"/>
<path d="M4.7793 99.1399H1083.9" stroke="#225862"/>
<path d="M-38.2891 117.422H1126.97" stroke="#225862"/>
<path d="M-88.1094 138.57H1176.79" stroke="#225862"/>
<path d="M-145.561 162.956H1234.24" stroke="#225862"/>
<path d="M-211.619 190.996H1300.3" stroke="#225862"/>
<path d="M-287.352 223.143H1376.03" stroke="#225862"/>
<path d="M-373.943 259.899H1462.63" stroke="#225862"/>
<path d="M-472.691 301.815H1561.37" stroke="#225862"/>
<path d="M-585.014 349.493H1673.7" stroke="#225862"/>
<path d="M-712.473 403.596H1801.15" stroke="#225862"/>
<path d="M-856.764 464.844H1945.45" stroke="#225862"/>
<path d="M-1019.75 534.026H2108.43" stroke="#225862"/>
<path d="M-1203.44 612H2292.12" stroke="#225862"/>
</g>
</svg>
