<svg width="40" height="41" viewBox="0 0 40 41" fill="none" xmlns="http://www.w3.org/2000/svg">
<rect y="0.0185547" width="40" height="40" rx="10" fill="white"/>
<g clip-path="url(#clip0_371_7190)">
<g clip-path="url(#clip1_371_7190)">
<g clip-path="url(#clip2_371_7190)">
<mask id="mask0_371_7190" style="mask-type:luminance" maskUnits="userSpaceOnUse" x="8" y="8" width="24" height="25">
<path d="M8 8.01855H32V32.0186H8V8.01855Z" fill="white"/>
</mask>
<g mask="url(#mask0_371_7190)">
<path d="M12.25 8.31836H27.75C30.1 8.31836 32 10.2184 32 12.5684V27.4684C32 29.8184 30.1 31.7184 27.75 31.7184H12.25C9.9 31.7184 8 29.8184 8 27.4684V12.5684C8 10.2184 9.9 8.31836 12.25 8.31836Z" fill="#001834"/>
<path d="M13.4004 24.7286V14.4386C13.4004 14.3686 13.4304 14.3286 13.5004 14.3286C13.6704 14.3286 13.8304 14.3286 14.0604 14.3186C14.3004 14.3086 14.5504 14.3086 14.8204 14.2986C15.0904 14.2886 15.3804 14.2886 15.6904 14.2786C16.0004 14.2686 16.3004 14.2686 16.6004 14.2686C17.4204 14.2686 18.1004 14.3686 18.6604 14.5786C19.1604 14.7486 19.6204 15.0286 20.0004 15.3986C20.3204 15.7186 20.5704 16.1086 20.7304 16.5386C20.8804 16.9586 20.9604 17.3886 20.9604 17.8386C20.9604 18.6986 20.7604 19.4086 20.3604 19.9686C19.9604 20.5286 19.4004 20.9486 18.7504 21.1886C18.0704 21.4386 17.3204 21.5286 16.5004 21.5286C16.2604 21.5286 16.1004 21.5286 16.0004 21.5186C15.9004 21.5086 15.7604 21.5086 15.5704 21.5086V24.7186C15.5804 24.7886 15.5304 24.8486 15.4604 24.8586H13.5204C13.4404 24.8586 13.4004 24.8186 13.4004 24.7286ZM15.5804 16.2586V19.6186C15.7204 19.6286 15.8504 19.6386 15.9704 19.6386H16.5004C17.1904 19.6386 17.9884 19.4766 18.4704 18.9286C18.8854 18.4576 18.8864 17.5226 18.5504 17.0086C18.1514 16.3986 17.3544 16.2216 16.6704 16.2386C16.4104 16.2386 16.1804 16.2386 15.9904 16.2486C15.7904 16.2386 15.6504 16.2486 15.5804 16.2586Z" fill="#00A9FF"/>
<path d="M27.2006 19.0085C26.9006 18.8485 26.5806 18.7385 26.2406 18.6685C25.8706 18.5885 25.5006 18.5385 25.1206 18.5385C24.9206 18.5285 24.7106 18.5585 24.5206 18.6085C24.3906 18.6385 24.2806 18.7085 24.2106 18.8085C24.16 18.8897 24.1324 18.983 24.1306 19.0785C24.1306 19.1685 24.1706 19.2585 24.2306 19.3385C24.3206 19.4485 24.4406 19.5385 24.5706 19.6085C24.8006 19.7285 25.0406 19.8385 25.2806 19.9385C25.8206 20.1185 26.3406 20.3685 26.8206 20.6685C27.1506 20.8785 27.4206 21.1585 27.6106 21.4985C27.7706 21.8185 27.8506 22.1685 27.8406 22.5285C27.8506 22.9985 27.7106 23.4685 27.4506 23.8585C27.1706 24.2585 26.7806 24.5685 26.3306 24.7485C25.8406 24.9585 25.2406 25.0685 24.5206 25.0685C24.0606 25.0685 23.6106 25.0285 23.1606 24.9385C22.8106 24.8785 22.4606 24.7685 22.1406 24.6185C22.0706 24.5785 22.0206 24.5085 22.0306 24.4285V22.6885C22.0306 22.6585 22.0406 22.6185 22.0706 22.5985C22.1006 22.5785 22.1306 22.5885 22.1606 22.6085C22.5506 22.8385 22.9606 22.9985 23.4006 23.0985C23.7806 23.1985 24.1806 23.2485 24.5806 23.2485C24.9606 23.2485 25.2306 23.1985 25.4106 23.1085C25.5706 23.0385 25.6806 22.8685 25.6806 22.6885C25.6806 22.5485 25.6006 22.4185 25.4406 22.2885C25.2806 22.1585 24.9506 22.0085 24.4606 21.8185C23.9506 21.6385 23.4806 21.3985 23.0406 21.0985C22.7272 20.8752 22.4676 20.5848 22.2806 20.2485C22.1206 19.9285 22.0406 19.5785 22.0506 19.2285C22.0506 18.7985 22.1706 18.3885 22.3906 18.0185C22.6406 17.6185 23.0106 17.2985 23.4406 17.0985C23.9106 16.8585 24.5006 16.7485 25.2106 16.7485C25.6206 16.7485 26.0406 16.7785 26.4506 16.8385C26.7506 16.8785 27.0406 16.9585 27.3106 17.0685C27.3506 17.0785 27.3906 17.1185 27.4106 17.1585C27.4206 17.1985 27.4306 17.2385 27.4306 17.2785V18.9085C27.4306 18.9485 27.4106 18.9885 27.3806 19.0085C27.2906 19.0285 27.2406 19.0285 27.2006 19.0085Z" fill="#00A9FF"/>
</g>
</g>
</g>
</g>
<defs>
<clipPath id="clip0_371_7190">
<rect width="24" height="24" fill="white" transform="translate(8 8.01855)"/>
</clipPath>
<clipPath id="clip1_371_7190">
<rect width="24" height="24" fill="white" transform="translate(8 8.01855)"/>
</clipPath>
<clipPath id="clip2_371_7190">
<rect width="24" height="24" fill="white" transform="translate(8 8.01855)"/>
</clipPath>
</defs>
</svg>
