<svg width="75" height="76" viewBox="0 0 75 76" fill="none" xmlns="http://www.w3.org/2000/svg">
<rect y="0.853027" width="75" height="75" rx="12" fill="#1E242E"/>
<path d="M55.647 29.8948C55.0674 29.2249 53.6209 28.1312 52.7185 27.3683C51.7916 26.5862 49.8037 25.0878 49.1994 24.8444C46.7412 23.8546 45.6338 23.5155 43.2631 22.8647C43.2631 22.8647 40.9853 23.4226 38.4998 23.4226C36.0142 23.4226 33.7365 22.8647 33.7365 22.8647C31.3631 23.5155 30.2584 23.8573 27.8002 24.8444C27.1931 25.0878 25.2052 26.5862 24.281 27.3683C23.3787 28.1312 21.9295 29.2249 21.3525 29.8948C21.2951 29.9577 21.265 30.212 21.2677 30.4663C21.306 31.9155 22.0717 32.714 23.0506 34.2261C24.1088 35.8612 24.8635 36.6706 25.6728 37.294C25.815 37.4144 26.1787 37.3351 26.4357 37.1327C27.3025 36.4464 27.6279 36.0089 28.1939 35.7327C28.1967 35.7327 28.6478 35.514 28.7955 35.6862C28.9951 35.9214 28.8857 36.6679 28.6369 39.6292C28.6369 39.6292 28.4646 43.5585 28.3416 44.8464C28.2021 46.2901 28.2076 47.7476 28.1228 49.2077C28.0517 50.4519 28.0107 51.7233 27.9752 52.8855C27.9752 52.9948 28.0845 53.1562 28.1174 53.2163C28.9076 54.6601 30.5127 55.1386 32.1287 55.4394C34.2177 55.8276 36.3615 56.0218 38.5052 56.0218C40.649 56.0218 42.79 55.8276 44.8818 55.4394C46.4951 55.1386 48.1002 54.6628 48.8931 53.2163C48.926 53.1562 49.0353 52.9948 49.0353 52.8855C48.9998 51.7233 48.9588 50.4519 48.8877 49.2077C48.8056 47.7476 48.8111 46.2874 48.6689 44.8464C48.5459 43.5585 48.3736 39.6292 48.3736 39.6292C48.122 36.6679 48.0154 35.9214 48.215 35.6862C48.3599 35.5167 48.8138 35.7327 48.8166 35.7327C49.3826 36.0089 49.7053 36.4464 50.5748 37.1327C50.8318 37.3351 51.1955 37.4171 51.3377 37.294C52.147 36.6706 52.899 35.8612 53.9599 34.2261C54.9388 32.714 55.7045 31.9155 55.7427 30.4663C55.7373 30.212 55.7072 29.9577 55.647 29.8948Z" fill="#C5E1A5"/>
<path d="M33.9207 23.5781C37.0105 24.3547 40.1797 24.3629 43.2695 23.6C43.2012 24.177 43.0344 24.7293 42.7883 25.1805C42.4164 25.8695 41.8832 26.3125 41.3391 26.6379C39.7914 27.5621 38.066 27.6551 36.4391 27.1547C36.0234 27.0262 35.6078 26.8594 35.2277 26.575C34.6234 26.1238 34.1148 25.3773 33.7949 24.4723C33.7457 24.3301 33.6992 24.1797 33.6992 24.0184C33.6992 23.857 33.7648 23.6875 33.866 23.6547" fill="#A0BA7B"/>
<path d="M33.7285 22.6597C33.7449 22.6816 33.816 22.955 33.8352 22.9824C33.9527 23.1437 33.8242 23.6222 33.9992 23.8355C34.3328 24.2347 36.5969 24.6394 38.5 24.6394V23.4226C37.1 23.4226 36.3809 23.3078 35.6645 23.1683C34.8988 23.0207 33.868 22.6543 33.7285 22.6597ZM43.2715 22.6597C43.2551 22.6816 43.184 22.955 43.1648 22.9824C43.0473 23.1437 43.1758 23.6222 43.0008 23.8355C42.6672 24.2347 40.4031 24.6394 38.5 24.6394V23.4226C39.9 23.4226 40.6191 23.3078 41.3355 23.1683C42.1012 23.0207 43.132 22.6543 43.2715 22.6597Z" fill="#004D40"/>
<path d="M38.4998 27.1165C35.5385 27.1165 34.0209 24.4668 33.9334 22.9602C33.9088 22.5172 33.6709 22.6567 33.1159 22.7961C32.6538 22.911 32.6073 22.9219 32.6674 23.3676C32.9627 25.5633 35.0354 28.4672 38.4998 28.4672V27.1165ZM38.4998 27.1165C41.4612 27.1165 42.9788 24.4668 43.0663 22.9602C43.0909 22.5172 43.3288 22.6567 43.8838 22.7961C44.3459 22.911 44.3924 22.9219 44.3323 23.3676C44.037 25.5606 41.9643 28.4645 38.4998 28.4645V27.1165Z" fill="#00897B"/>
</svg>
