<svg width="48" height="48" viewBox="0 0 48 48" fill="none" xmlns="http://www.w3.org/2000/svg">
<rect width="48" height="48" rx="12" fill="#1E242E"/>
<path d="M29 33C28.7167 33 28.4793 32.904 28.288 32.712C28.0967 32.52 28.0007 32.2827 28 32V22C28 21.45 27.8043 20.9793 27.413 20.588C27.0217 20.1967 26.5507 20.0007 26 20H22.5C22.2167 20 21.9793 19.904 21.788 19.712C21.5967 19.52 21.5007 19.2827 21.5 19V16C21.5 15.7167 21.596 15.4793 21.788 15.288C21.98 15.0967 22.2173 15.0007 22.5 15H32C32.2833 15 32.521 15.096 32.713 15.288C32.905 15.48 33.0007 15.7173 33 16V32C33 32.2833 32.904 32.521 32.712 32.713C32.52 32.905 32.2827 33.0007 32 33H29ZM22.5 33C22.2167 33 21.9793 32.904 21.788 32.712C21.5967 32.52 21.5007 32.2827 21.5 32V23C21.5 22.7167 21.596 22.4793 21.788 22.288C21.98 22.0967 22.2173 22.0007 22.5 22H25C25.2833 22 25.521 22.096 25.713 22.288C25.905 22.48 26.0007 22.7173 26 23V32C26 32.2833 25.904 32.521 25.712 32.713C25.52 32.905 25.2827 33.0007 25 33H22.5ZM16 33C15.7167 33 15.4793 32.904 15.288 32.712C15.0967 32.52 15.0007 32.2827 15 32V23C15 22.7167 15.096 22.4793 15.288 22.288C15.48 22.0967 15.7173 22.0007 16 22H18.5C18.7833 22 19.021 22.096 19.213 22.288C19.405 22.48 19.5007 22.7173 19.5 23V32C19.5 32.2833 19.404 32.521 19.212 32.713C19.02 32.905 18.7827 33.0007 18.5 33H16Z" fill="white"/>
</svg>
