<svg width="75" height="76" viewBox="0 0 75 76" fill="none" xmlns="http://www.w3.org/2000/svg">
<rect y="0.353027" width="75" height="75" rx="12" fill="#1E242E"/>
<path d="M30.444 20.887C30.724 20.853 31.034 20.853 31.394 20.853H44.606C44.966 20.853 45.276 20.853 45.556 20.887C46.5499 21.0107 47.4742 21.4624 48.1824 22.1706C48.8906 22.8788 49.3423 23.8031 49.466 24.797L49.472 24.853H51.084C51.508 24.849 52.438 24.841 53.206 25.355C54.2 26.017 54.5 27.155 54.5 28.353C54.5 33.805 51.594 37.445 47.884 39.467C45.814 43.235 41.99 45.853 38 45.853C34.962 45.853 32.08 44.209 30.006 41.935C29.3169 41.1832 28.7119 40.3583 28.202 39.475C24.494 37.463 21.5 33.827 21.5 28.353C21.5 27.153 21.8 26.017 22.792 25.355C23.562 24.841 24.492 24.849 24.916 24.853H26.528L26.534 24.797C26.6577 23.8031 27.1094 22.8788 27.8176 22.1706C28.5258 21.4624 29.4501 21.0107 30.444 20.887ZM51.464 27.863C51.3095 27.8537 51.1547 27.8504 51 27.853H49.494L49.43 34.433C50.706 32.897 51.5 30.893 51.5 28.353C51.5 28.117 51.482 27.961 51.464 27.863ZM24.5 28.353C24.5 30.827 25.276 32.793 26.52 34.317C26.388 32.825 26.424 31.309 26.46 29.801C26.4787 29.1477 26.49 28.4984 26.494 27.853H25C24.782 27.853 24.644 27.853 24.538 27.863C24.5099 28.0248 24.4972 28.1889 24.5 28.353ZM38.46 27.463C38.4216 27.3728 38.3575 27.2959 38.2757 27.2419C38.1939 27.1878 38.098 27.159 38 27.159C37.902 27.159 37.8061 27.1878 37.7243 27.2419C37.6425 27.2959 37.5784 27.3728 37.54 27.463L36.53 29.887C36.4948 29.9716 36.4369 30.0449 36.3629 30.0989C36.2888 30.1528 36.2013 30.1854 36.11 30.193L33.492 30.403C33.3935 30.4108 33.2996 30.4476 33.222 30.5088C33.1444 30.5699 33.0867 30.6527 33.0561 30.7466C33.0255 30.8405 33.0234 30.9414 33.0501 31.0365C33.0767 31.1316 33.131 31.2167 33.206 31.281L35.2 32.989C35.2697 33.049 35.3215 33.127 35.3497 33.2145C35.378 33.302 35.3815 33.3956 35.36 33.485L34.752 36.037C34.7286 36.1333 34.7343 36.2344 34.7684 36.3275C34.8025 36.4205 34.8636 36.5014 34.9437 36.5597C35.0239 36.6179 35.1196 36.6511 35.2186 36.6549C35.3177 36.6587 35.4156 36.633 35.5 36.581L37.74 35.213C37.8183 35.1653 37.9083 35.1401 38 35.1401C38.0917 35.1401 38.1817 35.1653 38.26 35.213L40.5 36.581C40.5844 36.633 40.6823 36.6587 40.7814 36.6549C40.8804 36.6511 40.9761 36.6179 41.0563 36.5597C41.1364 36.5014 41.1975 36.4205 41.2316 36.3275C41.2657 36.2344 41.2714 36.1333 41.248 36.037L40.638 33.485C40.6165 33.3956 40.62 33.302 40.6483 33.2145C40.6765 33.127 40.7283 33.049 40.798 32.989L42.794 31.281C42.8697 31.2169 42.9246 31.1317 42.9517 31.0362C42.9788 30.9408 42.9769 30.8394 42.9462 30.7451C42.9155 30.6507 42.8575 30.5676 42.7795 30.5064C42.7014 30.4451 42.6069 30.4084 42.508 30.401L39.892 30.193C39.8003 30.1858 39.7124 30.1534 39.638 30.0994C39.5635 30.0454 39.5054 29.9719 39.47 29.887L38.46 27.463ZM38 46.853C38.3978 46.853 38.7794 47.0111 39.0607 47.2924C39.342 47.5737 39.5 47.9552 39.5 48.353V52.853H46C46.3978 52.853 46.7794 53.0111 47.0607 53.2924C47.342 53.5737 47.5 53.9552 47.5 54.353C47.5 54.7509 47.342 55.1324 47.0607 55.4137C46.7794 55.695 46.3978 55.853 46 55.853H30C29.6022 55.853 29.2206 55.695 28.9393 55.4137C28.658 55.1324 28.5 54.7509 28.5 54.353C28.5 53.9552 28.658 53.5737 28.9393 53.2924C29.2206 53.0111 29.6022 52.853 30 52.853H36.5V48.353C36.5 47.9552 36.658 47.5737 36.9393 47.2924C37.2206 47.0111 37.6022 46.853 38 46.853Z" fill="#5AC0EF"/>
</svg>
