<svg width="51" height="98" viewBox="0 0 51 98" fill="none" xmlns="http://www.w3.org/2000/svg">
<path d="M1.5 0.538086C0.947715 0.538086 0.5 0.985801 0.5 1.53809C0.5 2.09037 0.947715 2.53809 1.5 2.53809V0.538086ZM50.2071 91.0665C50.5976 90.676 50.5976 90.0428 50.2071 89.6523L43.8431 83.2883C43.4526 82.8978 42.8195 82.8978 42.4289 83.2883C42.0384 83.6788 42.0384 84.312 42.4289 84.7025L48.0858 90.3594L42.4289 96.0162C42.0384 96.4068 42.0384 97.0399 42.4289 97.4304C42.8195 97.821 43.4526 97.821 43.8431 97.4304L50.2071 91.0665ZM25.5 25.5381H24.5V66.3594H25.5H26.5V25.5381H25.5ZM25.5 66.3594H24.5C24.5 80.1665 35.6929 91.3594 49.5 91.3594V90.3594V89.3594C36.7975 89.3594 26.5 79.0619 26.5 66.3594H25.5ZM1.5 1.53809V2.53809C14.2025 2.53809 24.5 12.8355 24.5 25.5381H25.5H26.5C26.5 11.731 15.3071 0.538086 1.5 0.538086V1.53809Z" fill="#757575"/>
</svg>
