<svg width="57" height="57" viewBox="0 0 57 57" fill="none" xmlns="http://www.w3.org/2000/svg">
<rect y="0.268555" width="56.25" height="56.25" rx="9" fill="#1E242E"/>
<path d="M29.125 27.5186H37.25L41 31.2686V20.6436C41 19.2686 39.875 18.1436 38.5 18.1436H29.125C27.75 18.1436 26.625 19.2686 26.625 20.6436V25.0186C26.625 26.3936 27.75 27.5186 29.125 27.5186Z" fill="#1565C0"/>
<path d="M27.875 25.6436H19.75L16 29.3936V18.7686C16 17.3936 17.125 16.2686 18.5 16.2686H27.875C29.25 16.2686 30.375 17.3936 30.375 18.7686V23.1436C30.375 24.5186 29.25 25.6436 27.875 25.6436Z" fill="#2196F3"/>
<path d="M21 36.269C22.7259 36.269 24.125 34.8699 24.125 33.144C24.125 31.4182 22.7259 30.019 21 30.019C19.2741 30.019 17.875 31.4182 17.875 33.144C17.875 34.8699 19.2741 36.269 21 36.269Z" fill="#FFA726"/>
<path d="M36 36.269C37.7259 36.269 39.125 34.8699 39.125 33.144C39.125 31.4182 37.7259 30.019 36 30.019C34.2741 30.019 32.875 31.4182 32.875 33.144C32.875 34.8699 34.2741 36.269 36 36.269Z" fill="#FFA726"/>
<path d="M26 40.0186C26 40.0186 24.625 37.5186 21 37.5186C17.375 37.5186 16 40.0186 16 40.0186V41.2686H26V40.0186ZM41 40.0186C41 40.0186 39.625 37.5186 36 37.5186C32.375 37.5186 31 40.0186 31 40.0186V41.2686H41V40.0186Z" fill="#607D8B"/>
</svg>
