<svg width="57" height="57" viewBox="0 0 57 57" fill="none" xmlns="http://www.w3.org/2000/svg">
<rect y="0.0185547" width="56.25" height="56.25" rx="9" fill="#1E242E"/>
<g clip-path="url(#clip0_371_7217)">
<path d="M40.6566 21.7686H22.3519C21.9582 21.7685 21.5745 21.8923 21.2551 22.1225C20.9357 22.3527 20.6969 22.6775 20.5725 23.0511L17.25 33.0186V19.8936H39.75C39.75 19.3963 39.5525 18.9194 39.2008 18.5677C38.8492 18.2161 38.3723 18.0186 37.875 18.0186H27.6787C27.2402 18.0184 26.8156 17.8644 26.4787 17.5836L25.2712 16.5786C24.9344 16.2977 24.5098 16.1438 24.0712 16.1436H17.25C16.7527 16.1436 16.2758 16.3411 15.9242 16.6927C15.5725 17.0444 15.375 17.5213 15.375 18.0186V33.0186C15.375 33.5158 15.5725 33.9927 15.9242 34.3444C16.2758 34.696 16.7527 34.8936 17.25 34.8936H37.875L42.3797 24.3823C42.5019 24.0971 42.5515 23.7861 42.5239 23.477C42.4964 23.168 42.3926 22.8706 42.2218 22.6115C42.051 22.3525 41.8186 22.1399 41.5454 21.9927C41.2723 21.8456 40.9668 21.7686 40.6566 21.7686Z" fill="#039BE5"/>
<path d="M22.875 25.5186H28.5V38.6436H22.875V25.5186ZM30.375 33.0186H36V38.6436H30.375V33.0186ZM37.875 33.0186H43.5V38.6436H37.875V33.0186ZM30.375 25.5186H43.5V31.1436H30.375V25.5186Z" fill="#B3E5FC"/>
</g>
<defs>
<clipPath id="clip0_371_7217">
<rect width="30" height="30" fill="white" transform="translate(13.5 10.5186)"/>
</clipPath>
</defs>
</svg>
