<svg width="57" height="57" viewBox="0 0 57 57" fill="none" xmlns="http://www.w3.org/2000/svg">
<rect y="0.268555" width="56.25" height="56.25" rx="9" fill="#1E242E"/>
<g clip-path="url(#clip0_371_7234)">
<path d="M26.4788 17.8336L25.2712 16.8286C24.9344 16.5477 24.5098 16.3938 24.0712 16.3936H17.25C16.7527 16.3936 16.2758 16.5911 15.9242 16.9427C15.5725 17.2944 15.375 17.7713 15.375 18.2686V33.2686C15.375 33.7658 15.5725 34.2427 15.9242 34.5944C16.2758 34.946 16.7527 35.1436 17.25 35.1436H39.75C40.2473 35.1436 40.7242 34.946 41.0758 34.5944C41.4275 34.2427 41.625 33.7658 41.625 33.2686V20.1436C41.625 19.6463 41.4275 19.1694 41.0758 18.8177C40.7242 18.4661 40.2473 18.2686 39.75 18.2686H27.6788C27.2402 18.2684 26.8156 18.1144 26.4788 17.8336Z" fill="#039BE5"/>
<path d="M22.875 25.7686H28.5V38.8936H22.875V25.7686ZM30.375 33.2686H36V38.8936H30.375V33.2686ZM37.875 33.2686H43.5V38.8936H37.875V33.2686ZM30.375 25.7686H43.5V31.3936H30.375V25.7686Z" fill="#B3E5FC"/>
</g>
<defs>
<clipPath id="clip0_371_7234">
<rect width="30" height="30" fill="white" transform="translate(13.5 10.7686)"/>
</clipPath>
</defs>
</svg>
