<svg width="46" height="47" viewBox="0 0 46 47" fill="none" xmlns="http://www.w3.org/2000/svg">
<path d="M40.5702 27.5782L27.015 41.1334C26.6358 41.5126 26.2092 41.797 25.7353 41.9865C25.2613 42.1761 24.7874 42.2709 24.3134 42.2709C23.8395 42.2709 23.3655 42.1761 22.8915 41.9865C22.4176 41.797 21.991 41.5126 21.6118 41.1334L4.88112 24.4027C4.53355 24.0551 4.26497 23.6526 4.07539 23.195C3.88581 22.7375 3.79102 22.2553 3.79102 21.7485V8.14591C3.79102 7.10321 4.1626 6.2109 4.90577 5.469C5.64893 4.7271 6.54124 4.35551 7.58268 4.35425H21.1853C21.6908 4.35425 22.1806 4.45726 22.6546 4.66327C23.1285 4.86928 23.5393 5.14544 23.8868 5.49175L40.5702 22.2225C40.9493 22.6016 41.2261 23.0282 41.4006 23.5022C41.575 23.9761 41.6615 24.4501 41.6603 24.924C41.659 25.398 41.5724 25.8644 41.4006 26.3232C41.2287 26.782 40.9519 27.2003 40.5702 27.5782ZM12.3223 15.7292C13.1122 15.7292 13.784 15.4531 14.3375 14.9008C14.8911 14.3484 15.1673 13.6767 15.166 12.8855C15.1648 12.0943 14.8886 11.4232 14.3375 10.8721C13.7865 10.3211 13.1147 10.0443 12.3223 10.0417C11.5298 10.0392 10.8587 10.316 10.3089 10.8721C9.7591 11.4282 9.48231 12.0994 9.47852 12.8855C9.47472 13.6716 9.75152 14.3434 10.3089 14.9008C10.8663 15.4581 11.5374 15.7343 12.3223 15.7292Z" fill="url(#paint0_linear_371_8804)"/>
<defs>
<linearGradient id="paint0_linear_371_8804" x1="22.7257" y1="4.35425" x2="22.7257" y2="42.2709" gradientUnits="userSpaceOnUse">
<stop stop-color="#8BC34A"/>
<stop offset="1" stop-color="#CCFF90"/>
</linearGradient>
</defs>
</svg>
