<svg width="48" height="49" viewBox="0 0 48 49" fill="none" xmlns="http://www.w3.org/2000/svg">
<g clip-path="url(#clip0_371_9226)">
<path d="M21.8672 21.1582H26.1339V28.0915H21.8672V21.1582Z" fill="#FFCC00"/>
<path d="M28.0013 28.6247C28.0013 28.9783 27.8608 29.3174 27.6108 29.5675C27.3607 29.8175 27.0216 29.958 26.668 29.958H21.3346C20.981 29.958 20.6419 29.8175 20.3918 29.5675C20.1418 29.3174 20.0013 28.9783 20.0013 28.6247V25.958H2.66797V37.958C2.66797 38.6653 2.94892 39.3435 3.44902 39.8436C3.94911 40.3437 4.62739 40.6247 5.33464 40.6247H42.668C43.3752 40.6247 44.0535 40.3437 44.5536 39.8436C45.0537 39.3435 45.3346 38.6653 45.3346 37.958V25.958H28.0013V28.6247Z" fill="#FFCC00"/>
<path d="M44.948 17.1313L39.4947 11.678C39.2463 11.4317 38.9111 11.2928 38.5613 11.2913H31.8947V8.69134C31.9127 7.99075 31.6543 7.31119 31.1752 6.79968C30.6961 6.28817 30.0349 5.98581 29.3347 5.95801H18.4547C18.1124 5.97147 17.7764 6.05347 17.4665 6.19913C17.1565 6.3448 16.8789 6.55118 16.6502 6.80605C16.4214 7.06092 16.2461 7.3591 16.1347 7.68293C16.0232 8.00676 15.9779 8.34967 16.0013 8.69134V11.2913H9.44132C9.26585 11.2903 9.0919 11.324 8.92945 11.3903C8.767 11.4567 8.61924 11.5544 8.49466 11.678L3.05466 17.1313C2.93108 17.2559 2.83332 17.4037 2.76696 17.5661C2.70061 17.7286 2.66698 17.9025 2.66799 18.078V23.2913H20.0013V20.6247C20.0013 20.2711 20.1418 19.9319 20.3918 19.6819C20.6419 19.4318 20.981 19.2913 21.3347 19.2913H26.668C27.0216 19.2913 27.3608 19.4318 27.6108 19.6819C27.8609 19.9319 28.0013 20.2711 28.0013 20.6247V23.2913H45.3347V18.0647C45.3332 17.7149 45.1943 17.3797 44.948 17.1313ZM29.3347 11.2913H18.668V8.62467H29.3347V11.2913Z" fill="#FFCC00"/>
</g>
<defs>
<clipPath id="clip0_371_9226">
<rect width="48" height="48" fill="white" transform="translate(0 0.625)"/>
</clipPath>
</defs>
</svg>
