<svg width="48" height="48" viewBox="0 0 48 48" fill="none" xmlns="http://www.w3.org/2000/svg">
<rect width="48" height="48" rx="12" fill="#1E242E"/>
<path d="M32.8438 30.6875C32.8438 30.8781 32.768 31.0609 32.6332 31.1957C32.4984 31.3305 32.3156 31.4062 32.125 31.4062H14.875C14.6844 31.4062 14.5016 31.3305 14.3668 31.1957C14.232 31.0609 14.1562 30.8781 14.1562 30.6875C14.1562 30.4969 14.232 30.3141 14.3668 30.1793C14.5016 30.0445 14.6844 29.9688 14.875 29.9688H32.125C32.3156 29.9688 32.4984 30.0445 32.6332 30.1793C32.768 30.3141 32.8438 30.4969 32.8438 30.6875ZM32.8438 17.0312V27.0938C32.8438 27.475 32.6923 27.8406 32.4227 28.1102C32.1531 28.3798 31.7875 28.5312 31.4062 28.5312H15.5938C15.2125 28.5312 14.8469 28.3798 14.5773 28.1102C14.3077 27.8406 14.1562 27.475 14.1562 27.0938V17.0312C14.1562 16.65 14.3077 16.2844 14.5773 16.0148C14.8469 15.7452 15.2125 15.5938 15.5938 15.5938H31.4062C31.7875 15.5938 32.1531 15.7452 32.4227 16.0148C32.6923 16.2844 32.8438 16.65 32.8438 17.0312ZM26.7344 22.0625C26.7343 21.947 26.7065 21.8332 26.6532 21.7308C26.5998 21.6284 26.5226 21.5403 26.428 21.474L22.8343 18.9584C22.7266 18.883 22.6002 18.8385 22.469 18.8299C22.3378 18.8212 22.2068 18.8488 22.0901 18.9095C21.9735 18.9701 21.8757 19.0617 21.8075 19.174C21.7393 19.2864 21.7032 19.4154 21.7031 19.5469V24.5781C21.7032 24.7096 21.7393 24.8386 21.8075 24.951C21.8757 25.0633 21.9735 25.1549 22.0901 25.2155C22.2068 25.2762 22.3378 25.3038 22.469 25.2951C22.6002 25.2865 22.7266 25.242 22.8343 25.1666L26.428 22.651C26.5226 22.5847 26.5998 22.4966 26.6532 22.3942C26.7065 22.2918 26.7343 22.178 26.7344 22.0625Z" fill="white"/>
</svg>
